<ttFont>
          <CharString index="0">
            7 -134 12 0 6 134 0 67 -25 0 rlineto
            return
          </CharString>
          <CharString index="1">
            -85 29 -40 98 vhcurveto
            101 hlineto
            101 28 40 85 hvcurveto
            133 vlineto
            85 -29 40 -98 vhcurveto
            -101 hlineto
            -101 -28 -40 -85 hvcurveto
            return
          </CharString>
          <CharString index="2">
            133 vlineto
            89 35 21 79 vhcurveto
            101 hlineto
            86 26 -32 -78 hvcurveto
            -133 vlineto
            -89 -37 -21 -77 vhcurveto
            -101 hlineto
            -78 -34 24 86 hvcurveto
            return
          </CharString>
          <CharString index="3">
            -316 159 -220 0 vhcurveto
            28 hlineto
            0 -163 236 300 272 162 262 0 hvcurveto
            -27 hlineto
            0 -159 -260 -274 hvcurveto
            return
          </CharString>
          <CharString index="4">
            27 hlineto
            0 159 220 316 274 -159 260 0 hvcurveto
            -27 hlineto
            0 162 -262 -272 -300 -162 -236 0 hvcurveto
            return
          </CharString>
          <CharString index="5">
            6 -47 hlineto
            -6 -1 -9 -15 vhcurveto
            -6 vlineto
            0 32 -9 40 hvcurveto
            return
          </CharString>
          <CharString index="6">
            112 vlineto
            8 -3 5 -9 vhcurveto
            -10 hlineto
            -8 -4 -4 -9 hvcurveto
            return
          </CharString>
          <CharString index="7">
            -7 5 -5 7 vhcurveto
            11 hlineto
            7 5 4 8 hvcurveto
            62 vlineto
            7 -4 5 -8 vhcurveto
            -11 hlineto
            -8 -4 -4 -8 hvcurveto
            return
          </CharString>
          <CharString index="8">
            272 hlineto
            109 71 -45 -139 hvcurveto
            0 -166 -347 -265 -98 -79 rrcurveto
            -23 470 24 -431 vlineto
            51 39 380 288 0 181 0 124 -56 86 -147 0 rrcurveto
            return
          </CharString>
          <CharString index="9">
            -117 2 -111 -1 -60 -11 rrcurveto
            return
          </CharString>
          <CharString index="10">
            12 -25 395 0 0 -210 24 0 0 210 rlineto
            return
          </CharString>
          <CharString index="11">
            -10 -75 0 -236 -378 0 305 496 -27 0 rlineto
            return
          </CharString>
          <CharString index="12">
            72 -10 108 0 124 0 rrcurveto
            62 101 33 137 hvcurveto
            99 vlineto
            97 -45 69 -118 vhcurveto
            -151 hlineto
            -72 0 -44 -51 -8 -15 rrcurveto
            17 343 400 0 0 24 -423 0 -22 -450 24 0 rlineto
            66 65 59 60 vhcurveto
            153 hlineto
            126 14 -94 -50 hvcurveto
            -95 vlineto
            -100 -69 -48 -70 vhcurveto
            return
          </CharString>
          <CharString index="13">
            -303 79 -82 109 vhcurveto
            119 hlineto
            94 67 37 112 hvcurveto
            111 vlineto
            82 -27 64 -134 vhcurveto
            return
          </CharString>
          <CharString index="14">
            -74 0 -124 -1 -85 -10 rrcurveto
            112 24 208 127 vhcurveto
            return
          </CharString>
          <CharString index="15">
            -61 7 -110 2 -101 0 rrcurveto
            -92 -80 -96 -258 hvcurveto
            return
          </CharString>
          <CharString index="16">
            283 hlineto
            76 62 -16 -105 hvcurveto
            -113 vlineto
            -104 -76 -19 -62 vhcurveto
            -119 hlineto
            -144 -20 201 156 hvcurveto
            return
          </CharString>
          <CharString index="17">
            426 0 -238 -708 28 0 238 709 -16 23 -438 0 rlineto
            return
          </CharString>
          <CharString index="18">
            -41 4 -113 172 vhcurveto
            115 hlineto
            64 99 24 130 hvcurveto
            98 vlineto
            0 63 -22 45 -70 20 56 4 36 61 0 54 rrcurveto
            65 vlineto
            123 -55 50 -107 vhcurveto
            -116 hlineto
            -103 -73 -39 -134 hvcurveto
            -65 vlineto
            0 -53 14 -65 86 -15 rrcurveto
            -39 -61 -37 -76 hvcurveto
            return
          </CharString>
          <CharString index="19">
            105 vlineto
            82 95 24 46 vhcurveto
            129 hlineto
            50 86 0 -106 hvcurveto
            -105 vlineto
            -96 -78 -31 -61 vhcurveto
            -115 hlineto
            -85 -67 34 93 hvcurveto
            return
          </CharString>
          <CharString index="20">
            68 vlineto
            104 43 47 109 vhcurveto
            116 hlineto
            93 45 -41 -110 hvcurveto
            -68 vlineto
            -46 -39 -63 -97 vhcurveto
            -129 hlineto
            -66 -75 8 101 hvcurveto
            return
          </CharString>
          <CharString index="21">
            -82 27 -64 134 vhcurveto
            return
          </CharString>
          <CharString index="22">
            74 0 124 1 85 10 rrcurveto
            -112 -24 -208 -127 vhcurveto
            return
          </CharString>
          <CharString index="23">
            61 -7 110 -2 101 0 rrcurveto
            92 80 96 258 303 -79 82 -109 hvcurveto
            -119 hlineto
            -94 -67 -37 -112 hvcurveto
            return
          </CharString>
          <CharString index="24">
            113 vlineto
            104 76 19 62 vhcurveto
            119 hlineto
            return
          </CharString>
          <CharString index="25">
            144 20 -201 -156 hvcurveto
            return
          </CharString>
          <CharString index="26">
            -283 hlineto
            -76 -62 16 105 hvcurveto
            return
          </CharString>
          <CharString index="27">
            -7 5 -4 7 vhcurveto
            11 hlineto
            7 5 3 8 hvcurveto
            63 vlineto
            7 -4 5 -8 vhcurveto
            -11 hlineto
            -8 -4 -4 -8 hvcurveto
            return
          </CharString>
          <CharString index="28">
            344 -204 0 28 -314 186 314 175 0 27 -344 -192 rlineto
            return
          </CharString>
          <CharString index="29">
            -116 66 -62 102 vhcurveto
            319 hlineto
            138 39 80 98 hvcurveto
            512 vlineto
            0 125 -71 61 -106 2 rrcurveto
            -101 hlineto
            return
          </CharString>
          <CharString index="30">
            -126 1 -114 -1 -48 -10 rrcurveto
            -14 vlineto
            return
          </CharString>
          <CharString index="31">
            372 vlineto
            110 -82 30 -71 vhcurveto
            -200 hlineto
            -166 -2 -128 -36 hvcurveto
            return
          </CharString>
          <CharString index="32">
            26 0 94 253 333 0 91 -253 26 0 -262 732 -34 0 rlineto
            return
          </CharString>
          <CharString index="33">
            162 431 153 -431 rlineto
            return
          </CharString>
          <CharString index="34">
            253 hlineto
            154 39 102 102 hvcurveto
            0 114 -88 56 -44 10 63 7 66 62 0 96 rrcurveto
            107 -42 76 -148 vhcurveto
            -253 hlineto
            return
          </CharString>
          <CharString index="35">
            346 229 vlineto
            92 2 77 -75 0 -92 rrcurveto
            -150 -90 -31 -79 vhcurveto
            return
          </CharString>
          <CharString index="36">
            313 229 vlineto
            107 0 63 -41 -4 -118 -3 -98 -70 -56 -93 0 rrcurveto
            return
          </CharString>
          <CharString index="37">
            -215 58 -159 185 vhcurveto
            52 0 92 9 70 13 rrcurveto
            14 vlineto
            0 -108 -12 -105 -152 -68 120 228 280 72 70 147 vhcurveto
            92 0 121 -14 1 0 rrcurveto
            14 vlineto
            -70 13 -92 11 -52 0 rrcurveto
            -203 -40 -142 -230 hvcurveto
            return
          </CharString>
          <CharString index="38">
            253 hlineto
            185 74 197 166 150 -33 219 -226 hvcurveto
            -253 hlineto
            return
          </CharString>
          <CharString index="39">
            684 229 vlineto
            148 87 -108 -236 -148 -68 -192 -167 hvcurveto
            return
          </CharString>
          <CharString index="40">
            286 10 0 14 rlineto
            return
          </CharString>
          <CharString index="41">
            -287 hlineto
            -55 -57 10 92 hvcurveto
            0 228 359 5 0 14 -359 5 0 227 rlineto
            75 40 31 62 vhcurveto
            return
          </CharString>
          <CharString index="42">
            -297 10 rlineto
            -63.9949951172 2.15400695801 -62.0050048828 -34.154006958 0 -98 rrcurveto
            return
          </CharString>
          <CharString index="43">
            24 351 hlineto
            359 5 0 14 -359 5 0 227 rlineto
            75 40 31 62 vhcurveto
            return
          </CharString>
          <CharString index="44">
            0 -207 16 -170 207 2 90 0 119 43 30 16 rrcurveto
            8 -54 14 0 0 386 rlineto
            -24 2 -23 1 -21 0 rrcurveto
            return
          </CharString>
          <CharString index="45">
            -81 0 -49 0 -40 -11 rrcurveto
            -14 214 -295 vlineto
            0 -159 -50 -78 -159 -40 101 248 217 28 131 166 vhcurveto
            94 0 149 -22 6 0 rrcurveto
            19 vlineto
            -70 13 -127 14 -52 0 rrcurveto
            -199 -19 -170 -200 hvcurveto
            return
          </CharString>
          <CharString index="46">
            24 342 440 -342 24 732 -24 -366 -440 366 -24 hlineto
            return
          </CharString>
          <CharString index="47">
            24 732 -24 hlineto
            return
          </CharString>
          <CharString index="48">
            52 -34 87 -1 43 32 45 33 7 67 0 47 rrcurveto
            567 -24 -567 vlineto
            0 -174 -118 17 -88 27 rrcurveto
            return
          </CharString>
          <CharString index="49">
            25 355 150 hlineto
            241 -355 30 0 -248 367 248 365 -29 0 -241 -353 -152 0 0 353 -24 0 rlineto
            return
          </CharString>
          <CharString index="50">
            -113 70 -13 66 vhcurveto
            276 24 -276 hlineto
            -54 -58 10 92 hvcurveto
            606 -24 vlineto
            return
          </CharString>
          <CharString index="51">
            24 0 77 703 216 -703 27 0 212 703 81 -703 24 0 -84 732 -38 0 -209 -691 -213 691 -36 0 rlineto
            return
          </CharString>
          <CharString index="52">
            24 686 hlineto
            441 -686 24 0 0 732 -24 0 0 -686 -440 686 -25 0 rlineto
            return
          </CharString>
          <CharString index="53">
            -333 88 -32 180 180 88 42 323 343 -95 33 -173 -172 -96 -33 -343 vhcurveto
            return
          </CharString>
          <CharString index="54">
            337 96 15 148 160 84 -28 -324 -296 -73 -45 -171 -179 -65 43 298 vhcurveto
            return
          </CharString>
          <CharString index="55">
            5 -3 207 -7 40 0 rrcurveto
            74 102 5 204 179 -97 21 -79 hvcurveto
            -276 hlineto
            return
          </CharString>
          <CharString index="56">
            360 252 vlineto
            76 75 -21 -154 hvcurveto
            return
          </CharString>
          <CharString index="57">
            20 -94 98 -20 72 27 rrcurveto
            24 vlineto
            -59 -20 -87 1 -30 82 rrcurveto
            return
          </CharString>
          <CharString index="58">
            5 -3 185 -6 53 -1 rrcurveto
            162 -323 25 0 -161 323 rlineto
            72 2 87 19 0 188 rrcurveto
            179 -97 21 -79 vhcurveto
            -276 hlineto
            return
          </CharString>
          <CharString index="59">
            360 252 vlineto
            76 75 -21 -154 -162 -72 -23 -79 hvcurveto
            return
          </CharString>
          <CharString index="60">
            244 -708 24 708 250 24 -518 hlineto
            return
          </CharString>
          <CharString index="61">
            -329 120 4 136 121 130 2 323 vhcurveto
            412 -24 -412 vlineto
            -285 -102 -16 -125 -136 -96 2 299 vhcurveto
            412 -24 vlineto
            return
          </CharString>
          <CharString index="62">
            262 -732 34 0 138 396 160 -396 34 0 254 732 -24 0 -248 -708 -163 407 103 301 -26 0 -245 -708 -253 708 rlineto
            return
          </CharString>
          <CharString index="63">
            243 -472 0 -260 24 0 0 260 263 472 -27 0 -248 -441 -228 441 rlineto
            return
          </CharString>
          <CharString index="64">
            463 24 -433 hlineto
            433 684 0 24 -463 0 0 -24 433 0 -433 -684 rlineto
            return
          </CharString>
          <CharString index="65">
            18 0 124 115 112 -115 18 0 -120 130 -20 0 rlineto
            return
          </CharString>
          <CharString index="66">
            133 -133 14 0 -121 133 rlineto
            return
          </CharString>
          <CharString index="67">
            -85 60 -47 73 vhcurveto
            98 0 142 70 2 0 rrcurveto
            return
          </CharString>
          <CharString index="68">
            9 -64 15 0 rlineto
            return
          </CharString>
          <CharString index="69">
            387 vlineto
            0 110 -70 45 -83 -1 -100 -1 -72 -16 -57 -14 rrcurveto
            -14 vlineto
            91 14 65 10 72 -1 101 -1 29 -62 0 -69 1 -1 -1 -66 0 0 rrcurveto
            -1 -242 1 0 -82 -51 -48 -85 vhcurveto
            return
          </CharString>
          <CharString index="70">
            56 vlineto
            0 61 28 45 81 3 rrcurveto
            242 10 0 -228 rlineto
            0 0 -162 -62 -80 2 -49 1 -60 27 0 85 rrcurveto
            return
          </CharString>
          <CharString index="71">
            10 59 rlineto
            26 -24 102 -41 68 0 rrcurveto
            145 40 147 122 136 -34 140 -151 hvcurveto
            -45 0 -88 -14 -64 -26 rrcurveto
            286 -22 vlineto
            return
          </CharString>
          <CharString index="72">
            412 vlineto
            69 18 50 12 77 0 rrcurveto
            84 77 -47 -205 -174 -76 -71 -85 hvcurveto
            -79 0 -64 28 -53 27 rrcurveto
            return
          </CharString>
          <CharString index="73">
            -233 75 -38 99 vhcurveto
            83 1 42 5 81 23 rrcurveto
            16 vlineto
            0 -114 -21 -92 -86 -64 37 206 216 59 34 91 89 109 -16 0 vhcurveto
            14 vlineto
            -62 14 -84 12 -52 0 rrcurveto
            -102 -72 -38 -232 hvcurveto
            return
          </CharString>
          <CharString index="74">
            -122 39 -147 145 vhcurveto
            68 0 102 41 26 24 rrcurveto
            return
          </CharString>
          <CharString index="75">
            785 -21 -286 vlineto
            -64 26 -89 14 -45 0 rrcurveto
            -151 -33 -140 -136 hvcurveto
            return
          </CharString>
          <CharString index="76">
            209 76 43 84 vhcurveto
            77 0 50 -12 69 -18 rrcurveto
            -412 vlineto
            -53 -27 -64 -28 -79 0 rrcurveto
            -85 -75 64 181 hvcurveto
            return
          </CharString>
          <CharString index="77">
            0 -196 38 -75 136 -2 83 -1 56 6 81 23 rrcurveto
            16 vlineto
            -75 -11 -53 -9 -92 0 rrcurveto
            -87 -63 29 202 hvcurveto
            244 hlineto
            86 50 18 79 176 -81 12 -121 -148 -54 -33 -234 hvcurveto
            return
          </CharString>
          <CharString index="78">
            208 39 30 139 118 60 -14 -150 -70 -56 -4 -56 vhcurveto
            return
          </CharString>
          <CharString index="79">
            507 178 24 -178 99 vlineto
            78 9 54 68 vhcurveto
            return
          </CharString>
          <CharString index="80">
            -36 10 -84 1 -30 0 rrcurveto
            -90 -3 -102 -54 hvcurveto
            0 -99 rlineto
            return
          </CharString>
          <CharString index="81">
            0 -14 2 -13.5 7 -9.5 rrcurveto
            -12 -105 0 -94 rlineto
            -99 62 -55 94 vhcurveto
            150 hlineto
            131 19 84 60 hvcurveto
            53 vlineto
            79 -50.5 54 -94.5 vhcurveto
            -206 hlineto
            -28 -52 16 40 52 73 5 16 hvcurveto
            156 hlineto
            return
          </CharString>
          <CharString index="82">
            142 23 111 60 hvcurveto
            0 115 -43 37 -18 13 rrcurveto
            return
          </CharString>
          <CharString index="83">
            111 10 0 14 rlineto
            return
          </CharString>
          <CharString index="84">
            -312 hlineto
            -121 -51 -57 -132 hvcurveto
            0 -59 13 -67 74 -30 rrcurveto
            -58.5 -2 -26.5 -36 0 -30 rrcurveto
            return
          </CharString>
          <CharString index="85">
            182 vlineto
            0 28 -29 54 vhcurveto
            204 hlineto
            90.5 30.5 -51 -59 hvcurveto
            -53 vlineto
            -94 -56 -26 -70 vhcurveto
            -150 hlineto
            -40 -91 18 112 hvcurveto
            return
          </CharString>
          <CharString index="86">
            98 28 67 110 vhcurveto
            148 hlineto
            return
          </CharString>
          <CharString index="87">
            50 50 -51 -114 -74 -35 -72 -108 hvcurveto
            -102 hlineto
            -85 -56 40 106 hvcurveto
            return
          </CharString>
          <CharString index="88">
            24 455 hlineto
            74 40 54 21 88 0 rrcurveto
            89 51 -62 -84 hvcurveto
            -370 24 370 vlineto
            88 -58 82 -106 vhcurveto
            -81 0 -77 -33 -58 -38 rrcurveto
            315 -24 vlineto
            return
          </CharString>
          <CharString index="89">
            -7 5 -5 7 vhcurveto
            11 hlineto
            7 4 4 8 hvcurveto
            62 vlineto
            7 -3 5 -8 vhcurveto
            -11 hlineto
            -8 -4 -4 -8 hvcurveto
            return
          </CharString>
          <CharString index="90">
            24 531 -24 hlineto
            return
          </CharString>
          <CharString index="91">
            12 88 0 92 -1 86 rrcurveto
            535 -24 vlineto
            return
          </CharString>
          <CharString index="92">
            24 293 60 hlineto
            270 -293 35 0 -281 304 282 227 -38 0 -268 -214 -60 0 0 465 -24 0 rlineto
            return
          </CharString>
          <CharString index="93">
            -132 39 -57 84 vhcurveto
            67 13 hlineto
            -7 -67 11 0 hvcurveto
            -30 4 -62 4 0 157 rrcurveto
            594 -24 vlineto
            return
          </CharString>
          <CharString index="94">
            24 455 hlineto
            74 40 54 21 88 0 rrcurveto
            89 51 -67 -79 hvcurveto
            -370 24 370 vlineto
            0 27 -6 25 -10 24 71 38 76 32 84 0 rrcurveto
            89 51 -67 -79 hvcurveto
            -370 24 370 vlineto
            88 -58 82 -106 vhcurveto
            -80 0 -104 -43 -52 -39 -26 48 -49 34 -68 0 -81 0 -77 -33 -58 -38 rrcurveto
            return
          </CharString>
          <CharString index="95">
            -10 62 -14 0 rlineto
            return
          </CharString>
          <CharString index="96">
            24 455 hlineto
            74 40 54 21 88 0 rrcurveto
            89 51 -67 -79 hvcurveto
            -370 24 370 vlineto
            88 -58 82 -106 vhcurveto
            -81 0 -77 -33 -58 -38 rrcurveto
            return
          </CharString>
          <CharString index="97">
            -190 42 -73 176 168 52 69 194 187 -47 91 -173 -159 -59 -61 -217 vhcurveto
            return
          </CharString>
          <CharString index="98">
            232 74 22 120 121 75 -37 -217 -202 -68 -37 -128 -127 -67 28 211 vhcurveto
            return
          </CharString>
          <CharString index="99">
            23 300 hlineto
            64 -26 87 -14 45 0 rrcurveto
            151 34 140 136 122 -40 147 -145 hvcurveto
            -68 0 -101 -41 -26 -24 rrcurveto
            return
          </CharString>
          <CharString index="100">
            412 vlineto
            53 27 63 28 79 0 rrcurveto
            85 76 -71 -174 -205 -77 -47 -84 hvcurveto
            -77 0 -49 12 -69 18 rrcurveto
            return
          </CharString>
          <CharString index="101">
            24 444 hlineto
            77 37 52 32 89 0 29 0 21 -2 24 -5 rrcurveto
            23 vlineto
            -20 7 -25 1 -29 0 -90 0 -67 -38 -61 -35 rrcurveto
            return
          </CharString>
          <CharString index="102">
            -103 44 -8 94 vhcurveto
            128 hlineto
            71 35 -41 -49 hvcurveto
            -49 vlineto
            -93 -59 -1 -47 vhcurveto
            return
          </CharString>
          <CharString index="103">
            38 -4 157 -6 49 0 rrcurveto
            64 66 9 109 hvcurveto
            49 vlineto
            75 -54 39 -76 vhcurveto
            -128 hlineto
            -75 -39 1 86 hvcurveto
            46 vlineto
            72 30 32 84 vhcurveto
            return
          </CharString>
          <CharString index="104">
            -52 5 -127 4 -52 0 rrcurveto
            -103 -35 -45 -82 hvcurveto
            return
          </CharString>
          <CharString index="105">
            84 -320 hlineto
            -132 39 -57 84 vhcurveto
            67 13 hlineto
            -7 -67 11 0 hvcurveto
            -30 4 -62 4 0 157 rrcurveto
            return
          </CharString>
          <CharString index="106">
            -175 148 -16 hlineto
            return
          </CharString>
          <CharString index="107">
            -88 58 -82 106 vhcurveto
            81 0 77 33 58 38 rrcurveto
            return
          </CharString>
          <CharString index="108">
            10 -62 14 0 rlineto
            return
          </CharString>
          <CharString index="109">
            531 -24 -455 vlineto
            -74 -40 -54 -21 -88 0 rrcurveto
            -89 -51 67 79 hvcurveto
            370 -24 vlineto
            return
          </CharString>
          <CharString index="110">
            208 -531 26 0 116 304 135 -304 26 0 212 531 -23 0 -202 -501 -136 302 74 199 -24 0 -191 -501 -196 501 rlineto
            return
          </CharString>
          <CharString index="111">
            150 -421 rlineto
            31 -101 65 -8 21 -1 rrcurveto
            -87 -270 12 0 46 102 233 699 -25 0 -171 -506 rlineto
            1 0 -65 -12 -37 103 rrcurveto
            -148 415 rlineto
            return
          </CharString>
          <CharString index="112">
            364 0 -348 -482 0 -24 380 0 rlineto
            0 0 1 23 -1 1 rrcurveto
            -350 0 350 482 0 24 -396 0 rlineto
            return
          </CharString>
          <CharString index="113">
            4 -8 rlineto
            36 26 28 24 38 0 33 0 51 -73 42 0 42 0 31 29 33 33 rrcurveto
            -6 7 rlineto
            -23 -19 -38 -34 -39 0 -32 0 -55 73 -39 0 -39 0 -33 -28 -34 -30 rrcurveto
            return
          </CharString>
          <CharString index="114">
            -10 7 -8 10 10 7 8 10 10 -7 7 -10 -10 -7 -7 -10 vhcurveto
            return
          </CharString>
          <CharString index="115">
            -10 8 -8 10 10 7 8 10 10 -7 7 -10 -10 -8 -7 -10 vhcurveto
            return
          </CharString>
          <CharString index="116">
            -134 57 -234 184 vhcurveto
            256 hlineto
            151 68 175 193 124 -23 240 -196 hvcurveto
            -256 hlineto
            -192 -49 -201 -163 hvcurveto
            return
          </CharString>
          <CharString index="117">
            3 271 113 79 111 0 rrcurveto
            256 hlineto
            151 54 -159 -191 -231 -92 -123 -113 hvcurveto
            -256 hlineto
            -156 0 -73 197 2 157 rrcurveto
            return
          </CharString>
          <CharString index="118">
            314 24 -314 hlineto
            return
          </CharString>
          <CharString index="119">
            252 15 -252 hlineto
            return
          </CharString>
          <CharString index="120">
            -57 46 -45 56 56 44 45 57 57 -44 46 -56 -56 -46 -46 -57 vhcurveto
            return
          </CharString>
          <CharString index="121">
            48 40 40 48 48 38 -40 -48 -48 -38 -39 -48 -48 -40 39 48 vhcurveto
            return
          </CharString>
          <CharString index="122">
            177 hlineto
            96 21 -52 -69 hvcurveto
            0 -106 -224 -169 -67 -54 rrcurveto
            -14 309 18 -275 vlineto
            38 30 238 176 0 122 0 78 -32 58 -98 0 rrcurveto
            return
          </CharString>
          <CharString index="123">
            -72 0 -45 1 -66 -8 rrcurveto
            -1 1 -1 -12 2 0 rrcurveto
            return
          </CharString>
          <CharString index="124">
            194 hlineto
            50 56 -16 -75 hvcurveto
            -35 vlineto
            0 -50 -52 -31 -62 -2 rrcurveto
            -142 -4 0 -10 142 -4 rlineto
            52 -1 60 -29 0 -60 rrcurveto
            -23 vlineto
            -82 -34 -23 -82 vhcurveto
            return
          </CharString>
          <CharString index="125">
            42 -9 70 -2 74 0 rrcurveto
            99 28 48 71 hvcurveto
            28 vlineto
            0 63 -62 31 -21 4 23 2 60 32 0 57 rrcurveto
            35 vlineto
            60 -34 50 -87 vhcurveto
            return
          </CharString>
          <CharString index="126">
            -76 0 -74 1 -46 -9 rrcurveto
            return
          </CharString>
          <CharString index="127">
            14 0 133 133 -26 0 rlineto
            return
          </CharString>
          <CharString index="128">
            -7 30 vlineto
            83 18 36 100 hvcurveto
            -17 hlineto
            2 -108 -31 -8 -53 -8 rrcurveto
            return
          </CharString>
          <CharString index="129">
            128 46 0 -458 18 0 0 476 -18 0 -128 -55 rlineto
            return
          </CharString>
          <CharString index="130">
            18 0 386 770 -18 0 rlineto
            return
          </CharString>
          <CharString index="131">
            4 -10 287 0 0 -166 18 0 0 166 rlineto
            return
          </CharString>
          <CharString index="132">
            59 11 0 8 -59 0 rlineto
            return
          </CharString>
          <CharString index="133">
            -9 -48 0 -121 -265 0 184 289 -20 0 rlineto
            return
          </CharString>
          <CharString index="134">
            -251 hlineto
            -125 -51 40 120 hvcurveto
            102 vlineto
            101 59 35 104 vhcurveto
            106 122 -26 -102 hlineto
            -188 19 -79 -40 0 -135 rrcurveto
            return
          </CharString>
          <CharString index="135">
            -7 3 -5 8 vhcurveto
            12 hlineto
            8 4 4 8 hvcurveto
            62 vlineto
            7 -5 5 -7 vhcurveto
            -12 hlineto
            -7 -4 -4 -8 hvcurveto
            return
          </CharString>
          <CharString index="136">
            0 -113 70.97265625 -15.30078125 66.02734375 2.30078125 rrcurveto
            return
          </CharString>
          <CharString index="137">
            -297 10 rlineto
            -63.9951171875 2.154296875 -62.0048828125 -34.154296875 0 -98 rrcurveto
            return
          </CharString>
          <CharString index="138">
            65 -366 243 hlineto
            185 74 197 166 150 -33 219 -226 hvcurveto
            -243 -352 -65 hlineto
            return
          </CharString>
          <CharString index="139">
            342 159 14 -159 328 219 vlineto
            148 87 -108 -236 -148 -68 -192 -167 hvcurveto
            return
          </CharString>
          <CharString index="140">
            -20 13 -12 20 vhcurveto
            24 hlineto
            20 15 8 24 hvcurveto
            30 vlineto
            22 -10 13 -25 vhcurveto
            -24 hlineto
            -22 -11 -14 -21 hvcurveto
            return
          </CharString>
          <CharString index="141">
            -10 7 -5 8 vhcurveto
            return
          </CharString>
          <CharString index="142">
            1.52587890625e-05 -10 7 -5 8 0 rrcurveto
            return
          </CharString>
          <CharString index="143">
            7 -38 hlineto
            0 -7 -1 -12 -18 1 rrcurveto
            -7 vlineto
            0 38 -12 49 hvcurveto
            return
          </CharString>
          <CharString index="144">
            105 vlineto
            9 -3 7 -11 vhcurveto
            -12 hlineto
            -10 -5 -5 -11 hvcurveto
            return
          </CharString>
          <CharString index="145">
            -100 58 -10 59 vhcurveto
            117 hlineto
            64 49 14 96 hvcurveto
            255 vlineto
            67 -30 43 -83 vhcurveto
            -117 hlineto
            -71 -46 -26 -84 hvcurveto
            return
          </CharString>
          <CharString index="146">
            247 vlineto
            72 30 24 73 vhcurveto
            109 hlineto
            74 25 -33 -63 hvcurveto
            -247 vlineto
            -67 -15 -29 -84 vhcurveto
            -109 hlineto
            -69 -34 16 80 hvcurveto
            return
          </CharString>
          <CharString index="147">
            36 -6 98 -1 81 0 rrcurveto
            63 46 32 82 hvcurveto
            64 vlineto
            71 -32 29 -77 vhcurveto
            -82 0 -86 12 -28 -61 rrcurveto
            12 232 279 0 0 18 -295 0 -15 -292 18 0 rlineto
            1 37 40 36 46 0 rrcurveto
            110 hlineto
            84 7 -36 -50 hvcurveto
            -56 vlineto
            -68 -34 -31 -61 vhcurveto
            return
          </CharString>
          <CharString index="148">
            -2 -213 62 -37 72 0 rrcurveto
            107 hlineto
            61 44 33 72 hvcurveto
            73 vlineto
            return
          </CharString>
          <CharString index="149">
            -48 0 -118 -1 -55 -6 1 123 20 89 84 0 rrcurveto
            205 12 hlineto
            -42 6 -97 2 -67 -2 rrcurveto
            -65 -2 -55 -31 -2 -197 rrcurveto
            return
          </CharString>
          <CharString index="150">
            220 hlineto
            54 34 -5 -57 hvcurveto
            -72 vlineto
            -56 -30 -31 -58 vhcurveto
            -106 hlineto
            -71 -43 45 176 hvcurveto
            return
          </CharString>
          <CharString index="151">
            317 0 -181 -458 18 0 183 461 -10 15 -327 0 rlineto
            return
          </CharString>
          <CharString index="152">
            -54 17 -50 92 vhcurveto
            120 hlineto
            55 50 20 84 hvcurveto
            58 vlineto
            0 45 -38 31 -33 6 48 4 23 42 0 34 rrcurveto
            40 vlineto
            86 -38 31 -70 vhcurveto
            -110 hlineto
            -67 -49 -25 -92 hvcurveto
            -40 vlineto
            0 -34 18 -42 55 -10 -27 -1 -46 -27 0 -48 rrcurveto
            return
          </CharString>
          <CharString index="153">
            52 vlineto
            42 39 31 54 vhcurveto
            125 hlineto
            29 51 -22 -53 hvcurveto
            -50 vlineto
            -68 -32 -22 -59 vhcurveto
            -112 hlineto
            -70 -25 25 65 hvcurveto
            return
          </CharString>
          <CharString index="154">
            32 vlineto
            80 34 23 68 vhcurveto
            97 hlineto
            66 33 -19 -84 hvcurveto
            -32 vlineto
            -51 -44 -26 -40 vhcurveto
            -131 hlineto
            -45 -38 24 53 hvcurveto
            return
          </CharString>
          <CharString index="155">
            48 0 118 1 55 6 -1 -123 -20 -89 -84 0 rrcurveto
            -205 -12 hlineto
            42 -6 97 -2 67 2 65 2 55 31 2 197 2 213 -62 37 -72 0 rrcurveto
            -107 hlineto
            -61 -44 -33 -72 hvcurveto
            return
          </CharString>
          <CharString index="156">
            72 vlineto
            56 30 31 58 vhcurveto
            106 hlineto
            71 43 -45 -176 hvcurveto
            return
          </CharString>
          <CharString index="157">
            -220 hlineto
            -54 -34 5 57 hvcurveto
            return
          </CharString>
          <CharString index="158">
            261 hlineto
            108 82 -40 -122 hvcurveto
            0 -155 -354 -227 -92 -48 rrcurveto
            -23 465 24 -414 vlineto
            60 30 359 232 0 165 0 113 -63 74 -140 0 rrcurveto
            return
          </CharString>
          <CharString index="159">
            -72 59 -42 55 55 61 38 76 vhcurveto
            -14 hlineto
            0 -58 -43 -41 -59 -1 -54 -1 -46 44 0 57 rrcurveto
            return
          </CharString>
          <CharString index="160">
            -149 -66 78 -131 115 16 rrcurveto
            14 vlineto
            -131 -3 -12 125 111 45 rrcurveto
            return
          </CharString>
          <CharString index="161">
            118 -130 22 0 132 130 -18 0 -125 -115 -113 115 rlineto
            return
          </CharString>
          <CharString index="162">
            -78 18 -69 155 vhcurveto
            112 hlineto
            100 38 -38 -85 hvcurveto
            -68 vlineto
            -117 -80 -23 -90 vhcurveto
            -93 0 -98 2 -44 4 rrcurveto
            -15 vlineto
            46 -8 140 -7 49 0 rrcurveto
            99 95 22 142 hvcurveto
            68 vlineto
            82 -29 65 -133 vhcurveto
            -114 hlineto
            -92 -55 19 104 hvcurveto
            66 vlineto
            0 121 63.9921875 36.7841796875 105.0078125 -3.7841796875 0 0 158 -4 64 -4 rrcurveto
            13 vlineto
            -49 8 -120 11 -53 0 rrcurveto
            -112 -81 -33 -145 hvcurveto
            return
          </CharString>
          <CharString index="163">
            389 hlineto
            104 49 -70 -94 hvcurveto
            -512 vlineto
            -102 -50 -51 -103 vhcurveto
            -319 hlineto
            -68 -76 35 118 hvcurveto
            348 vlineto
            103 58 37 86 vhcurveto
            197 hlineto
            80 52 -36 -82 hvcurveto
            1 -1 -1 -75 0 0 rrcurveto
            -1 -136 1 -87 -83 -46 -53 -80 vhcurveto
            -53 vlineto
            -1 -68 55 -51 74 2 91 0 132 73 2 0 rrcurveto
            return
          </CharString>
          <CharString index="164">
            -158 31 -120 153 vhcurveto
            45 0 97 13 64 26 rrcurveto
            -133 vlineto
            0 -108 -79 -41 -55 4 rrcurveto
            -228 15 0 -14 228 -24 rlineto
            68 -7 90 51 0 124 rrcurveto
            628 vlineto
            -47 4 -77 9 -106 0 rrcurveto
            -125 -59 -101 -168 hvcurveto
            return
          </CharString>
          <CharString index="165">
            149 47 96 113 vhcurveto
            206 -464 hlineto
            -83 -21 -49 -14 -74 0 rrcurveto
            -116 -44 78 176 hvcurveto
            return
          </CharString>
          <CharString index="166">
            -120 81 -42 91 vhcurveto
            134 hlineto
            99 68 43 119 hvcurveto
            408 vlineto
            91 -45 71 -122 vhcurveto
            -134 hlineto
            -95 -77 -54 -108 hvcurveto
            return
          </CharString>
          <CharString index="167">
            286 hlineto
            82 67 -42 -99 hvcurveto
            -69 vlineto
            0 -85 -76 -35 -78 -1 rrcurveto
            return
          </CharString>
          <CharString index="168">
            213 -7 rlineto
            57 -2 95 -30 0 -100 rrcurveto
            -59 vlineto
            -117 -74 -26 -79 vhcurveto
            return
          </CharString>
          <CharString index="169">
            39 -8 122 -3 114 0 rrcurveto
            122 56 59 109 hvcurveto
            59 vlineto
            0 104 -88 36 -32 5 30 2 90 28 0 105 rrcurveto
            69 vlineto
            0 92 -52 71 -119 2 rrcurveto
            return
          </CharString>
          <CharString index="170">
            -7.2001953125 4.5 -4.5 6.30078125 vhcurveto
            return
          </CharString>
          <CharString index="171">
            5.3994140625 -42.2998046875 hlineto
            -5.400390625 -0.8994140625 -8.099609375 -13.5 vhcurveto
            -5.400390625 vlineto
            0 28.7998046875 -8.099609375 36 hvcurveto
            return
          </CharString>
          <CharString index="172">
            100.799804688 vlineto
            7.2001953125 -2.7001953125 4.5 -8.099609375 vhcurveto
            -9 hlineto
            -7.2001953125 -3.6005859375 -3.6005859375 -8.099609375 hvcurveto
            return
          </CharString>
          <CharString index="173">
            -7.19998168945 2.69999694824 -4.5 8.09899902344 vhcurveto
            9 hlineto
            7.20101928711 3.59999084473 3.59999084473 8.10000610352 hvcurveto
            55.8000030518 vlineto
            -1.52587890625e-05 7.19999694824 -4.5 4.5 -6.30099487305 0 rrcurveto
            return
          </CharString>
          <CharString index="174">
            -5.3990020752 42.3000030518 hlineto
            5.39999389648 0.899002075195 8.10000610352 13.5 vhcurveto
            5.39999389648 vlineto
            1.52587890625e-05 -28.7989959717 8.10000610352 -36 hvcurveto
            return
          </CharString>
          <CharString index="175">
            -85 29 -40 98 vhcurveto
            46 hlineto
            101 28 40 85 hvcurveto
            63 vlineto
            85 -29 40 -98 vhcurveto
            -46 hlineto
            -101 -28 -40 -85 hvcurveto
            return
          </CharString>
          <CharString index="176">
            63 vlineto
            89 35 21 79 vhcurveto
            46 hlineto
            86 26 -32 -78 hvcurveto
            -63 vlineto
            -89 -37 -21 -77 vhcurveto
            -46 hlineto
            -78 -34 24 86 hvcurveto
            return
          </CharString>
          <CharString index="177">
            26 0 77 182 290 0 72 -182 26 0 -224 570 -24 0 rlineto
            return
          </CharString>
          <CharString index="178">
            141 335 130 -335 rlineto
            return
          </CharString>
          <CharString index="179">
            234 hlineto
            126 31 70 85 hvcurveto
            0 98 -90 40 -15 -1 30 8 72 23 0 100 rrcurveto
            67 -30 81 -124 vhcurveto
            -234 hlineto
            return
          </CharString>
          <CharString index="180">
            256 210 vlineto
            65 68 -48 -78 -118 -76 -12 -57 hvcurveto
            return
          </CharString>
          <CharString index="181">
            242 210 vlineto
            62 68 -24 -100 -84 -66 -34 -64 hvcurveto
            return
          </CharString>
          <CharString index="182">
            -138 23 -161 181 vhcurveto
            77 0 81 9 58 11 rrcurveto
            14 vlineto
            0 0 -143 -8 -73 -2 rrcurveto
            -128 -52 87 188 178 57 81 123 hvcurveto
            65 0 136 -7 15 -3 rrcurveto
            14 vlineto
            -51 12 -122 8 -43 0 rrcurveto
            -170 -34 -138 -145 hvcurveto
            return
          </CharString>
          <CharString index="183">
            227 hlineto
            60 159 1 282 hvcurveto
            0 123 -43 164 -176 2 rrcurveto
            -227 hlineto
            return
          </CharString>
          <CharString index="184">
            524 203 vlineto
            93 102 -66 -199 -148 -41 -111 -154 hvcurveto
            return
          </CharString>
          <CharString index="185">
            -52 34 -33 50 vhcurveto
            return
          </CharString>
          <CharString index="186">
            287 11 0 13 rlineto
            return
          </CharString>
          <CharString index="187">
            -287 hlineto
            -12 -48 4 59 hvcurveto
            0 187 316 6 0 14 -316 6 0 184 rlineto
            34 13 32 69 vhcurveto
            return
          </CharString>
          <CharString index="188">
            -267 9 rlineto
            -64 -40 -28 -62 hvcurveto
            return
          </CharString>
          <CharString index="189">
            24 272 hlineto
            316 6 0 14 -316 6 0 184 rlineto
            34 13 32 69 vhcurveto
            return
          </CharString>
          <CharString index="190">
            0 -50 6 -244 207 1 60 0 88 27 53 34 rrcurveto
            return
          </CharString>
          <CharString index="191">
            10 -54 14 0 0 308 rlineto
            -24 2 -22 1 -21 0 rrcurveto
            return
          </CharString>
          <CharString index="192">
            -81 0 -1 -3 -73 -7 rrcurveto
            -14 198 -209 vlineto
            -22 -17 -98 -44 -81 0 rrcurveto
            -117 -72 94 177 199 54 68 135 hvcurveto
            return
          </CharString>
          <CharString index="193">
            86 0 63 -9 62 -6 rrcurveto
            14 vlineto
            -67 16 -101 9 -43 0 rrcurveto
            -172 -41 -109 -184 hvcurveto
            return
          </CharString>
          <CharString index="194">
            24 264 381 -264 24 571 -24 -283 -381 283 -24 hlineto
            return
          </CharString>
          <CharString index="195">
            24 570 -24 hlineto
            return
          </CharString>
          <CharString index="196">
            46 -23 75 -13 43 32 45 33 8 73 0 47 rrcurveto
            401 -24 -401 vlineto
            1 -174 -103 17 -87 22 rrcurveto
            return
          </CharString>
          <CharString index="197">
            24 268 133 hlineto
            203 -268 28 0 -209 281 209 290 -28 0 -203 -279 -133 0 0 279 -24 0 rlineto
            return
          </CharString>
          <CharString index="198">
            -55 33 -31 53 vhcurveto
            286 24 -280 hlineto
            -39 -29 17 50 hvcurveto
            479 -24 vlineto
            return
          </CharString>
          <CharString index="199">
            23 0 65 519 210 -519 14 0 208 509 59 -509 24 0 -67 571 -16 0 -215 -526 -213 526 -20 0 rlineto
            return
          </CharString>
          <CharString index="200">
            24 528 hlineto
            399 -528 20 0 0 571 -23 0 0 -527 -399 527 -21 0 rlineto
            return
          </CharString>
          <CharString index="201">
            -249 73 -36 161 168 67 47 245 256 -70 32 -165 -166 -68 -51 -244 vhcurveto
            return
          </CharString>
          <CharString index="202">
            1 221 55 45 154 0 174 0 31 -44 6 -220 5 -201 -48 -67 -168 0 -160 0 -51 44 1 222 rrcurveto
            return
          </CharString>
          <CharString index="203">
            220 -9 rlineto
            64 1 95 -7 0 175 rrcurveto
            118 -79 34 -73 vhcurveto
            -251 hlineto
            return
          </CharString>
          <CharString index="204">
            273 227 vlineto
            77 51 -40 -90 hvcurveto
            return
          </CharString>
          <CharString index="205">
            222 57 44 153 166 45 -41 -223 -201 -43 -67 -168 -160 -50 44 222 vhcurveto
            return
          </CharString>
          <CharString index="206">
            1 -2 184 -6 30 -2 rrcurveto
            138 -254 29 0 -140 255 rlineto
            70 69 52 101 134 -93 29 -60 hvcurveto
            -252 hlineto
            return
          </CharString>
          <CharString index="207">
            269 228 vlineto
            56 73 -33 -107 -104 -84 -25 -35 hvcurveto
            return
          </CharString>
          <CharString index="208">
            -96 44 -10 94 vhcurveto
            130 hlineto
            72 34 -20 -60 hvcurveto
            -70 vlineto
            -50 -24 -54 -82 -96 -150 6 0 vhcurveto
            -14 vlineto
            37 -12 160 -4 49 0 rrcurveto
            55 75 19 109 hvcurveto
            70 vlineto
            75 -43 29 -87 vhcurveto
            -130 hlineto
            -70 -44 -1 83 hvcurveto
            67 vlineto
            76 36 33 78 98 135 -6 0 vhcurveto
            14 vlineto
            -67 9 -114 6 -52 0 rrcurveto
            -103 -35 -50 -82 hvcurveto
            return
          </CharString>
          <CharString index="209">
            216 -546 24 546 216 24 -456 hlineto
            return
          </CharString>
          <CharString index="210">
            215 -570 22 0 133 363 138 -363 22 0 209 570 -26 0 -195 -533 -134 363 62 170 -26 0 -195 -533 -198 533 rlineto
            return
          </CharString>
          <CharString index="211">
            227 -380 0 -191 24 0 0 191 225 380 -29 0 -208 -354 -210 354 rlineto
            return
          </CharString>
          <CharString index="212">
            416 24 -384 hlineto
            384 522 0 24 -416 0 0 -24 387 0 -387 -522 rlineto
            return
          </CharString>
          <CharString index="213">
            65 -283 217 hlineto
            60 159 1 282 hvcurveto
            0 123 -43 164 -176 2 rrcurveto
            -217 -275 -65 hlineto
            return
          </CharString>
          <CharString index="214">
            259 125 14 -125 251 193 vlineto
            93 102 -66 -199 -148 -41 -111 -154 hvcurveto
            return
          </CharString>
          <CharString index="215">
            -1 -239 101.1015625 -26 128.8984375 0 rrcurveto
            119.1015625 104.8984375 32 233 hvcurveto
            310 -25 -310 vlineto
            -183 -64.7919921875 -58 -134.208007812 -142.94921875 -61.05078125 51 190 vhcurveto
            310 -25 vlineto
            return
          </CharString>
          <CharString index="216">
            -9 4 -7 11 vhcurveto
            11 hlineto
            10 5 5 11 hvcurveto
            63 vlineto
            10 -7 6 -8 vhcurveto
            return
          </CharString>
          <CharString index="217">
            -7 37 hlineto
            0 7 1 13 18 -1 rrcurveto
            7 vlineto
            0 -38 11 -49 hvcurveto
            return
          </CharString>
          <CharString index="218">
            -1.52587890625e-05 -10 7 -5 8 0 rrcurveto
            return
          </CharString>
          <CharString index="219">
            6 -38 hlineto
            -1.52587890625e-05 -7 0 -12 -18 1 rrcurveto
            -7 vlineto
            -1.52587890625e-05 38 -12 49 hvcurveto
            return
          </CharString>
          <CharString index="220">
            105 vlineto
            -1.52587890625e-05 9 -4 7 -11 0 rrcurveto
            -11 hlineto
            -10.0000152588 -5 -5 -11 hvcurveto
            return
          </CharString>
          <CharString index="221">
            24 650 hlineto
            0 75 90 10 22 -63 rrcurveto
            217 -621 rlineto
            32 -93 130 26 0 95 rrcurveto
            653 -24 -655 vlineto
            -2 -65 -89 -22 -24 69 rrcurveto
            -217 621 rlineto
            -31 89 -128 -15 0 -102 rrcurveto
            return
          </CharString>
          <CharString index="222">
            23 0 42 662 rlineto
            4 59 72 18 20 -67 rrcurveto
            121 -409 rlineto
            20 -66 76 5 16 61 rrcurveto
            109 410 rlineto
            17 62 74 -9 5 -64 rrcurveto
            50 -662 24 0 -49 654 rlineto
            -8 103 -110 10 -26 -86 rrcurveto
            -109 -411 rlineto
            -10 -38 -42 -5 -13 43 rrcurveto
            -122 410 rlineto
            -27 90 -117 -16 0 -102 rrcurveto
            return
          </CharString>
          <CharString index="223">
            24 474 hlineto
            89 33 56 9 71 0 rrcurveto
            86 54 -67 -79 hvcurveto
            -370 24 370 vlineto
            0 39 -12 38 -22 30 84 30 70 9 69 0 rrcurveto
            86 54 -67 -79 hvcurveto
            -370 24 370 vlineto
            88 -58 82 -106 vhcurveto
            -101 0 -40 -12 -93 -37 -28 30 -40 19 -51 0 -108 0 -21 -13 -111 -44 rrcurveto
            return
          </CharString>
          <CharString index="224">
            24 474 hlineto
            89 33 56 9 71 0 rrcurveto
            86 54 -67 -79 hvcurveto
            -370 24 370 vlineto
            88 -58 82 -106 vhcurveto
            -108 0 -21 -13 -111 -44 rrcurveto
            return
          </CharString>
          <CharString index="225">
            24 474 hlineto
            99 37 93 14 102 -11 rrcurveto
            24 vlineto
            -163 14 -80 -34 -75 -35 rrcurveto
            return
          </CharString>
          <CharString index="226">
            -113 75 -18 61 vhcurveto
            114 hlineto
            106 49 52 104 hvcurveto
            116 vlineto
            0 197 -35 67 -140 1 -99 1 -53 -9 -68 -12 rrcurveto
            -14 vlineto
            74 6 72 4 72 0 rrcurveto
            68 84 -6 -190 hvcurveto
            return
          </CharString>
          <CharString index="227">
            -244 hlineto
            -96 -40 -45 -77 hvcurveto
            return
          </CharString>
          <CharString index="228">
            64 vlineto
            0 76 43 19 69 3 rrcurveto
            return
          </CharString>
          <CharString index="229">
            244 10 0 -147 rlineto
            -77 -28 -55 -102 vhcurveto
            -114 hlineto
            -75 -37 33 74 hvcurveto
            return
          </CharString>
          <CharString index="230">
            -88 58 -82 106 vhcurveto
            108 0 21 13 111 44 rrcurveto
            483 -24 -474 vlineto
            -89 -33 -56 -9 -71 0 rrcurveto
            -86 -54 67 79 hvcurveto
            370 -24 vlineto
            return
          </CharString>
          <CharString index="231">
            49 -8 76 -4 106 0 rrcurveto
            125 59 101 168 158 -31 120 -153 hvcurveto
            -45 0 -98 -13 -64 -26 rrcurveto
            286 -24 vlineto
            return
          </CharString>
          <CharString index="232">
            468 vlineto
            83 21 50 10 74 0 rrcurveto
            124 36 -93 -161 -137 -40 -108 -120 hvcurveto
            return
          </CharString>
          <CharString index="233">
            -168 59 -101 125 vhcurveto
            106 0 75 4 49 8 rrcurveto
            782 -24 -286 vlineto
            -64 26 -97 13 -45 0 rrcurveto
            -153 -31 -120 -158 hvcurveto
            return
          </CharString>
          <CharString index="234">
            161 36 93 124 vhcurveto
            74 0 49 -10 83 -21 rrcurveto
            -468 -206 vlineto
            -120 -40 108 137 hvcurveto
            return
          </CharString>
          <CharString index="235">
            24 482 177 24 -177 124 hlineto
            69 14 65 92 vhcurveto
            return
          </CharString>
          <CharString index="236">
            -49 15 -42 -2 -49 0 rrcurveto
            -120 -4 -102 -54 hvcurveto
            return
          </CharString>
          <CharString index="237">
            24 305 hlineto
            64 -26 98 -13 45 0 rrcurveto
            153 31 120 158 168 -59 101 -125 hvcurveto
            -106 0 -76 -4 -49 -8 rrcurveto
            return
          </CharString>
          <CharString index="238">
            468 207 vlineto
            120 40 -108 -137 -161 -36 -93 -124 hvcurveto
            -74 0 -50 10 -83 21 rrcurveto
            return
          </CharString>
          <CharString index="239">
            -141 55 -48 80 vhcurveto
            73 13 hlineto
            -7 -67 11 0 hvcurveto
            -75 11 -35 46 0 108 rrcurveto
            318 204 24 -204 148 -24 vlineto
            return
          </CharString>
        <CharString name=".notdef">
          222 0 13 505 13 hstem
          120 14 530 14 vstem
          664 506 rmoveto
          0 -481 -252 241 rlineto
          -265 -253 rmoveto
          254 243 253 -243 rlineto
          -520 9 rmoveto
          0 485 256 -241 rlineto
          265 252 rmoveto
          -254 -242 -257 242 rlineto
          -24 -518 rmoveto
          558 531 -558 hlineto
          endchar
        </CharString>
        <CharString name="A">
          83 21 -21 253 24 455 -20 hstem
          61 hmoveto
          -75 callsubr
          -145 -455 rmoveto
          -74 callsubr
          endchar
        </CharString>
        <CharString name="AE">
          357 -3 24 -14 14 231 24 75 24 333 24 -24 14 hstemhm
          488 24 hintmask 10110010
          40 hmoveto
          30 0 160 252 258 0 0 -131 rlineto
          0 -113 72 -13 64 2 rrcurveto
          hintmask 01110010
          258 10 0 14 rlineto
          hintmask 10111010
          -258 hlineto
          -55 -57 10 92 hvcurveto
          0 228 330 5 0 14 -330 5 0 217 rlineto
          75 -14 41 116 vhcurveto
          hintmask 00110110
          268 14 hlineto
          hintmask 10111010
          -268 10 rlineto
          -110 5 -25 -48 -63 -99 rrcurveto
          -170 -314 rmoveto
          242 381 0 -381 rlineto
          endchar
        </CharString>
        <CharString name="Aacute">
          83 0 21 232 24 435 20 65 133 hstem
          345 147 vstem
          345 797 rmoveto
          20 callsubr
          -405 -930 rmoveto
          -75 callsubr
          -145 -455 rmoveto
          -74 callsubr
          endchar
        </CharString>
        <CharString name="Abreve">
          83 0 21 232 24 435 20 65 14 hstem
          245 14 202 14 vstem
          245 911 rmoveto
          52 callsubr
          -198 -911 rmoveto
          -75 callsubr
          -145 -455 rmoveto
          -74 callsubr
          endchar
        </CharString>
        <CharString name="Acircumflex">
          83 0 21 232 24 435 20 65 130 hstem
          216 272 vstem
          216 797 rmoveto
          -42 callsubr
          0 vmoveto
          20 hmoveto
          -307 -927 rmoveto
          -75 callsubr
          -145 -455 rmoveto
          -74 callsubr
          endchar
        </CharString>
        <CharString name="Adieresis">
          83 0 21 232 24 435 20 65 35 hstem
          207.5 34 220 35 vstem
          207.5 815 rmoveto
          7 callsubr
          254 hmoveto
          8 callsubr
          -400.5 -815 rmoveto
          -75 callsubr
          -145 -455 rmoveto
          -74 callsubr
          endchar
        </CharString>
        <CharString name="Agrave">
          83 0 21 232 24 435 20 65 133 hstem
          212 147 vstem
          212 930 rmoveto
          -41 callsubr
          -177 -930 rmoveto
          -75 callsubr
          -145 -455 rmoveto
          -74 callsubr
          endchar
        </CharString>
        <CharString name="Amacron">
          83 0 21 232 24 435 20 65 15 hstem
          226 252 vstem
          226 797 rmoveto
          12 callsubr
          -165 -812 rmoveto
          -75 callsubr
          -145 -455 rmoveto
          -74 callsubr
          endchar
        </CharString>
        <CharString name="Aogonek">
          83 -180.92199707 14 147.000091553 20 -0.0780944824219 21 232 24 435 20 hstemhm
          hintmask 00000000
          613 0.078125 rmoveto
          53 callsubr
          hintmask 00111000
          -564 -0.078125 rmoveto
          -75 callsubr
          -145 -455 rmoveto
          -74 callsubr
          endchar
        </CharString>
        <CharString name="Aring">
          83 0 21 232 24 435 20 -1.83299255371 15 175 15 hstemhm
          251 14 174 14 hintmask 00011110
          251 832.166992188 rmoveto
          13 callsubr
          14 hmoveto
          14 callsubr
          hintmask 11100000
          -204 -832.166992188 rmoveto
          -75 callsubr
          -145 -455 rmoveto
          -74 callsubr
          endchar
        </CharString>
        <CharString name="Atilde">
          83 0 21 232 24 435 20 65 16 57 16 hstem
          183 828 rmoveto
          6 callsubr
          -122 -828 rmoveto
          -75 callsubr
          -145 -455 rmoveto
          -74 callsubr
          endchar
        </CharString>
        <CharString name="B">
          23 0 25 346 24 313 24 hstem
          108 24 398 24 vstem
          108 hmoveto
          -73 callsubr
          24 -707 rmoveto
          -72 callsubr
          -229 370 rmoveto
          -71 callsubr
          endchar
        </CharString>
        <CharString name="C">
          -6 -6 24 698 24 hstem
          74 24 vstem
          74 368 rmoveto
          -70 callsubr
          endchar
        </CharString>
        <CharString name="Cacute">
          -6 -6 24 698 24 60 133 hstem
          74 24 219 147 vstem
          317 800 rmoveto
          20 callsubr
          -364 -565 rmoveto
          -70 callsubr
          endchar
        </CharString>
        <CharString name="Ccaron">
          -6 -6 24 698 24 60 130 hstem
          74 24 105 272 vstem
          203 930 rmoveto
          54 callsubr
          102 -130 rmoveto
          22 hmoveto
          -269 -432 rmoveto
          -70 callsubr
          endchar
        </CharString>
        <CharString name="Ccedilla">
          -6 -172 7 159 24 698 24 hstem
          74 24 229 17 vstem
          213 -165 rmoveto
          21 callsubr
          -171 528 rmoveto
          -70 callsubr
          endchar
        </CharString>
        <CharString name="Ccircumflex">
          -6 -6 24 698 24 60 130 hstem
          74 24 100 272 vstem
          198 800 rmoveto
          -42 callsubr
          0 vmoveto
          20 hmoveto
          -276 -562 rmoveto
          -70 callsubr
          endchar
        </CharString>
        <CharString name="Cdotaccent">
          -6 -6 24 698 24 60 86 hstem
          74 24 231.5 35 vstem
          329.5 812 rmoveto
          -100 callsubr
          -255.5 -506 rmoveto
          -70 callsubr
          endchar
        </CharString>
        <CharString name="D">
          95 0 24 684 24 hstem
          108 24 464 24 vstem
          108 hmoveto
          -69 callsubr
          24 -708 rmoveto
          -68 callsubr
          endchar
        </CharString>
        <CharString name="Dcaron">
          95 0 24 684 24 60 130 hstem
          108 24 89 272 103 24 vstem
          221 922 rmoveto
          54 callsubr
          102 -130 rmoveto
          22 hmoveto
          -253 -792 rmoveto
          -69 callsubr
          24 -708 rmoveto
          -68 callsubr
          endchar
        </CharString>
        <CharString name="Dcroat">
          95 0 24 342 14 328 24 hstem
          108 24 454 24 vstem
          43 366 rmoveto
          31 callsubr
          89 -356 rmoveto
          32 callsubr
          endchar
        </CharString>
        <CharString name="E">
          6 -3 24 -14 14 330 24 333 24 -24 14 hstemhm
          108 24 hintmask 10100100
          108 123 rmoveto
          0 -113 70.9730072021 -15.30078125 66.0269927979 2.30078125 rrcurveto
          hintmask 01100100
          -67 callsubr
          hintmask 10110100
          -66 callsubr
          hintmask 00101100
          297 14 hlineto
          hintmask 10110100
          -65 callsubr
          endchar
        </CharString>
        <CharString name="Eacute">
          6 -3 24 -14 14 330 24 333 14 -14 24 60 133 hstemhm
          108 24 200 147 hintmask 00000101
          332 792 rmoveto
          20 callsubr
          hintmask 10100010
          -345 -802 rmoveto
          29 callsubr
          hintmask 01100010
          -67 callsubr
          hintmask 10101010
          -66 callsubr
          hintmask 00110010
          297 14 hlineto
          hintmask 10101010
          30 callsubr
          endchar
        </CharString>
        <CharString name="Ecaron">
          6 -3 24 -14 14 330 24 333 14 -14 24 60 130 hstemhm
          108 24 73 272 hintmask 00000101
          205 922 rmoveto
          54 callsubr
          102 -130 rmoveto
          22 hmoveto
          hintmask 10100010
          -237 -669 rmoveto
          29 callsubr
          hintmask 01100010
          -67 callsubr
          hintmask 10101010
          -66 callsubr
          hintmask 00110010
          297 14 hlineto
          hintmask 10101010
          30 callsubr
          endchar
        </CharString>
        <CharString name="Ecircumflex">
          6 -3 24 -14 14 330 24 333 14 -14 24 65 130 hstemhm
          108 24 68 272 hintmask 00000101
          200 797 rmoveto
          -42 callsubr
          0 vmoveto
          20 hmoveto
          hintmask 10100010
          -244 -804 rmoveto
          29 callsubr
          hintmask 01100010
          -67 callsubr
          hintmask 10101010
          -66 callsubr
          hintmask 00110010
          297 14 hlineto
          hintmask 10101010
          30 callsubr
          endchar
        </CharString>
        <CharString name="Edieresis">
          6 -3 24 -14 14 330 24 333 14 -14 24 93 35 hstemhm
          108 24 47 34 220 35 hintmask 0000010110000000
          179 843 rmoveto
          7 callsubr
          254 hmoveto
          8 callsubr
          hintmask 1010001000000000
          -325 -720 rmoveto
          29 callsubr
          hintmask 0110001000000000
          -67 callsubr
          hintmask 1010101000000000
          -66 callsubr
          hintmask 0011001000000000
          297 14 hlineto
          hintmask 1010101000000000
          30 callsubr
          endchar
        </CharString>
        <CharString name="Edotaccent">
          6 -3 24 -14 14 330 24 333 14 -14 24 65 86 hstemhm
          108 24 184.68699646 35 hintmask 00000101
          316.686523438 809 rmoveto
          -100 callsubr
          hintmask 10100010
          -208.686523438 -748 rmoveto
          29 callsubr
          hintmask 01100010
          -67 callsubr
          hintmask 10101010
          -66 callsubr
          hintmask 00110010
          297 14 hlineto
          hintmask 10101010
          30 callsubr
          endchar
        </CharString>
        <CharString name="Egrave">
          6 -3 24 -14 14 330 24 333 14 -14 24 60 133 hstemhm
          108 24 68 147 hintmask 00000101
          200 925 rmoveto
          -41 callsubr
          hintmask 10100010
          -118 -802 rmoveto
          29 callsubr
          hintmask 01100010
          -67 callsubr
          hintmask 10101010
          -66 callsubr
          hintmask 00110010
          297 14 hlineto
          hintmask 10101010
          30 callsubr
          endchar
        </CharString>
        <CharString name="Emacron">
          6 -3 24 -14 14 330 24 333 14 -14 24 63 15 hstemhm
          108 24 76 252 hintmask 00000101
          208 795 rmoveto
          12 callsubr
          hintmask 10100010
          -100 -687 rmoveto
          29 callsubr
          hintmask 01100010
          -67 callsubr
          hintmask 10101010
          -66 callsubr
          hintmask 00110010
          297 14 hlineto
          hintmask 10101010
          30 callsubr
          endchar
        </CharString>
        <CharString name="Eng">
          89 -257 18 260 -21 732 -20 hstem
          108 25 440 24 vstem
          108 hmoveto
          25 684 hlineto
          440 -684 0 -85 rlineto
          0 -151 -54 7 -86 -10 rrcurveto
          -18 vlineto
          118 46 21 152 hvcurveto
          0 84 0 732 -24 0 0 -684 -440 684 -25 0 rlineto
          endchar
        </CharString>
        <CharString name="Eogonek">
          6 -173.128982544 14 147 20 -10.8710174561 24 -14 14 330 24 333 14 -14 24 hstemhm
          108 24 hintmask 11000000
          519 7.87109375 rmoveto
          53 callsubr
          hintmask 00101001
          -423 115.12890625 rmoveto
          29 callsubr
          hintmask 00011001
          -67 callsubr
          hintmask 00101011
          -66 callsubr
          hintmask 00001101
          297 14 hlineto
          hintmask 00101011
          30 callsubr
          endchar
        </CharString>
        <CharString name="Eth">
          95 0 24 342 14 328 24 hstem
          108 24 454 24 vstem
          43 366 rmoveto
          31 callsubr
          89 -356 rmoveto
          32 callsubr
          endchar
        </CharString>
        <CharString name="Euro">
          19 -6 24 250 21 141 20 266 24 hstem
          115 24 vstem
          27 272 rmoveto
          88 -4 rlineto
          -226 157 -48 77 vhcurveto
          85 0 53 2 81 19 rrcurveto
          15 vlineto
          0 0 -110 -15 -109 3 -135 3 -78 112 3 135 -3 2 287 1 0 0 rrcurveto
          0 14 -284 4 0 141 284 3 0 14 -284 3 rlineto
          -1 137 24 128 187 1 83 1 132 -11 0 0 rrcurveto
          14 vlineto
          -70 13 -93 7 -52 0 rrcurveto
          -244 10 -218 -72 hvcurveto
          -88 -4 0 -13 88 -3 0 -141 -88 -3 rlineto
          endchar
        </CharString>
        <CharString name="Euro.smcp">
          -64 -5 24 191 23 -17 10 107 9 211 24 hstemhm
          90 24 hintmask 10111100
          22 216 rmoveto
          hintmask 11011100
          68 -6 rlineto
          -150 88 -65 105 vhcurveto
          65 0 56 10 63 18 rrcurveto
          12 vlineto
          0 -104 -16 -80 -104 -65 75 116 vhcurveto
          hintmask 10111100
          -2 2 188 4 0 0 rrcurveto
          0 12 rlineto
          hintmask 11011100
          -186 5 0 94 186 5 0 11 -186 6 rlineto
          97 25 107 144 64 117 -11 0 vhcurveto
          12 vlineto
          -55 10 -85 13 -41 0 rrcurveto
          -190 -3 -172 -56 hvcurveto
          -68 -7 0 -9 68 -6 0 -94 rlineto
          hintmask 10111100
          -68 -7 rlineto
          endchar
        </CharString>
        <CharString name="F">
          6 21 -21 351 24 333 24 -24 14 hstemhm
          108 24 hintmask 11101000
          108 hmoveto
          -64 callsubr
          hintmask 11011000
          297 14 hlineto
          hintmask 11101000
          -65 callsubr
          endchar
        </CharString>
        <CharString name="G">
          44 -5 24 345 25 -25 14 338 24 hstemhm
          74 24 436 24 -14 14 hintmask 11011010
          74 370 rmoveto
          -63 callsubr
          hintmask 10111100
          -62 callsubr
          endchar
        </CharString>
        <CharString name="Gbreve">
          44 -5 24 345 14 -14 25 327 24 60 14 hstemhm
          74 24 129 14 202 14 77 24 -14 14 hintmask 0000101100000000
          227 914 rmoveto
          52 callsubr
          hintmask 1011010001000000
          -167 -544 rmoveto
          -63 callsubr
          hintmask 1101010010000000
          -62 callsubr
          endchar
        </CharString>
        <CharString name="Gcircumflex">
          44 -5 24 345 14 -14 25 327 24 60 130 hstemhm
          74 24 93 272 71 24 -14 14 hintmask 0000101000000000
          191 800 rmoveto
          -42 callsubr
          0 vmoveto
          20 hmoveto
          hintmask 1011010010000000
          -269 -560 rmoveto
          -63 callsubr
          hintmask 1101010100000000
          -62 callsubr
          endchar
        </CharString>
        <CharString name="Gcommaaccent">
          44 -201.199996948 5.39999389648 190.800003052 24 345 14 -14 25 327 24 hstemhm
          74 24 217.100006104 30.6000061035 -14.4000091553 14.3999938965 188.300003052 24 -14 14 hintmask 0000000000000000
          hintmask 1000001000000000
          315.099609375 -128.299804688 rmoveto
          63 callsubr
          hintmask 1000000100000000
          64 callsubr
          hintmask 1000001000000000
          65 callsubr
          hintmask 0101110001000000
          -241.099609375 442.5 rmoveto
          -63 callsubr
          hintmask 0110110010000000
          -62 callsubr
          endchar
        </CharString>
        <CharString name="Gdotaccent">
          44 -5 24 345 14 -14 25 327 24 60 86 hstemhm
          74 24 226.5 35 174.5 24 -14 14 hintmask 0000101000000000
          324.5 812 rmoveto
          -100 callsubr
          hintmask 1011010010000000
          -250.5 -504 rmoveto
          -63 callsubr
          hintmask 1101010100000000
          -62 callsubr
          endchar
        </CharString>
        <CharString name="H">
          88 21 -21 342 24 366 -20 hstem
          108 24 440 24 vstem
          108 hmoveto
          -61 callsubr
          endchar
        </CharString>
        <CharString name="Hbar">
          88 21 -21 342 24 171 15 180 -20 hstem
          108 24 440 24 vstem
          43 537 rmoveto
          65 -537 24 342 440 -342 24 537 65 15 -65 180 -24 -180 -440 hlineto
          180 -24 -180 -65 vlineto
          89 -186 rmoveto
          171 440 -171 vlineto
          endchar
        </CharString>
        <CharString name="Hcircumflex">
          88 0 21 321 24 346 20 65 130 hstem
          108 24 84 272 84 24 vstem
          cntrmask 00001110
          216 797 rmoveto
          -42 callsubr
          0 vmoveto
          20 hmoveto
          -260 -927 rmoveto
          -61 callsubr
          endchar
        </CharString>
        <CharString name="I">
          -376 21 -21 732 -20 hstem
          108 24 vstem
          108 hmoveto
          -60 callsubr
          endchar
        </CharString>
        <CharString name="Iacute">
          -376 0 21 691 20 65 133 hstemhm
          108 24 -19 147 hintmask 00101000
          113 797 rmoveto
          20 callsubr
          hintmask 11010000
          -126 -930 rmoveto
          -60 callsubr
          endchar
        </CharString>
        <CharString name="Icircumflex">
          -376 0 21 691 20 65 130 hstemhm
          -16 272 -148 24 hintmask 00110000
          -16 797 rmoveto
          -42 callsubr
          0 vmoveto
          20 hmoveto
          hintmask 11001000
          -28 -927 rmoveto
          -60 callsubr
          endchar
        </CharString>
        <CharString name="Idieresis">
          -376 0 21 691 20 65 35 hstem
          -24.5 34 98.5 24 97.5 35 vstem
          -24.5 815 rmoveto
          7 callsubr
          254 hmoveto
          8 callsubr
          -121.5 -815 rmoveto
          -60 callsubr
          endchar
        </CharString>
        <CharString name="Idotaccent">
          -376 0 21 691 20 65 86 hstemhm
          102.5 35 -29.5 24 hintmask 00110000
          102.5 809 rmoveto
          -100 callsubr
          hintmask 11001000
          5.5 -871 rmoveto
          -60 callsubr
          endchar
        </CharString>
        <CharString name="Idotaccent.smcp">
          -381 21 -21 672 86 hstemhm
          107 35 -29 24 hintmask 11010000
          113 hmoveto
          88 callsubr
          hintmask 01100000
          -6 114 rmoveto
          -100 callsubr
          endchar
        </CharString>
        <CharString name="Igrave">
          -376 0 21 691 20 65 133 hstemhm
          -20 147 -19 24 hintmask 00110000
          -20 930 rmoveto
          -41 callsubr
          hintmask 11001000
          102 -930 rmoveto
          -60 callsubr
          endchar
        </CharString>
        <CharString name="Imacron">
          -376 0 21 691 20 65 15 hstemhm
          -6 252 -138 24 hintmask 00110000
          -6 797 rmoveto
          12 callsubr
          hintmask 11001000
          114 -812 rmoveto
          -60 callsubr
          endchar
        </CharString>
        <CharString name="Iogonek">
          -376 -180.92199707 14 147.000091553 20 -0.0780944824219 21 691 20 hstemhm
          108 24 hintmask 00000000
          115 0.078125 rmoveto
          53 callsubr
          hintmask 00111000
          -19 -0.078125 rmoveto
          -60 callsubr
          endchar
        </CharString>
        <CharString name="Itilde">
          -376 0 21 691 20 65 16 57 16 hstem
          108 24 vstem
          -49 828 rmoveto
          6 callsubr
          157 -828 rmoveto
          -60 callsubr
          endchar
        </CharString>
        <CharString name="J">
          -227 21 14 697 -20 hstem
          257 24 vstem
          47 21 rmoveto
          -59 callsubr
          endchar
        </CharString>
        <CharString name="Jcircumflex">
          -227 21 14 677 20 65 130 hstemhm
          133 272 -148 24 hintmask 00110000
          133 797 rmoveto
          -42 callsubr
          0 vmoveto
          20 hmoveto
          hintmask 11001000
          -238 -906 rmoveto
          -59 callsubr
          endchar
        </CharString>
        <CharString name="K">
          17 21 -21 355 24 353 -20 hstem
          108 25 vstem
          108 hmoveto
          -58 callsubr
          endchar
        </CharString>
        <CharString name="Kcommaaccent">
          17 -197.199996948 5.39999389648 191.800003052 21 334 24 333 20 hstemhm
          108 25 172.100006104 30.6000061035 -14.4000091553 14.3999938965 hintmask 00000000
          hintmask 10000100
          305.099609375 -124.299804688 rmoveto
          63 callsubr
          hintmask 10000010
          64 callsubr
          hintmask 10000100
          65 callsubr
          hintmask 01111000
          -197.099609375 68.5 rmoveto
          -58 callsubr
          endchar
        </CharString>
        <CharString name="L">
          -17 0 24 708 -20 hstem
          108 24 vstem
          108 126 rmoveto
          -57 callsubr
          endchar
        </CharString>
        <CharString name="Lacute">
          -17 0 24 688 20 60 133 hstemhm
          108 24 -15 147 hintmask 00101000
          117 792 rmoveto
          20 callsubr
          hintmask 11010000
          -130 -799 rmoveto
          -57 callsubr
          endchar
        </CharString>
        <CharString name="Lcaron">
          -17 0 24 708 -20 hstem
          108 24 85 25 vstem
          108 126 rmoveto
          -57 callsubr
          109 -27 rmoveto
          -107 callsubr
          endchar
        </CharString>
        <CharString name="Lcommaaccent">
          -17 -196.199996948 5.39999389648 190.800003052 24 688 20 hstemhm
          108 24 173.100006104 30.6000061035 -14.4000091553 14.3999938965 hintmask 00000000
          hintmask 10001000
          305.099609375 -123.299804688 rmoveto
          63 callsubr
          hintmask 10000100
          64 callsubr
          hintmask 10001000
          65 callsubr
          hintmask 01110000
          -197.099609375 193.5 rmoveto
          -57 callsubr
          endchar
        </CharString>
        <CharString name="Lslash">
          -17 0 24 708 -20 hstem
          108 24 vstem
          26 360 rmoveto
          82 36 0 -270 rlineto
          -113 70 -13 66 vhcurveto
          276 24 -276 hlineto
          -54 -58 10 92 hvcurveto
          0 281 120 52 0 20 -120 -52 0 305 -24 0 0 -315 -82 -36 rlineto
          endchar
        </CharString>
        <CharString name="M">
          221 21 -21 732 -20 hstem
          74 hmoveto
          -56 callsubr
          endchar
        </CharString>
        <CharString name="M.salt">
          233 21 -21 hstem
          74 hmoveto
          115 callsubr
          endchar
        </CharString>
        <CharString name="N">
          89 21 -21 732 -20 hstem
          108 24 441 24 vstem
          108 hmoveto
          -55 callsubr
          endchar
        </CharString>
        <CharString name="N.salt">
          115 21 -21 732 -20 hstem
          108 24 467 24 vstem
          108 hmoveto
          114 callsubr
          endchar
        </CharString>
        <CharString name="Nacute">
          89 0 21 691 20 65 133 hstem
          108 24 220.5 147 73.5 24 vstem
          352.5 797 rmoveto
          20 callsubr
          -365.5 -930 rmoveto
          -55 callsubr
          endchar
        </CharString>
        <CharString name="Nacute.salt">
          115 0 21 691 20 65 133 hstem
          108 24 238 147 82 24 vstem
          370 797 rmoveto
          20 callsubr
          -383 -930 rmoveto
          114 callsubr
          endchar
        </CharString>
        <CharString name="Ncaron">
          89 0 21 691 20 65 130 hstem
          108 24 84.5 272 84.5 24 vstem
          cntrmask 00011100
          216.5 927 rmoveto
          54 callsubr
          102 -130 rmoveto
          22 hmoveto
          -248.5 -797 rmoveto
          -55 callsubr
          endchar
        </CharString>
        <CharString name="Ncaron.salt">
          115 0 21 691 20 65 130 hstem
          108 24 124 272 71 24 vstem
          256 927 rmoveto
          54 callsubr
          102 -130 rmoveto
          22 hmoveto
          -288 -797 rmoveto
          114 callsubr
          endchar
        </CharString>
        <CharString name="Ncommaaccent">
          89 -201.199996948 5.39999389648 195.800003052 21 691 20 hstemhm
          108 24 206.100006104 30.6000061035 -14.4000091553 14.3999938965 204.300003052 24 hintmask 00000000
          hintmask 10001000
          338.099609375 -128.299804688 rmoveto
          63 callsubr
          hintmask 10000100
          64 callsubr
          hintmask 10001000
          65 callsubr
          hintmask 01110010
          -230.099609375 72.5 rmoveto
          -55 callsubr
          endchar
        </CharString>
        <CharString name="Ncommaaccent.salt">
          115 -202.199996948 5.39999389648 196.800003052 21 691 20 hstemhm
          108 24 202.100006104 30.6000061035 -14.4000091553 14.3999938965 234.300003052 24 hintmask 00000000
          hintmask 10001000
          334.099609375 -129.299804688 rmoveto
          63 callsubr
          hintmask 10000100
          64 callsubr
          hintmask 10001000
          65 callsubr
          hintmask 01110010
          -226.099609375 73.5 rmoveto
          114 callsubr
          endchar
        </CharString>
        <CharString name="Ntilde">
          89 0 21 691 20 65 16 57 16 hstem
          108 24 441 24 vstem
          183.5 828 rmoveto
          6 callsubr
          -75.5 -828 rmoveto
          -55 callsubr
          endchar
        </CharString>
        <CharString name="Ntilde.salt">
          115 0 21 691 20 75 16 57 16 hstem
          108 24 467 24 vstem
          207 838 rmoveto
          6 callsubr
          -99 -838 rmoveto
          114 callsubr
          endchar
        </CharString>
        <CharString name="O">
          99 -4 24 693 24 hstem
          88 24 488 24 vstem
          88 361 rmoveto
          -54 callsubr
          24 hmoveto
          -53 callsubr
          endchar
        </CharString>
        <CharString name="OE">
          478 -4 24 -13 14 330 24 333 14 -9 24 hstemhm
          88 24 487 25 hintmask 10101110
          112 361 rmoveto
          337 96 15 148 167 76 -39 -304 -290 -53 -60 -190 vhcurveto
          -179 -65 43 298 hvcurveto
          -24 hmoveto
          -333 88 -32 180 vhcurveto
          125 0 80 20 38 120 0 -121 62 -21 74 3 rrcurveto
          hintmask 01110110
          257 10 0 14 -257 0 rlineto
          -55 -57 10 92 hvcurveto
          0 1 153 75 hvcurveto
          328 5 0 14 -328 5 rlineto
          -1 74 0 153 0 0 rrcurveto
          75 40 31 62 vhcurveto
          267 14 hlineto
          -267 10 rlineto
          -69 3 -57 -39 0 -103 rrcurveto
          hintmask 10101110
          -39 128 -83 16 -121 0 rrcurveto
          -172 -96 -33 -343 hvcurveto
          endchar
        </CharString>
        <CharString name="Oacute">
          99 -4 24 693 24 60 133 hstem
          88 24 237 147 104 24 vstem
          349 797 rmoveto
          20 callsubr
          -382 -569 rmoveto
          -54 callsubr
          24 hmoveto
          -53 callsubr
          endchar
        </CharString>
        <CharString name="Ocircumflex">
          99 -4 24 693 24 60 130 hstem
          88 24 108 272 108 24 vstem
          cntrmask 00011100
          220 797 rmoveto
          -42 callsubr
          0 vmoveto
          20 hmoveto
          -284 -566 rmoveto
          -54 callsubr
          24 hmoveto
          -53 callsubr
          endchar
        </CharString>
        <CharString name="Odieresis">
          99 -4 24 693 24 60 35 hstem
          88 24 99.5 34 220 35 99.5 24 vstem
          211.5 815 rmoveto
          7 callsubr
          254 hmoveto
          8 callsubr
          -377.5 -454 rmoveto
          -54 callsubr
          24 hmoveto
          -53 callsubr
          endchar
        </CharString>
        <CharString name="Ograve">
          99 -4 24 693 24 60 133 hstem
          88 24 104 147 237 24 vstem
          216 930 rmoveto
          -41 callsubr
          -154 -569 rmoveto
          -54 callsubr
          24 hmoveto
          -53 callsubr
          endchar
        </CharString>
        <CharString name="Ohungarumlaut">
          99 -4 24 693 24 60 133 hstem
          88 24 167.5 286 34.5 24 vstem
          279.5 797 rmoveto
          20 callsubr
          18 -133 rmoveto
          20 callsubr
          -451.5 -569 rmoveto
          -54 callsubr
          24 hmoveto
          -53 callsubr
          endchar
        </CharString>
        <CharString name="Omacron">
          99 -4 24 693 24 60 15 hstem
          88 24 118 252 118 24 vstem
          cntrmask 00011100
          230 797 rmoveto
          12 callsubr
          -142 -451 rmoveto
          -54 callsubr
          24 hmoveto
          -53 callsubr
          endchar
        </CharString>
        <CharString name="Omega">
          217 0 12 703 24 hstem
          86 24 566 24 vstem
          86 388 rmoveto
          0 -114 20 -122 169 -128 rrcurveto
          -183 -12 0 -12 220 0 0 24 rlineto
          -148 116 -54 91 0 149 rrcurveto
          182 59 153 227 227 53 -157 -173 vhcurveto
          0 -132 -57 -135 -142 -94 rrcurveto
          -24 228 12 vlineto
          -188 11 rlineto
          131 92 52 151 0 117 rrcurveto
          182 -56 174 -248 -262 -48 -197 -154 vhcurveto
          endchar
        </CharString>
        <CharString name="Oslash">
          99 -4 24 693 24 hstem
          88 24 488 24 vstem
          88 361 rmoveto
          0 -161 21 -90 41 -51 rrcurveto
          -38 -59 18 0 31 47 rlineto
          44 -44 65 -7 86 0 180 0 88 42 0 323 0 163 -22 93 -41 53 rrcurveto
          40 62 -18 0 -32 -50 rlineto
          -45 47 -66 8 -84 0 -172 0 -96 -33 0 -343 rrcurveto
          24 hmoveto
          337 96 15 148 vhcurveto
          79 0 61 -7 41 -46 rrcurveto
          -372 -578 rlineto
          -37 49 -16 84 0 146 rrcurveto
          63 -291 rmoveto
          372 577 rlineto
          35 -50 18 -86 0 -150 0 -296 -73 -45 -171 0 -84 0 -58 10 -39 40 rrcurveto
          endchar
        </CharString>
        <CharString name="Otilde">
          99 -4 24 693 24 60 16 57 16 hstem
          88 24 488 24 vstem
          187 828 rmoveto
          6 callsubr
          -99 -467 rmoveto
          -54 callsubr
          24 hmoveto
          -53 callsubr
          endchar
        </CharString>
        <CharString name="P">
          8 21 -21 323 24 -14 14 360 25 hstemhm
          81 24 403 25 hintmask 10111100
          81 hmoveto
          24 333 hlineto
          hintmask 11011100
          -52 callsubr
          hintmask 10111100
          24 -385 rmoveto
          -51 callsubr
          hintmask 11011100
          2 -159 -74 -26 -79 0 rrcurveto
          endchar
        </CharString>
        <CharString name="Q">
          99 -4 24 693 24 hstem
          88 24 488 24 vstem
          88 361 rmoveto
          -54 callsubr
          24 hmoveto
          -53 callsubr
          236 -394 rmoveto
          -50 callsubr
          endchar
        </CharString>
        <CharString name="R">
          -2 21 -21 323 24 -14 14 360 25 hstemhm
          81 24 403 25 hintmask 10111100
          81 hmoveto
          24 333 hlineto
          hintmask 11011100
          -49 callsubr
          hintmask 10111100
          24 -385 rmoveto
          -48 callsubr
          endchar
        </CharString>
        <CharString name="Racute">
          -2 0 21 302 24 -14 14 360 25 60 133 hstemhm
          81 24 176 147 80 25 hintmask 00001010
          281 792 rmoveto
          20 callsubr
          hintmask 10110101
          -321 -925 rmoveto
          24 333 hlineto
          hintmask 11010101
          -49 callsubr
          hintmask 10110101
          24 -385 rmoveto
          -48 callsubr
          endchar
        </CharString>
        <CharString name="Rcaron">
          -2 0 21 302 24 -14 14 360 25 60 130 hstemhm
          81 24 57 272 74 25 hintmask 00001010
          162 922 rmoveto
          54 callsubr
          102 -130 rmoveto
          22 hmoveto
          hintmask 10110101
          -221 -792 rmoveto
          24 333 hlineto
          hintmask 11010101
          -49 callsubr
          hintmask 10110101
          24 -385 rmoveto
          -48 callsubr
          endchar
        </CharString>
        <CharString name="Rcommaaccent">
          -2 -196.199996948 5.39999389648 190.800003052 21 302 24 -14 14 360 25 hstemhm
          81 24 170.100006104 30.6000061035 -14.4000091553 14.3999938965 202.300003052 25 hintmask 0000000000000000
          hintmask 1000001000000000
          275.099609375 -123.299804688 rmoveto
          63 callsubr
          hintmask 1000000100000000
          64 callsubr
          hintmask 1000001000000000
          65 callsubr
          hintmask 0101110010000000
          -194.099609375 67.5 rmoveto
          24 333 hlineto
          hintmask 0110110010000000
          -49 callsubr
          hintmask 0101110010000000
          24 -385 rmoveto
          -48 callsubr
          endchar
        </CharString>
        <CharString name="S">
          10 -8 24 331 24 343 24 hstem
          88 24 399 24 vstem
          88 494 rmoveto
          -78 18 -69 155 vhcurveto
          112 hlineto
          100 38 -38 -85 hvcurveto
          -68 vlineto
          -117 -80 -23 -90 vhcurveto
          -93 0 -98 2 -44 4 rrcurveto
          -15 vlineto
          46 -8 140 -7 49 0 rrcurveto
          99 95 22 142 hvcurveto
          68 vlineto
          82 -29 65 -133 vhcurveto
          -114 hlineto
          -92 -55 19 104 hvcurveto
          66 vlineto
          0 121 63.9920043945 36.783996582 105.007995605 -3.78399658203 0 0 158 -4 64 -4 rrcurveto
          13 vlineto
          -49 8 -120 11 -53 0 rrcurveto
          -112 -81 -33 -145 hvcurveto
          endchar
        </CharString>
        <CharString name="Sacute">
          10 -8 24 331 24 343 24 60 133 hstem
          88 24 191 147 61 24 vstem
          303 798 rmoveto
          20 callsubr
          -336 -437 rmoveto
          55 callsubr
          endchar
        </CharString>
        <CharString name="Scaron">
          10 -8 24 331 24 343 24 60 130 hstem
          88 24 74 272 53 24 vstem
          186 928 rmoveto
          54 callsubr
          102 -130 rmoveto
          22 hmoveto
          -238 -304 rmoveto
          55 callsubr
          endchar
        </CharString>
        <CharString name="Scedilla">
          10 -181 7 166 24 331 24 343 24 hstem
          88 24 210 17 172 24 vstem
          208 -174 rmoveto
          21 callsubr
          -152 663 rmoveto
          55 callsubr
          endchar
        </CharString>
        <CharString name="Scircumflex">
          10 -8 24 331 24 343 24 60 130 hstem
          88 24 58 272 69 24 vstem
          170 798 rmoveto
          -42 callsubr
          0 vmoveto
          20 hmoveto
          -234 -434 rmoveto
          55 callsubr
          endchar
        </CharString>
        <CharString name="T">
          28 21 -21 708 24 hstem
          291 24 vstem
          47 708 rmoveto
          -47 callsubr
          endchar
        </CharString>
        <CharString name="Tbar">
          28 21 -21 410 14 284 24 hstem
          291 24 vstem
          47 708 rmoveto
          244 -284 -130 -14 130 -410 24 410 150 14 -150 284 250 24 -518 hlineto
          endchar
        </CharString>
        <CharString name="Tcaron">
          28 0 21 687 24 65 130 hstemhm
          170 272 -151 24 hintmask 00110000
          170 927 rmoveto
          54 callsubr
          102 -130 rmoveto
          22 hmoveto
          hintmask 11001000
          -263 -89 rmoveto
          -47 callsubr
          endchar
        </CharString>
        <CharString name="Tcommaaccent">
          28 -181 7 174 21 687 24 hstemhm
          291 24 -21 17 hintmask 10001000
          180 -174 rmoveto
          21 callsubr
          hintmask 01110000
          -165 877 rmoveto
          -47 callsubr
          endchar
        </CharString>
        <CharString name="Thorn">
          -22 21 -21 149 24 -14 14 391 24 hstemhm
          81 24 369 24 hintmask 10111100
          81 hmoveto
          24 159 hlineto
          hintmask 11011100
          35 -5 142 -4 40 -1 rrcurveto
          74 102 22 204 179 -97 34 -79 hvcurveto
          -217 141 -24 hlineto
          hintmask 10111100
          24 -556 rmoveto
          391 217 vlineto
          66 -1 86 -23 0 -163 rrcurveto
          hintmask 11011100
          -157 -58 -47 -94 vhcurveto
          endchar
        </CharString>
        <CharString name="U">
          107 -5 24 713 -20 hstem
          108 24 459 24 vstem
          108 320 rmoveto
          -46 callsubr
          endchar
        </CharString>
        <CharString name="Uacute">
          107 -5 24 693 20 65 133 hstem
          108 24 222.5 147 89.5 24 vstem
          354.5 797 rmoveto
          20 callsubr
          -367.5 -610 rmoveto
          -46 callsubr
          endchar
        </CharString>
        <CharString name="Ubreve">
          107 -5 24 693 20 65 14 hstem
          108 24 114.5 14 202 14 114.5 24 vstem
          246.5 911 rmoveto
          52 callsubr
          -152.5 -591 rmoveto
          -46 callsubr
          endchar
        </CharString>
        <CharString name="Ucircumflex">
          107 -5 24 693 20 65 130 hstem
          108 24 93.5 272 93.5 24 vstem
          cntrmask 00011100
          225.5 797 rmoveto
          -42 callsubr
          0 vmoveto
          20 hmoveto
          -269.5 -607 rmoveto
          -46 callsubr
          endchar
        </CharString>
        <CharString name="Udieresis">
          107 -5 24 693 20 65 35 hstem
          108 24 85 34 220 35 85 24 vstem
          217 815 rmoveto
          7 callsubr
          254 hmoveto
          8 callsubr
          -363 -495 rmoveto
          -46 callsubr
          endchar
        </CharString>
        <CharString name="Ugrave">
          107 -5 24 693 20 65 133 hstem
          108 24 89.5 147 222.5 24 vstem
          221.5 930 rmoveto
          -41 callsubr
          -139.5 -610 rmoveto
          -46 callsubr
          endchar
        </CharString>
        <CharString name="Uhungarumlaut">
          107 -5 24 693 20 65 133 hstem
          108 24 153 286 20 24 vstem
          285 797 rmoveto
          20 callsubr
          18 -133 rmoveto
          20 callsubr
          -437 -610 rmoveto
          -46 callsubr
          endchar
        </CharString>
        <CharString name="Umacron">
          107 -5 24 693 20 65 15 hstem
          108 24 103.5 252 103.5 24 vstem
          cntrmask 00011100
          235.5 797 rmoveto
          12 callsubr
          -127.5 -492 rmoveto
          -46 callsubr
          endchar
        </CharString>
        <CharString name="Uogonek">
          107 -185 14 147 20 -1 24 693 20 hstemhm
          108 24 459 24 hintmask 11000000
          357 -4 rmoveto
          53 callsubr
          hintmask 00111100
          -261 324 rmoveto
          -46 callsubr
          endchar
        </CharString>
        <CharString name="Uring">
          107 -5 24 693 20 65 15 175 15 hstem
          108 24 128.5 14 174 14 128.5 24 vstem
          260.5 899 rmoveto
          13 callsubr
          14 hmoveto
          14 callsubr
          -166.5 -579 rmoveto
          -46 callsubr
          endchar
        </CharString>
        <CharString name="Utilde">
          107 -5 24 693 20 65 16 57 16 hstem
          108 24 459 24 vstem
          192.5 828 rmoveto
          6 callsubr
          -84.5 -508 rmoveto
          -46 callsubr
          endchar
        </CharString>
        <CharString name="V">
          83 21 -21 732 -20 hstem
          61 732 rmoveto
          262 -732 34 0 274 732 -26 0 -265 -708 -253 708 rlineto
          endchar
        </CharString>
        <CharString name="W">
          395 21 -21 732 -20 hstem
          61 732 rmoveto
          -45 callsubr
          endchar
        </CharString>
        <CharString name="Wacute">
          395 0 21 691 20 65 133 hstem
          495 147 vstem
          495 797 rmoveto
          20 callsubr
          -555 -198 rmoveto
          -45 callsubr
          endchar
        </CharString>
        <CharString name="Wcircumflex">
          395 0 21 691 20 65 130 hstem
          366 272 vstem
          366 797 rmoveto
          -42 callsubr
          0 vmoveto
          20 hmoveto
          -457 -195 rmoveto
          -45 callsubr
          endchar
        </CharString>
        <CharString name="Wdieresis">
          395 0 21 691 20 65 35 hstem
          357.5 34 220 35 vstem
          357.5 815 rmoveto
          7 callsubr
          254 hmoveto
          8 callsubr
          -550.5 -83 rmoveto
          -45 callsubr
          endchar
        </CharString>
        <CharString name="Wgrave">
          395 0 21 691 20 65 133 hstem
          362 147 vstem
          362 930 rmoveto
          -41 callsubr
          -327 -198 rmoveto
          -45 callsubr
          endchar
        </CharString>
        <CharString name="X">
          -11 21 -21 732 -20 hstem
          61 732 rmoveto
          222 -369 -219 -363 31 0 203 337 203 -337 31 0 -218 363 223 369 -31 0 -208 -344 -206 344 rlineto
          endchar
        </CharString>
        <CharString name="X.salt">
          30 21 -21 732 -20 hstem
          27 hmoveto
          30 0 205 284 rlineto
          48 61 -24 82 -45 60 rrcurveto
          -185 245 -29 0 192 -256 rlineto
          46 -56 17 -67 -42 -58 rrcurveto
          104 -11 rmoveto
          205 -284 30 0 -213 295 rlineto
          -42 58 17 67 46 56 rrcurveto
          192 256 -29 0 -185 -245 rlineto
          -45 -60 -24 -82 48 -61 rrcurveto
          endchar
        </CharString>
        <CharString name="Y">
          43 21 -21 732 -20 hstem
          304 24 vstem
          61 732 rmoveto
          -44 callsubr
          endchar
        </CharString>
        <CharString name="Yacute">
          43 0 21 691 20 65 133 hstemhm
          304 24 -9 147 hintmask 00101000
          319 797 rmoveto
          20 callsubr
          hintmask 11010000
          -379 -198 rmoveto
          -44 callsubr
          endchar
        </CharString>
        <CharString name="Ycircumflex">
          43 0 21 691 20 65 130 hstemhm
          190 272 -158 24 hintmask 00110000
          190 797 rmoveto
          -42 callsubr
          0 vmoveto
          20 hmoveto
          hintmask 11001000
          -281 -195 rmoveto
          -44 callsubr
          endchar
        </CharString>
        <CharString name="Ydieresis">
          43 0 21 691 20 65 35 hstem
          181.5 34 88.5 24 107.5 35 vstem
          181.5 815 rmoveto
          7 callsubr
          254 hmoveto
          8 callsubr
          -374.5 -83 rmoveto
          -44 callsubr
          endchar
        </CharString>
        <CharString name="Ygrave">
          43 0 21 691 20 65 133 hstemhm
          186 147 -29 24 hintmask 00110000
          186 930 rmoveto
          -41 callsubr
          hintmask 11001000
          -151 -198 rmoveto
          -44 callsubr
          endchar
        </CharString>
        <CharString name="Z">
          -27 0 24 684 24 hstem
          47 hmoveto
          -43 callsubr
          endchar
        </CharString>
        <CharString name="Zacute">
          -27 0 24 684 24 65 133 hstem
          291.5 147 vstem
          291.5 797 rmoveto
          20 callsubr
          -365.5 -930 rmoveto
          -43 callsubr
          endchar
        </CharString>
        <CharString name="Zcaron">
          -27 0 24 684 24 65 130 hstem
          142.5 272 vstem
          142.5 927 rmoveto
          54 callsubr
          102 -130 rmoveto
          22 hmoveto
          -235.5 -797 rmoveto
          -43 callsubr
          endchar
        </CharString>
        <CharString name="Zdotaccent">
          -27 0 24 684 24 65 86 hstem
          261 35 vstem
          261 809 rmoveto
          -100 callsubr
          -214 -871 rmoveto
          -43 callsubr
          endchar
        </CharString>
        <CharString name="a">
          -56 -6 24 278 24 199 22 hstemhm
          54 24 351 24 -15 15 hintmask 11111000
          54 126 rmoveto
          -40 callsubr
          hintmask 11110100
          -39 callsubr
          hintmask 11111000
          -38 callsubr
          24 -56 rmoveto
          -37 callsubr
          endchar
        </CharString>
        <CharString name="a.salt">
          -35 0 24 269 24 -14 14 196 24 hstemhm
          68 24 356 25 hintmask 10111100
          68 131 rmoveto
          119 callsubr
          hintmask 11011100
          120 callsubr
          24 -64 rmoveto
          121 callsubr
          hintmask 10111100
          122 callsubr
          endchar
        </CharString>
        <CharString name="a.smcp">
          1 21 -21 182 24 hstem
          47 hmoveto
          70 callsubr
          -129 -364 rmoveto
          71 callsubr
          endchar
        </CharString>
        <CharString name="a.superior">
          -210 374 18 189 18 122 18 hstem
          42 18 236 18 vstem
          42 463 rmoveto
          -58 48 -31 52 vhcurveto
          65 0 88 63 2 0 rrcurveto
          5 -59 12 0 0 258 rlineto
          0 73 -53 31 -62 -1 -75 -1 -25 -4 -45 -8 rrcurveto
          -12 vlineto
          49 6 41 1 54 0 65 0 33 -29 0 -61 1 -1 -1 -30 0 0 rrcurveto
          -1 -154 0 0 -62 -38 -36 -54 vhcurveto
          18 -47 rmoveto
          47 vlineto
          0 48 32 22 49 2 rrcurveto
          155 7 0 -139 rlineto
          0 -94 -57 -60 -38 -44 20 50 vhcurveto
          endchar
        </CharString>
        <CharString name="aacute">
          -56 -6 24 278 24 199 22 60 133 hstemhm
          54 24 180 147 24 24 -15 15 hintmask 00010100
          258 601 rmoveto
          20 callsubr
          hintmask 11101010
          -325 -608 rmoveto
          -40 callsubr
          hintmask 11101001
          -39 callsubr
          hintmask 11101010
          -38 callsubr
          24 -56 rmoveto
          -37 callsubr
          endchar
        </CharString>
        <CharString name="aacute.salt">
          -35 0 24 269 24 -14 14 196 24 60.0760040283 133 hstemhm
          68 24 191.615005493 147 17.3849945068 25 hintmask 00000010
          283.615234375 597.076171875 rmoveto
          20 callsubr
          hintmask 10110101
          -336.615234375 -599.076171875 rmoveto
          119 callsubr
          hintmask 11010101
          120 callsubr
          24 -64 rmoveto
          121 callsubr
          hintmask 10110101
          122 callsubr
          endchar
        </CharString>
        <CharString name="aacute.smcp">
          1 0 21 161 24 424 133 hstem
          295 147 vstem
          295 630 rmoveto
          20 callsubr
          -369 -763 rmoveto
          70 callsubr
          -129 -364 rmoveto
          71 callsubr
          endchar
        </CharString>
        <CharString name="abreve">
          -56 -6 24 278 24 199 22 60.0160064697 14 hstemhm
          54 24 77.3480072021 14 202 14 43.6519927979 24 -15 15 hintmask 0000000000000000
          155.34765625 715.016601562 rmoveto
          52 callsubr
          hintmask 1110100100000000
          -115.34765625 -589.016601562 rmoveto
          -40 callsubr
          hintmask 1110100010000000
          -39 callsubr
          hintmask 1110100100000000
          -38 callsubr
          24 -56 rmoveto
          -37 callsubr
          endchar
        </CharString>
        <CharString name="abreve.salt">
          -35 0 24 269 24 -14 14 196 24 60.0760040283 14 hstemhm
          68 24 73.6150054932 14 202 14 52.3849945068 25 hintmask 0000000000000000
          165.615234375 711.076171875 rmoveto
          52 callsubr
          hintmask 1011010010000000
          -111.615234375 -580.076171875 rmoveto
          119 callsubr
          hintmask 1101010010000000
          120 callsubr
          24 -64 rmoveto
          121 callsubr
          hintmask 1011010010000000
          122 callsubr
          endchar
        </CharString>
        <CharString name="abreve.smcp">
          1 0 21 161 24 424 14 hstem
          187 14 202 14 vstem
          187 744 rmoveto
          52 callsubr
          -154 -744 rmoveto
          70 callsubr
          -129 -364 rmoveto
          71 callsubr
          endchar
        </CharString>
        <CharString name="acircumflex">
          -56 -6 24 278 24 199 22 60 130 hstemhm
          54 24 55 272 24 24 -15 15 hintmask 00010100
          133 601 rmoveto
          -42 callsubr
          0 vmoveto
          20 hmoveto
          hintmask 11101010
          -231 -605 rmoveto
          -40 callsubr
          hintmask 11101001
          -39 callsubr
          hintmask 11101010
          -38 callsubr
          24 -56 rmoveto
          -37 callsubr
          endchar
        </CharString>
        <CharString name="acircumflex.salt">
          -35 0 24 269 24 -14 14 196 24 60.0760040283 130 hstemhm
          68 24 62.6150054932 272 21.3849945068 25 hintmask 00000000
          154.615234375 597.076171875 rmoveto
          -42 callsubr
          0 vmoveto
          20 hmoveto
          hintmask 10110101
          -238.615234375 -596.076171875 rmoveto
          119 callsubr
          hintmask 11010101
          120 callsubr
          24 -64 rmoveto
          121 callsubr
          hintmask 10110101
          122 callsubr
          endchar
        </CharString>
        <CharString name="acircumflex.smcp">
          1 0 21 161 24 424 130 hstem
          166 272 vstem
          166 630 rmoveto
          -42 callsubr
          0 vmoveto
          20 hmoveto
          -271 -760 rmoveto
          70 callsubr
          -129 -364 rmoveto
          71 callsubr
          endchar
        </CharString>
        <CharString name="acute">
          -375 531 133 hstem
          27 147 vstem
          27 531 rmoveto
          20 callsubr
          endchar
        </CharString>
        <CharString name="acute.smcp">
          -375 531 133 hstem
          27 147 vstem
          27 531 rmoveto
          20 callsubr
          endchar
        </CharString>
        <CharString name="adieresis">
          -56 -6 24 278 24 199 22 93 35 hstemhm
          54 24 46 34 220 35 16 24 -15 15 hintmask 0001011000000000
          124 652 rmoveto
          7 callsubr
          254 hmoveto
          8 callsubr
          hintmask 1110100100000000
          -324 -526 rmoveto
          -40 callsubr
          hintmask 1110100010000000
          -39 callsubr
          hintmask 1110100100000000
          -38 callsubr
          24 -56 rmoveto
          -37 callsubr
          endchar
        </CharString>
        <CharString name="adieresis.salt">
          -35 0 24 269 24 -14 14 196 24 60.0760040283 35 hstemhm
          68 24 34.1150054932 34 220 35 32.8849945068 25 hintmask 0000000000000000
          126.115234375 615.076171875 rmoveto
          7 callsubr
          254 hmoveto
          8 callsubr
          hintmask 1011010010000000
          -312.115234375 -484.076171875 rmoveto
          119 callsubr
          hintmask 1101010010000000
          120 callsubr
          24 -64 rmoveto
          121 callsubr
          hintmask 1011010010000000
          122 callsubr
          endchar
        </CharString>
        <CharString name="adieresis.smcp">
          1 0 21 161 24 424 35 hstem
          157.5 34 220 35 vstem
          157.5 648 rmoveto
          7 callsubr
          254 hmoveto
          8 callsubr
          -364.5 -648 rmoveto
          70 callsubr
          -129 -364 rmoveto
          71 callsubr
          endchar
        </CharString>
        <CharString name="ae">
          313 -6 24 244 23 225 24 -15 22 hstemhm
          54 24 351 25 357 24 hintmask 11101110
          54 126 rmoveto
          -85 60 -47 73 vhcurveto
          98 0 157 69 2 0 10 -20 21 -49 130 0 83 0 56 5 81 23 rrcurveto
          16 vlineto
          -75 -11 -53 -10 -92 1 -157 2 4 52 2 190 rrcurveto
          244 hlineto
          86 51 18 79 176 -82 -1 -121 hvcurveto
          -101 0 -63 -19 -20 -80 rrcurveto
          hintmask 11011110
          -18 75 -60 32 -70 -1 rrcurveto
          hintmask 11101110
          -100 -1 -72 -16 -57 -14 rrcurveto
          -14 vlineto
          hintmask 11011110
          91 14 65 10 72 -1 101 -1 29 -62 0 -69 1 -1 -1 -98 0 0 rrcurveto
          -1 -242 1 0 -82 -51 -48 -85 vhcurveto
          24 -24 rmoveto
          24 vlineto
          0 61 28 46 81 2 rrcurveto
          242 6 0 -185 rlineto
          0 0 -162 -69 -80 2 -49 1 -60 27 0 85 rrcurveto
          376 154 rmoveto
          hintmask 11101110
          2 187 29 38 148 0 rrcurveto
          124 54 -1 -150 -70 -50 -4 -63 hvcurveto
          endchar
        </CharString>
        <CharString name="ae.smcp">
          252 -7 24 -13 13 193 24 33 26 250 23 -23 14 hstemhm
          412 24 hintmask 10110010
          31 hmoveto
          29 0 141 210 211 0 0 -132 rlineto
          -56 34 -29 50 vhcurveto
          hintmask 01110010
          277 11 0 13 rlineto
          hintmask 10111010
          -277 hlineto
          -12 -48 4 59 hvcurveto
          0 187 306 6 0 14 -306 6 0 184 rlineto
          54 13 12 69 vhcurveto
          hintmask 00110110
          255 14 hlineto
          hintmask 10111010
          -257 9 rlineto
          -95 -5 -17 -9 -48 -70 rrcurveto
          -139 -248 rmoveto
          195 282 0 -282 rlineto
          endchar
        </CharString>
        <CharString name="afii61289">
          -159 -1 13 hstem
          98 23 vstem
          40 248 rmoveto
          8 -12 rlineto
          10 5 29 18 11 14 rrcurveto
          -85 vlineto
          -141 41 -48 77 vhcurveto
          72 13 hlineto
          -7 -67 11 0 hvcurveto
          -54 8 -39 22 0 135 rrcurveto
          106 vlineto
          100 90 109 111 4 103 3 75 -47 66 -80 0 -61 0 -50 -40 -1 -67 rrcurveto
          -328 vlineto
          -19 -20 -20 -19 -19 -17 rrcurveto
          81 78 rmoveto
          300 vlineto
          0 111 157 6 24 -103 30 -128 -147 -122 -64 -64 rrcurveto
          endchar
        </CharString>
        <CharString name="afii61352">
          525 21 -21 381 18 315 21 hstem
          97 25 486 24 85 18 294 18 vstem
          97 hmoveto
          25 645 hlineto
          0 74 88 21 27 -72 rrcurveto
          232 -619 rlineto
          36 -96 127 38 0 88 rrcurveto
          491 vlineto
          70 13 74 79 vhcurveto
          185 hlineto
          61 59 -14 -147 -102 -36 -52 -79 hvcurveto
          -65 hlineto
          -86 -28 50 166 hvcurveto
          -18 hlineto
          -176 29 -58 103 vhcurveto
          66 hlineto
          103 29 65 107 hvcurveto
          0 121 -30 58 -102 3 rrcurveto
          -189 hlineto
          -80 -38 -45 -122 hvcurveto
          -482 vlineto
          -5 -77 -87 -14 -23 62 rrcurveto
          -233 623 rlineto
          -32 88 -131 -16 0 -102 rrcurveto
          endchar
        </CharString>
        <CharString name="agrave">
          -56 -6 24 278 24 199 22 60 133 hstemhm
          54 24 53 147 151 24 -15 15 hintmask 00010100
          131 734 rmoveto
          -41 callsubr
          hintmask 11101010
          -103 -608 rmoveto
          -40 callsubr
          hintmask 11101001
          -39 callsubr
          hintmask 11101010
          -38 callsubr
          24 -56 rmoveto
          -37 callsubr
          endchar
        </CharString>
        <CharString name="agrave.salt">
          -35 0 24 269 24 -14 14 196 24 60.0760040283 133 hstemhm
          68 24 58.6150054932 147 150.384994507 25 hintmask 00000010
          150.615234375 730.076171875 rmoveto
          -41 callsubr
          hintmask 10110101
          -108.615234375 -599.076171875 rmoveto
          119 callsubr
          hintmask 11010101
          120 callsubr
          24 -64 rmoveto
          121 callsubr
          hintmask 10110101
          122 callsubr
          endchar
        </CharString>
        <CharString name="agrave.smcp">
          1 0 21 161 24 425 133 hstem
          140 147 vstem
          140 764 rmoveto
          -41 callsubr
          -119 -764 rmoveto
          70 callsubr
          -129 -364 rmoveto
          71 callsubr
          endchar
        </CharString>
        <CharString name="amacron">
          -56 -6 24 278 24 199 22 60.0160064697 15 hstemhm
          54 24 61.3480072021 252 37.6519927979 24 -15 15 hintmask 00000000
          139.34765625 601.016601562 rmoveto
          12 callsubr
          hintmask 11101010
          -85.34765625 -490.016601562 rmoveto
          -40 callsubr
          hintmask 11101001
          -39 callsubr
          hintmask 11101010
          -38 callsubr
          24 -56 rmoveto
          -37 callsubr
          endchar
        </CharString>
        <CharString name="amacron.salt">
          -35 0 24 269 24 -14 14 196 24 60.0760040283 15 hstemhm
          68 24 62.6150054932 252 41.3849945068 25 hintmask 00000000
          154.615234375 597.076171875 rmoveto
          12 callsubr
          hintmask 10110101
          -86.615234375 -481.076171875 rmoveto
          119 callsubr
          hintmask 11010101
          120 callsubr
          24 -64 rmoveto
          121 callsubr
          hintmask 10110101
          122 callsubr
          endchar
        </CharString>
        <CharString name="amacron.smcp">
          1 0 21 161 24 424 15 hstem
          176 252 vstem
          176 630 rmoveto
          12 callsubr
          -129 -645 rmoveto
          70 callsubr
          -129 -364 rmoveto
          71 callsubr
          endchar
        </CharString>
        <CharString name="ampersand">
          77 21 -21 710 14 hstem
          91 82 rmoveto
          82 -105 131 -8 80 75 rrcurveto
          72 67 82 -111 31 0 -94 127 78 74 69 86 -9 8 -154 -149 -289 392 rlineto
          -82 111 101 61 94 0 rrcurveto
          203 14 hlineto
          -72 6 -137 9 -58 -14 -74 -18 -74 -76 79 -107 rrcurveto
          63 -85 -86 -73 rlineto
          -87 -74 -27 -110 78 -100 rrcurveto
          19 15 rmoveto
          -66 88 15 93 90 75 rrcurveto
          78 65 213 -288 -75 -70 rlineto
          -76 -71 -117 25 -62 83 rrcurveto
          endchar
        </CharString>
        <CharString name="ampersand.salt">
          362 0 24 153 24 167 24 116 24 -14 14 hstemhm
          59 24 117 24 356 24 127 24 -14 14 hintmask 1111011110000000
          59 286 rmoveto
          -95 81 -14 60 vhcurveto
          -155 77 -22 111 vhcurveto
          134 hlineto
          103 130 17 170 hvcurveto
          0 321 rlineto
          hintmask 1110111110000000
          155 10 0 14 rlineto
          hintmask 1111011110000000
          -155 hlineto
          hintmask 1111011101000000
          148 -14 vlineto
          hintmask 1111011110000000
          -10 -148 -461 0 rlineto
          -134 -77 -20 -137 hvcurveto
          24 -89 rmoveto
          89 vlineto
          120 61 13 126 vhcurveto
          461 -321 hlineto
          -141 -103 -22 -106 vhcurveto
          -134 hlineto
          -106 -58 22 131 hvcurveto
          253 hlineto
          85 42 11 98 108 -66 -2 -61 hvcurveto
          -129 hlineto
          -111 -37 -75 -116 hvcurveto
          -52 1 -65 9 0 75 rrcurveto
          141 -85 rmoveto
          134 52 33 72 vhcurveto
          129 hlineto
          75 28 -10 -72 -72 -24 -13 -79 hvcurveto
          endchar
        </CharString>
        <CharString name="ampersand.smcp">
          -57 21 -21 551 12 hstem
          79 62 rmoveto
          62 -87 106 1 63 58 rrcurveto
          58 52 66 -86 27 0 -77 102 35 36 68 87 -6 8 -112 -111 -215 289 rlineto
          -49 65 15 75 112 0 rrcurveto
          158 12 hlineto
          -125 12 -56 -1 -27 -5 -63 -12 -51 -69 65 -89 rrcurveto
          44 -59 -67 -55 rlineto
          -76 -63 -13 -82 58 -78 rrcurveto
          19 14 rmoveto
          -49 67 6 64 75 63 rrcurveto
          60 51 163 -216 -61 -54 rlineto
          -56 -54 -89 12 -49 67 rrcurveto
          endchar
        </CharString>
        <CharString name="aogonek">
          -15 -181 14 147 20 -6 24 278 24 199 22 hstemhm
          73 24 351 24 -15 15 hintmask 11000000
          460 hmoveto
          53 callsubr
          hintmask 00111110
          -399 126 rmoveto
          -40 callsubr
          hintmask 00111101
          -39 callsubr
          hintmask 00111110
          -38 callsubr
          24 -56 rmoveto
          -37 callsubr
          endchar
        </CharString>
        <CharString name="aogonek.salt">
          -10 -166 14 147 20 -15 24 269 24 -14 14 196 24 hstemhm
          92 24 356 25 hintmask 11000000
          412 15 rmoveto
          53 callsubr
          hintmask 00101111
          -332 116 rmoveto
          119 callsubr
          hintmask 00110111
          120 callsubr
          24 -64 rmoveto
          121 callsubr
          hintmask 00101111
          122 callsubr
          endchar
        </CharString>
        <CharString name="aogonek.smcp">
          42 -181 14 147 20 0 21 161 24 hstemhm
          hintmask 11000000
          537 hmoveto
          53 callsubr
          hintmask 00110000
          -485 hmoveto
          70 callsubr
          -129 -364 rmoveto
          71 callsubr
          endchar
        </CharString>
        <CharString name="approxequal">
          -103 220 16 57 16 87 16 57 16 hstem
          68 251 rmoveto
          6 callsubr
          176 vmoveto
          6 callsubr
          endchar
        </CharString>
        <CharString name="aring">
          -56 -6 24 278 24 199 22 30 15 175 15 hstemhm
          54 24 85 14 174 14 64 24 -15 15 hintmask 0001101100000000
          163 673 rmoveto
          13 callsubr
          14 hmoveto
          14 callsubr
          hintmask 1110010010000000
          -123 -547 rmoveto
          -40 callsubr
          hintmask 1110010001000000
          -39 callsubr
          hintmask 1110010010000000
          -38 callsubr
          24 -56 rmoveto
          -37 callsubr
          endchar
        </CharString>
        <CharString name="aring.salt">
          -35 0 24 269 24 -14 14 196 24 60.0760040283 15 175 15 hstemhm
          68 24 97.6150054932 14 174 14 56.3849945068 25 hintmask 0000000110000000
          189.615234375 699.076171875 rmoveto
          13 callsubr
          14 hmoveto
          14 callsubr
          hintmask 1011001001000000
          -135.615234375 -568.076171875 rmoveto
          119 callsubr
          hintmask 1101001001000000
          120 callsubr
          24 -64 rmoveto
          121 callsubr
          hintmask 1011001001000000
          122 callsubr
          endchar
        </CharString>
        <CharString name="aring.smcp">
          1 0 21 161 24 364 15 175 15 hstem
          201 14 174 14 vstem
          201 672 rmoveto
          13 callsubr
          14 hmoveto
          14 callsubr
          -168 -672 rmoveto
          70 callsubr
          -129 -364 rmoveto
          71 callsubr
          endchar
        </CharString>
        <CharString name="asciicircum">
          -169 531 130 hstem
          68 272 vstem
          68 531 rmoveto
          -42 callsubr
          0 vmoveto
          20 hmoveto
          endchar
        </CharString>
        <CharString name="asciitilde">
          -103 541 16 57 16 hstem
          68 572 rmoveto
          6 callsubr
          endchar
        </CharString>
        <CharString name="asterisk">
          -107 592 14 hstem
          68 592 rmoveto
          142 -6 0 24 -142 -4 rlineto
          80 -197 rmoveto
          13 -4 46 134 -26 4 rlineto
          25 180 rmoveto
          56 -130 24 11 -67 123 rlineto
          20 -232 rmoveto
          122 -71 8 11 -118 83 rlineto
          32 34 rmoveto
          18 -19 102 90 -8 12 rlineto
          endchar
        </CharString>
        <CharString name="asterisk.smcp">
          -108 452 14 hstem
          68 452 rmoveto
          142 -6 0 24 -142 -4 rlineto
          80 -197 rmoveto
          13 -4 46 134 -26 4 rlineto
          25 180 rmoveto
          56 -130 24 11 -67 123 rlineto
          20 -232 rmoveto
          122 -71 8 11 -118 83 rlineto
          32 34 rmoveto
          18 -19 102 90 -8 12 rlineto
          endchar
        </CharString>
        <CharString name="at">
          290 -178 25 144 24 6 -21 270 24 194 24 164 24 -24 14 hstemhm
          88 24 121 24 328 24 -16 16 119 24 hintmask 1011110111010000
          88 hmoveto
          -78 callsubr
          hintmask 1001101111010000
          -77 callsubr
          hintmask 1011110111010000
          389 hlineto
          104 49 -70 -94 hvcurveto
          -512 vlineto
          -102 -50 -51 -103 vhcurveto
          -319 hlineto
          -68 -76 35 118 hvcurveto
          348 vlineto
          103 58 37 86 vhcurveto
          197 hlineto
          80 52 -36 -82 hvcurveto
          1 -1 -1 -75 0 0 rrcurveto
          -1 -136 1 -87 -83 -46 -53 -80 vhcurveto
          -53 vlineto
          hintmask 1101100110110000
          -1 -68 55 -51 74 2 91 0 132 73 2 0 rrcurveto
          hintmask 1011110110110000
          7 -64 16 0 rlineto
          hintmask 1011110111010000
          -76 callsubr
          169 -234 rmoveto
          -1 1 0 43 1 1 0 98 70 11 40 2 rrcurveto
          218 10 0 -202 rlineto
          hintmask 1101100111010000
          -50 -24 -108 -40 -59 1 -68 0 -43 39 0 60 rrcurveto
          endchar
        </CharString>
        <CharString name="at.alt">
          291 -78 25 144 24 255 24 194 24 164 24 -24 14 hstemhm
          88 24 121 24 328 24 -16 16 119 24 hintmask 1111101110100000
          88 448 rmoveto
          -348 vlineto
          -116 66 -62 102 vhcurveto
          319 hlineto
          138 39 80 98 hvcurveto
          512 vlineto
          0 125 -71 61 -106 2 rrcurveto
          -101 hlineto
          hintmask 1111011110100000
          -77 callsubr
          hintmask 1111101110100000
          56 callsubr
          hintmask 1111101101100000
          7 -64 16 0 rlineto
          hintmask 1111101110100000
          -76 callsubr
          169 -234 rmoveto
          -1 1 1 43 0 1 0 98 70 11 40 2 rrcurveto
          218 10 0 -202 rlineto
          -50 -24 -108 -40 -59 1 -68 0 -43 39 0 60 rrcurveto
          endchar
        </CharString>
        <CharString name="at.smcp">
          290 -136 25 144 24 255 24 194 24 164 24 -24 14 hstemhm
          88 24 121 24 328 24 -16 16 119 24 hintmask 1111101110100000
          88 42 rmoveto
          -78 callsubr
          hintmask 1111011110100000
          -77 callsubr
          hintmask 1111101110100000
          56 callsubr
          hintmask 1111101101100000
          7 -64 16 0 rlineto
          hintmask 1111101110100000
          -76 callsubr
          169 -234 rmoveto
          -1 1 0 43 1 1 0 98 70 11 40 2 rrcurveto
          218 10 0 -202 rlineto
          -50 -24 -108 -40 -59 1 -68 0 -43 39 0 60 rrcurveto
          endchar
        </CharString>
        <CharString name="atilde">
          -56 -6 24 278 24 199 22 70 16 57 16 hstemhm
          54 24 351 24 -15 15 hintmask 00011000
          95 642 rmoveto
          6 callsubr
          hintmask 11100110
          -41 -516 rmoveto
          -40 callsubr
          hintmask 11100101
          -39 callsubr
          hintmask 11100110
          -38 callsubr
          24 -56 rmoveto
          -37 callsubr
          endchar
        </CharString>
        <CharString name="atilde.salt">
          -35 0 24 269 24 -14 14 196 24 60.0760040283 16 57 16 hstemhm
          68 24 356 25 hintmask 00000000
          121.615234375 628.076171875 rmoveto
          6 callsubr
          hintmask 10110011
          -53.615234375 -497.076171875 rmoveto
          119 callsubr
          hintmask 11010011
          120 callsubr
          24 -64 rmoveto
          121 callsubr
          hintmask 10110011
          122 callsubr
          endchar
        </CharString>
        <CharString name="atilde.smcp">
          1 0 21 161 24 424 16 57 16 hstem
          133 661 rmoveto
          6 callsubr
          -86 -661 rmoveto
          70 callsubr
          -129 -364 rmoveto
          71 callsubr
          endchar
        </CharString>
        <CharString name="b">
          -6 24 497 24 246 -20 hstemhm
          81 23 -23 13 367 24 hintmask 11101100
          81 hmoveto
          13 0 rlineto
          hintmask 11110100
          -36 callsubr
          23 -712 rmoveto
          -35 callsubr
          endchar
        </CharString>
        <CharString name="b.salt">
          -13 -12 24 499 24 247 -20 hstem
          81 24 367 24 vstem
          81 hmoveto
          124 callsubr
          24 -770 rmoveto
          125 callsubr
          endchar
        </CharString>
        <CharString name="b.smcp">
          -26 0 25 256 24 242 24 hstem
          108 24 343 24 vstem
          108 hmoveto
          72 callsubr
          24 -546 rmoveto
          73 callsubr
          -210 280 rmoveto
          74 callsubr
          endchar
        </CharString>
        <CharString name="b.superior">
          -193 374 18 329 18 hstem
          51 18 248 18 vstem
          51 378 rmoveto
          12 0 6 55 rlineto
          19 -16 51 -43 70 0 rrcurveto
          109 17 98 82 91 -8 94 -114 hvcurveto
          -34 0 -62 -10 -48 -20 rrcurveto
          193 -18 vlineto
          18 -455 rmoveto
          250 vlineto
          43 11 40 13 58 0 rrcurveto
          80 27 -42 -125 -106 -34 -56 -75 hvcurveto
          -59 0 -51 36 -29 19 rrcurveto
          endchar
        </CharString>
        <CharString name="backslash">
          -222 27 300 vstem
          27 770 rmoveto
          281 -842 19 0 -281 842 rlineto
          endchar
        </CharString>
        <CharString name="bar">
          -322 116 24 vstem
          116 -72 rmoveto
          24 842 -24 hlineto
          endchar
        </CharString>
        <CharString name="braceleft">
          -272 -210 24 1004 24 hstem
          116 24 vstem
          27 320 rmoveto
          40 3 49 -28 0 -48 rrcurveto
          -285 vlineto
          -78 12 -94 149 vhcurveto
          24 vlineto
          -91 -46 34 114 hvcurveto
          289 vlineto
          0 42 -36 35 -43 6 43 6 37 32 0 48 rrcurveto
          236 vlineto
          122 48 40 88 vhcurveto
          24 vlineto
          -133 -27 -90 -96 hvcurveto
          -236 vlineto
          0 -58 -57 -12 -33 -3 rrcurveto
          endchar
        </CharString>
        <CharString name="braceright">
          -272 -210 24 1004 24 hstem
          164 24 vstem
          27 -186 rmoveto
          -24 vlineto
          149 12 94 78 hvcurveto
          285 vlineto
          0 48 49 28 40 -3 rrcurveto
          27 vlineto
          -33 3 -57 12 0 58 rrcurveto
          236 vlineto
          96 -27 90 -133 vhcurveto
          -24 vlineto
          88 48 -40 -122 hvcurveto
          -236 vlineto
          0 -48 37 -32 43 -6 -43 -6 -36 -35 0 -42 rrcurveto
          -289 vlineto
          -114 -46 -34 -91 vhcurveto
          endchar
        </CharString>
        <CharString name="bracketleft">
          -249 -210 24 1004 24 hstem
          115 24 vstem
          115 -38 rmoveto
          -60 15 -112 121 vhcurveto
          50 24 -50 hlineto
          -83 -29 68 80 hvcurveto
          708 vlineto
          105 46 43 66 vhcurveto
          50 24 -50 hlineto
          -121 -15 -112 -60 hvcurveto
          endchar
        </CharString>
        <CharString name="bracketright">
          -249 -210 24 1004 24 hstem
          189 24 vstem
          27 -186 rmoveto
          -24 50 vlineto
          121 15 112 60 hvcurveto
          708 vlineto
          60 -15 112 -121 vhcurveto
          -50 -24 50 hlineto
          66 46 -43 -105 hvcurveto
          -708 vlineto
          -80 -29 -68 -83 vhcurveto
          endchar
        </CharString>
        <CharString name="breve">
          -213 530 14 hstem
          68 14 202 14 vstem
          68 644 rmoveto
          52 callsubr
          endchar
        </CharString>
        <CharString name="brokenbar">
          -320 116 24 vstem
          116 -72 rmoveto
          24 328 -24 hlineto
          173 vmoveto
          24 341 -24 hlineto
          endchar
        </CharString>
        <CharString name="bullet">
          -255 334 97 hstem
          115 92 vstem
          115 366 rmoveto
          33 callsubr
          endchar
        </CharString>
        <CharString name="bullet.smcp">
          -255 274 97 hstem
          115 92 vstem
          115 306 rmoveto
          33 callsubr
          endchar
        </CharString>
        <CharString name="c">
          -75 -5 24 493 24 hstem
          68 24 vstem
          68 266 rmoveto
          -34 callsubr
          endchar
        </CharString>
        <CharString name="c.smcp">
          -43 -5 24 534 24 hstem
          74 24 vstem
          74 294 rmoveto
          75 callsubr
          endchar
        </CharString>
        <CharString name="c.superior">
          -221 373 18 328 18 hstem
          42 18 vstem
          42 555 rmoveto
          -156 57 -26 74 vhcurveto
          62 1 37 7 38 14 rrcurveto
          12 vlineto
          0 -59 -16 -78 -82 -31 45 117 144 45 22 67 43 90 -13 0 vhcurveto
          12 vlineto
          -48 11 -45 8 -39 0 rrcurveto
          -77 -54 -27 -155 hvcurveto
          endchar
        </CharString>
        <CharString name="c_h">
          464 -5 24 493 24 248 -20 hstem
          54 24 491 24 356 24 vstem
          54 266 rmoveto
          -233 72 -38 103 191 173 -22 233 vhcurveto
          250 vlineto
          74 40 54 21 88 0 rrcurveto
          89 51 -62 -84 hvcurveto
          -370 24 370 vlineto
          88 -58 82 -106 vhcurveto
          -81 0 -77 -33 -58 -38 rrcurveto
          314 -24 -578 vlineto
          -215 -173 28 -167 -86 -65 37 206 216 60 34 91 89 109 -16 0 vhcurveto
          14 vlineto
          -62 14 -84 12 -52 0 rrcurveto
          -102 -73 -38 -232 hvcurveto
          endchar
        </CharString>
        <CharString name="c_k">
          382 -5 24 493 24 246 -20 hstem
          54 24 466 24 vstem
          54 266 rmoveto
          0 -233 76 -37 99 -1 87 -1 97 72 131 114 rrcurveto
          -180 24 201 vlineto
          101 93 232 -293 30 0 -244 311 236 219 -33 0 -322 -297 0 548 -24 0 0 -567 rlineto
          -79 -74 -138 -122 -98 0 rrcurveto
          -86 -65 37 206 216 60 34 91 89 109 -16 0 hvcurveto
          14 vlineto
          -62 14 -84 12 -52 0 -102 0 -73 -38 0 -232 rrcurveto
          endchar
        </CharString>
        <CharString name="c_t">
          219 -7 24 -21 13 497 24 hstemhm
          54 24 492 24 -16 16 hintmask 10111000
          54 264 rmoveto
          -233 76 -38 99 vhcurveto
          83 1 41 5 81 23 rrcurveto
          16 vlineto
          0 -113 -21 -92 -86 -65 37 206 208 65 38 86 vhcurveto
          341 0 1 -321 rlineto
          hintmask 01110100
          -132 39 -57 84 vhcurveto
          67 13 hlineto
          -7 -67 11 0 hvcurveto
          -30 4 -62 4 0 157 rrcurveto
          -1 323 175 0 0 22 rlineto
          hintmask 10111000
          -175 hlineto
          hintmask 10110100
          148 -16 vlineto
          hintmask 10111000
          -8 -148 -341 0 rlineto
          -98 -77 -37 -229 hvcurveto
          endchar
        </CharString>
        <CharString name="cacute">
          -75 -5 24 493 24 60 133 hstem
          68 24 173 147 vstem
          265 596 rmoveto
          20 callsubr
          -318 -463 rmoveto
          -34 callsubr
          endchar
        </CharString>
        <CharString name="cacute.smcp">
          -43 -5 24 534 24 66 133 hstem
          74 24 173 147 vstem
          271 643 rmoveto
          20 callsubr
          -318 -482 rmoveto
          75 callsubr
          endchar
        </CharString>
        <CharString name="caron">
          -169 531 130 hstem
          68 272 vstem
          68 661 rmoveto
          54 callsubr
          102 -130 rmoveto
          22 hmoveto
          endchar
        </CharString>
        <CharString name="caron.smcp">
          -169 531 130 hstem
          68 272 vstem
          68 661 rmoveto
          54 callsubr
          102 -130 rmoveto
          22 hmoveto
          endchar
        </CharString>
        <CharString name="ccaron">
          -75 -5 24 493 24 60 130 hstem
          68 24 57 272 vstem
          149 726 rmoveto
          54 callsubr
          102 -130 rmoveto
          22 hmoveto
          -221 -330 rmoveto
          -34 callsubr
          endchar
        </CharString>
        <CharString name="ccaron.smcp">
          -43 -5 24 534 24 66 130 hstem
          74 24 84 272 vstem
          182 773 rmoveto
          54 callsubr
          102 -130 rmoveto
          22 hmoveto
          -248 -349 rmoveto
          75 callsubr
          endchar
        </CharString>
        <CharString name="ccedilla">
          -75 -171 7 159 24 493 24 hstem
          68 24 182 17 vstem
          68 266 rmoveto
          -34 callsubr
          91 -430 rmoveto
          -7 31 vlineto
          83 18 36 100 hvcurveto
          -17 hlineto
          2 -108 -31 -8 -53 -8 rrcurveto
          endchar
        </CharString>
        <CharString name="ccedilla.smcp">
          -43 -174 7 162 24 534 24 hstem
          74 24 199 17 vstem
          183 -167 rmoveto
          21 callsubr
          -141 456 rmoveto
          75 callsubr
          endchar
        </CharString>
        <CharString name="ccircumflex">
          -75 -5 24 493 24 60 130 hstem
          68 24 41 272 vstem
          133 596 rmoveto
          -42 callsubr
          0 vmoveto
          20 hmoveto
          -217 -460 rmoveto
          -34 callsubr
          endchar
        </CharString>
        <CharString name="ccircumflex.smcp">
          -43 -5 24 534 24 66 130 hstem
          74 24 72 272 vstem
          170 643 rmoveto
          -42 callsubr
          0 vmoveto
          20 hmoveto
          -248 -479 rmoveto
          75 callsubr
          endchar
        </CharString>
        <CharString name="cdotaccent">
          -75 -5 24 493 24 60 86 hstem
          68 24 166.5 35 vstem
          258.5 608 rmoveto
          -100 callsubr
          -190.5 -404 rmoveto
          -34 callsubr
          endchar
        </CharString>
        <CharString name="cdotaccent.smcp">
          -43 -5 24 534 24 66 86 hstem
          74 24 182.5 35 vstem
          280.5 655 rmoveto
          -100 callsubr
          -206.5 -423 rmoveto
          75 callsubr
          endchar
        </CharString>
        <CharString name="cedilla">
          -309 -173 7 hstem
          182 17 vstem
          68 -166 rmoveto
          21 callsubr
          endchar
        </CharString>
        <CharString name="cent">
          -88 -5 24 493 24 hstem
          54 24 168 18 vstem
          54 266 rmoveto
          -243.809005737 77.1770019531 -27.1909942627 114.822998047 vhcurveto
          -77 18 78 vlineto
          61 2 40 6 69 20 rrcurveto
          16 vlineto
          0 -113 -21 -92 -86 -65 37 206 216 60 34 91 89 109 -16 0 vhcurveto
          14 vlineto
          -49 12 -64 10 -50 3 rrcurveto
          83 -18 -82 vlineto
          -115 -77 -30 -240 hvcurveto
          endchar
        </CharString>
        <CharString name="circumflex">
          -169 531 130 hstem
          68 272 vstem
          68 531 rmoveto
          -42 callsubr
          0 vmoveto
          20 hmoveto
          endchar
        </CharString>
        <CharString name="circumflex.smcp">
          -169 531 130 hstem
          68 271 vstem
          68 531 rmoveto
          18 0 124 115 112 -115 17 0 -119 130 -20 0 rlineto
          0 vmoveto
          20 hmoveto
          endchar
        </CharString>
        <CharString name="colon">
          -399 0 86 358 86 hstem
          69 35 vstem
          69 12 rmoveto
          -100 callsubr
          381 vmoveto
          -80 callsubr
          endchar
        </CharString>
        <CharString name="comma">
          -405 -68 6 hstemhm
          69 34 -16 16 hintmask 11000000
          69 13 rmoveto
          -8 5 -5 7 vhcurveto
          hintmask 10100000
          -102 callsubr
          hintmask 11000000
          -101 callsubr
          endchar
        </CharString>
        <CharString name="copyright">
          288 0 14 133 14 408 14 135 14 hstem
          74 14 162 14 512 14 vstem
          74 368 rmoveto
          9 callsubr
          14 hmoveto
          10 callsubr
          162 -3 rmoveto
          -177 65 -41 79 vhcurveto
          67 0 53 3 64 18 rrcurveto
          9 vlineto
          -47 -11 -65 -5 -72 0 rrcurveto
          -95 -35 74 127 149 52 58 78 hvcurveto
          33 0 82 -3 63 -9 rrcurveto
          9 vlineto
          -56 10 -81 7 -41 0 rrcurveto
          -81 -63 -57 -161 hvcurveto
          endchar
        </CharString>
        <CharString name="currency">
          -110 143 15 304 15 hstem
          71 15 297 15 vstem
          69 472 rmoveto
          47 -46 rlineto
          -28 -29 -17 -39 0 -43 0 -42 14 -39 24 -30 rrcurveto
          -39 -40 8 -8 39 39 rlineto
          29 -32 41 -20 47 0 45 0 41 19 29 30 rrcurveto
          36 -38 10 9 -38 38 rlineto
          26 31 15 40 0 43 0 45 -17 40 -29 29 rrcurveto
          44 43 -9 10 -45 -44 rlineto
          -29 25 -37 14 -42 0 -42 0 -39 -16 -29 -27 rrcurveto
          -46 47 rlineto
          8 -167 rmoveto
          81 67 67 81 83 66 -65 -83 -84 -65 -72 -84 -84 -64 72 84 vhcurveto
          endchar
        </CharString>
        <CharString name="d">
          -6 24 497 24 246 -20 hstemhm
          68 24 356 23 -13 13 hintmask 11111000
          68 263 rmoveto
          -33 callsubr
          hintmask 11110100
          10 -59 13 0 rlineto
          hintmask 11111000
          -32 callsubr
          24 hmoveto
          -31 callsubr
          endchar
        </CharString>
        <CharString name="d.salt">
          -13 -12 24 499 24 247 -20 hstem
          68 24 366 24 vstem
          68 257 rmoveto
          126 callsubr
          24 hmoveto
          127 callsubr
          endchar
        </CharString>
        <CharString name="d.smcp">
          40 0 24 524 24 hstem
          108 24 398 24 vstem
          108 hmoveto
          76 callsubr
          24 -548 rmoveto
          77 callsubr
          endchar
        </CharString>
        <CharString name="d.superior">
          -194 374 18 329 18 hstem
          42 18 248 18 vstem
          42 554 rmoveto
          -82 17 -98 109 vhcurveto
          70 0 51 43 19 16 rrcurveto
          6 -55 12 0 0 524 -18 0 0 -193 rlineto
          -48 20 -62 10 -34 0 rrcurveto
          -114 -8 -94 -91 hvcurveto
          18 hmoveto
          125 27 42 80 vhcurveto
          58 0 40 -13 43 -11 rrcurveto
          -250 vlineto
          -29 -19 -51 -36 -59 0 rrcurveto
          -75 -34 56 106 hvcurveto
          endchar
        </CharString>
        <CharString name="dagger">
          -178 512 14 hstem
          187 24 vstem
          27 512 rmoveto
          160 -5 4 -579 14 0 6 579 160 5 0 14 -160 4 -5 240 -14 0 -5 -240 -160 -4 rlineto
          endchar
        </CharString>
        <CharString name="daggerdbl">
          -151 194 14 304 14 hstem
          189 19 vstem
          27 194 rmoveto
          162 -5 2 -261 14 0 3 261 163 5 0 14 -163 4 3 295 160 5 0 14 -160 4 -5 240 -14 0 -5 -240 -160 -4 rlineto
          0 -14 160 -5 2 -295 -162 -4 rlineto
          endchar
        </CharString>
        <CharString name="dcaron">
          -6 24 497 24 246 -20 hstemhm
          68 24 356 23 -13 13 64 25 hintmask 11111010
          68 263 rmoveto
          -33 callsubr
          hintmask 11110110
          10 -59 13 0 rlineto
          hintmask 11111010
          -32 callsubr
          24 hmoveto
          -31 callsubr
          443 452 rmoveto
          -107 callsubr
          endchar
        </CharString>
        <CharString name="dcaron.salt">
          2 -12 24 499 24 247 -20 hstem
          68 24 366 24 72 25 vstem
          68 257 rmoveto
          126 callsubr
          24 hmoveto
          127 callsubr
          462 458 rmoveto
          -107 callsubr
          endchar
        </CharString>
        <CharString name="dcaron.smcp">
          29 0 24 524 24 60 130 hstem
          108 24 56 272 70 24 vstem
          188 762 rmoveto
          54 callsubr
          102 -130 rmoveto
          22 hmoveto
          -220 -632 rmoveto
          76 callsubr
          24 -548 rmoveto
          77 callsubr
          endchar
        </CharString>
        <CharString name="dcroat">
          -6 24 497 24 102 14 130 -20 hstemhm
          68 24 358 22 -13 13 hintmask 11111010
          68 263 rmoveto
          -122 40 -147 145 vhcurveto
          68 0 102 41 26 24 rrcurveto
          10 -59 13 0 rlineto
          hintmask 11111100
          641 83 14 -83 130 -22 -130 -132 -14 132 -142 vlineto
          -64 26 -88 14 -45 0 rrcurveto
          -151 -34 -140 -136 hvcurveto
          24 hmoveto
          205 77 47 84 vhcurveto
          77 0 50 -12 69 -18 rrcurveto
          -412 vlineto
          -53 -27 -64 -28 -79 0 rrcurveto
          -85 -76 71 174 hvcurveto
          endchar
        </CharString>
        <CharString name="dcroat.salt">
          -32 -12 24 499 24 106 14 127 -20 hstem
          68 24 366 24 vstem
          68 257 rmoveto
          -168 59 -101 125 vhcurveto
          106 0 75 4 49 8 rrcurveto
          641 62 14 -62 127 -24 -127 -150 -14 150 -145 vlineto
          -64 26 -97 13 -45 0 rrcurveto
          -153 -31 -120 -158 hvcurveto
          24 hmoveto
          127 callsubr
          endchar
        </CharString>
        <CharString name="dcroat.smcp">
          33 0 24 259 14 251 24 hstem
          92 24 388 24 vstem
          27 283 rmoveto
          106 callsubr
          89 -273 rmoveto
          107 callsubr
          endchar
        </CharString>
        <CharString name="degree">
          -238 530 15 175 15 hstem
          68 14 174 14 vstem
          68 632 rmoveto
          13 callsubr
          14 hmoveto
          14 callsubr
          endchar
        </CharString>
        <CharString name="degree.smcp">
          -238 370 15 175 15 hstem
          68 14 174 14 vstem
          68 472 rmoveto
          13 callsubr
          14 hmoveto
          14 callsubr
          endchar
        </CharString>
        <CharString name="dieresis">
          -152 564 35 hstem
          68 34 220 35 vstem
          68 582 rmoveto
          7 callsubr
          254 hmoveto
          8 callsubr
          endchar
        </CharString>
        <CharString name="dieresis.smcp">
          -152 564 35 hstem
          68 35 219 35 vstem
          68 582 rmoveto
          -10 7 -8 10 10 8 8 10 10 -8 7 -10 -10 -7 -7 -10 vhcurveto
          254 hmoveto
          8 callsubr
          endchar
        </CharString>
        <CharString name="divide">
          -25 147 66 128 24 118 66 hstem
          262 35 vstem
          68 341 rmoveto
          416 24 -416 hlineto
          194 -206 rmoveto
          -7 5 -5 7 vhcurveto
          11 hlineto
          7 5 4 8 hvcurveto
          42 vlineto
          7 -4 5 -8 vhcurveto
          -11 hlineto
          -8 -4 -4 -8 hvcurveto
          293 vmoveto
          -7 5 -4 7 vhcurveto
          11 hlineto
          7 5 3 8 hvcurveto
          43 vlineto
          7 -4 5 -8 vhcurveto
          -11 hlineto
          -8 -4 -4 -8 hvcurveto
          endchar
        </CharString>
        <CharString name="dollar">
          9 347 24 343 24 hstem
          74 24 185 18 186 24 vstem
          74 494 rmoveto
          -71 18 -76 155 vhcurveto
          102 hlineto
          100 38 -38 -85 hvcurveto
          -68 vlineto
          -117 -73 -23 -97 vhcurveto
          -93 0 -88 2 -44 4 rrcurveto
          -15 vlineto
          38 -7 93 -5 60 -2 rrcurveto
          -81 18 80 vlineto
          108 -2 102 18 0 148 rrcurveto
          68 vlineto
          82 -29 65 -133 vhcurveto
          -104 hlineto
          -90 -57 23 100 hvcurveto
          66 vlineto
          0 126 64 32 105 -4 0 0 148 -4 64 -4 rrcurveto
          13 vlineto
          -40 6 -81 9 -57 3 rrcurveto
          87 -18 -86 vlineto
          -122 4 -87 -31 0 -151 rrcurveto
          endchar
        </CharString>
        <CharString name="dollar.smcp">
          -38 -3 27 -13 13 250 24 252 25 -25 14 hstemhm
          68 24 170 18 162 25 hintmask 10100111
          68 402 rmoveto
          -76 43 -52 119 vhcurveto
          82 hlineto
          75 55 -43 -60 hvcurveto
          -38 vlineto
          -81 -82 -28 -56 vhcurveto
          hintmask 01100111
          -218 -13 hlineto
          hintmask 10110111
          34 -6 102 -5 40 -3 rrcurveto
          -66 18 66 vlineto
          80 -4 107 31 0 109 rrcurveto
          38 vlineto
          65 -49 62 -106 vhcurveto
          -82 hlineto
          -70 -68 26 78 hvcurveto
          31 vlineto
          72 27 45 121 vhcurveto
          hintmask 00101111
          206 14 hlineto
          -41 6 -93 4 -32 0 rrcurveto
          66 -18 vlineto
          hintmask 10110111
          -65 vlineto
          -98 -96 -8 -134 hvcurveto
          endchar
        </CharString>
        <CharString name="dotaccent">
          -406 566 86 hstem
          62 35 vstem
          62 578 rmoveto
          -100 callsubr
          endchar
        </CharString>
        <CharString name="dotlessi">
          -390 21 -21 531 -20 hstem
          81 24 vstem
          81 hmoveto
          -17 callsubr
          endchar
        </CharString>
        <CharString name="e">
          -50 -5 24 231 23 238 24 hstem
          68 24 356 24 vstem
          68 268 rmoveto
          -30 callsubr
          24 5 rmoveto
          -29 callsubr
          endchar
        </CharString>
        <CharString name="e.smcp">
          -46 -2 24 -13 13 250 26 250 23 -23 14 hstemhm
          108 24 hintmask 10100100
          108 83 rmoveto
          78 callsubr
          hintmask 01100100
          79 callsubr
          hintmask 10110100
          80 callsubr
          hintmask 00101100
          265 14 hlineto
          hintmask 10110100
          81 callsubr
          endchar
        </CharString>
        <CharString name="e.superior">
          -190 373 18 153 18 152 18 hstem
          42 18 261 18 vstem
          42 557 rmoveto
          -146 41 -38 91 vhcurveto
          62 0 34 6 61 17 rrcurveto
          12 vlineto
          -57 -11 -25 -6 -69 0 rrcurveto
          -68 -52 17 136 hvcurveto
          171 hlineto
          80 28 16 48 118 -68 6 -70 -109 -50 -27 -148 hvcurveto
          18 5 rmoveto
          142 55 10 86 92 28 -25 -82 -42 -46 -3 -45 vhcurveto
          endchar
        </CharString>
        <CharString name="eacute">
          -50 -5 24 231 23 238 24 56 133 hstem
          68 24 180 147 29 24 vstem
          272 591 rmoveto
          20 callsubr
          -325 -456 rmoveto
          -30 callsubr
          24 5 rmoveto
          -29 callsubr
          endchar
        </CharString>
        <CharString name="eacute.smcp">
          -46 -2 24 -13 13 250 26 250 14 -14 23 60 133 hstemhm
          108 24 173 147 hintmask 00000101
          305 631 rmoveto
          20 callsubr
          hintmask 10100010
          -318 -681 rmoveto
          78 callsubr
          hintmask 01100010
          79 callsubr
          hintmask 10101010
          80 callsubr
          hintmask 00110010
          265 14 hlineto
          hintmask 10101010
          81 callsubr
          endchar
        </CharString>
        <CharString name="ecaron">
          -50 -5 24 231 23 238 24 61 130 hstem
          68 24 61 272 23 24 vstem
          153 726 rmoveto
          54 callsubr
          102 -130 rmoveto
          22 hmoveto
          -225 -328 rmoveto
          -30 callsubr
          24 5 rmoveto
          -29 callsubr
          endchar
        </CharString>
        <CharString name="ecaron.smcp">
          -46 -2 24 -13 13 250 26 250 14 -14 23 60 130 hstemhm
          108 24 37 272 hintmask 00000101
          169 761 rmoveto
          54 callsubr
          102 -130 rmoveto
          22 hmoveto
          hintmask 10100010
          -201 -548 rmoveto
          78 callsubr
          hintmask 01100010
          79 callsubr
          hintmask 10101010
          80 callsubr
          hintmask 00110010
          265 14 hlineto
          hintmask 10101010
          81 callsubr
          endchar
        </CharString>
        <CharString name="ecircumflex">
          -50 -5 24 231 23 238 24 56 130 hstem
          68 24 43 272 41 24 vstem
          135 591 rmoveto
          -42 callsubr
          0 vmoveto
          20 hmoveto
          -219 -453 rmoveto
          -30 callsubr
          24 5 rmoveto
          -29 callsubr
          endchar
        </CharString>
        <CharString name="ecircumflex.smcp">
          -46 -2 24 -13 13 250 26 250 14 -14 23 61 130 hstemhm
          108 24 34 272 hintmask 00000101
          166 632 rmoveto
          -42 callsubr
          0 vmoveto
          20 hmoveto
          hintmask 10100010
          -210 -679 rmoveto
          78 callsubr
          hintmask 01100010
          79 callsubr
          hintmask 10101010
          80 callsubr
          hintmask 00110010
          265 14 hlineto
          hintmask 10101010
          81 callsubr
          endchar
        </CharString>
        <CharString name="edieresis">
          -50 -5 24 231 23 238 24 89 35 hstem
          68 24 41 34 220 35 26 24 vstem
          133 642 rmoveto
          7 callsubr
          254 hmoveto
          8 callsubr
          -319 -374 rmoveto
          -30 callsubr
          24 5 rmoveto
          -29 callsubr
          endchar
        </CharString>
        <CharString name="edieresis.smcp">
          -46 -2 24 -13 13 250 26 250 14 -14 23 94 35 hstemhm
          108 24 20 34 220 35 hintmask 0000010110000000
          152 683 rmoveto
          7 callsubr
          254 hmoveto
          8 callsubr
          hintmask 1010001000000000
          -298 -600 rmoveto
          78 callsubr
          hintmask 0110001000000000
          79 callsubr
          hintmask 1010101000000000
          80 callsubr
          hintmask 0011001000000000
          265 14 hlineto
          hintmask 1010101000000000
          81 callsubr
          endchar
        </CharString>
        <CharString name="edotaccent">
          -50 -5 24 231 23 238 24 61 86 hstem
          68 24 180.5 35 140.5 24 vstem
          272.5 608 rmoveto
          -100 callsubr
          -204.5 -402 rmoveto
          -30 callsubr
          24 5 rmoveto
          -29 callsubr
          endchar
        </CharString>
        <CharString name="edotaccent.smcp">
          -46 -2 24 -13 13 250 26 250 14 -14 23 60 86 hstemhm
          108 24 158.5 35 hintmask 00000101
          290.5 643 rmoveto
          -100 callsubr
          hintmask 10100010
          -182.5 -622 rmoveto
          78 callsubr
          hintmask 01100010
          79 callsubr
          hintmask 10101010
          80 callsubr
          hintmask 00110010
          265 14 hlineto
          hintmask 10101010
          81 callsubr
          endchar
        </CharString>
        <CharString name="egrave">
          -50 -5 24 231 23 238 24 56 133 hstem
          68 24 53 147 156 24 vstem
          145 724 rmoveto
          -41 callsubr
          -103 -456 rmoveto
          -30 callsubr
          24 5 rmoveto
          -29 callsubr
          endchar
        </CharString>
        <CharString name="egrave.smcp">
          -46 -2 24 -13 13 250 26 250 14 -14 23 61 133 hstemhm
          108 24 36 147 hintmask 00000101
          168 765 rmoveto
          -41 callsubr
          hintmask 10100010
          -86 -682 rmoveto
          78 callsubr
          hintmask 01100010
          79 callsubr
          hintmask 10101010
          80 callsubr
          hintmask 00110010
          265 14 hlineto
          hintmask 10101010
          81 callsubr
          endchar
        </CharString>
        <CharString name="eight">
          79 0 24 338 23 328 24 hstem
          101 24 406 24 vstem
          101 154 rmoveto
          -89 callsubr
          24 -102 rmoveto
          -88 callsubr
          343 vmoveto
          -87 callsubr
          endchar
        </CharString>
        <CharString name="eight.denominator">
          -66 -1 18 215 18 212 18 hstem
          89 18 298 18 vstem
          89 103 rmoveto
          45 callsubr
          18 -54 rmoveto
          46 callsubr
          220 vmoveto
          47 callsubr
          endchar
        </CharString>
        <CharString name="eight.numerator">
          -66 254 18 215 18 212 18 hstem
          89 18 298 18 vstem
          89 358 rmoveto
          45 callsubr
          18 -54 rmoveto
          46 callsubr
          220 vmoveto
          47 callsubr
          endchar
        </CharString>
        <CharString name="eight.oldstyle">
          79 0 24 338 23 328 24 hstem
          101 24 406 24 vstem
          101 154 rmoveto
          -89 callsubr
          24 -102 rmoveto
          -88 callsubr
          343 vmoveto
          -87 callsubr
          endchar
        </CharString>
        <CharString name="eight.smcp">
          43 0 24 253 25 249 24 hstem
          101 24 370 24 vstem
          101 135 rmoveto
          -41 3 -94 130 vhcurveto
          158 hlineto
          68 59 34 101 hvcurveto
          32 vlineto
          0 66 -41 55 -47 5 38 6 50 30 0 80 rrcurveto
          28 vlineto
          95 -43 43 -83 vhcurveto
          -156 hlineto
          -90 -46 -32 -106 hvcurveto
          -28 vlineto
          0 -62 35 -47 54 -14 -30 -1 -59 -24 0 -91 rrcurveto
          24 -37 rmoveto
          37 vlineto
          91 70 16 43 vhcurveto
          146 hlineto
          46 65 -16 -96 hvcurveto
          -32 vlineto
          -68 -39 -41 -64 vhcurveto
          -158 hlineto
          -76 -33 38 71 hvcurveto
          277 vmoveto
          25 vlineto
          96 34 20 78 vhcurveto
          156 hlineto
          72 31 -36 -80 hvcurveto
          -25 vlineto
          -60 -44 -48 -68 vhcurveto
          -146 hlineto
          -48 -65 20 88 hvcurveto
          endchar
        </CharString>
        <CharString name="eight.tnum">
          54 0 24 338 23 328 24 hstem
          92 24 406 24 vstem
          92 154 rmoveto
          -89 callsubr
          24 -102 rmoveto
          -88 callsubr
          343 vmoveto
          -87 callsubr
          endchar
        </CharString>
        <CharString name="eight.tosf">
          54 0 24 338 23 328 24 hstem
          92 24 406 24 vstem
          92 154 rmoveto
          -89 callsubr
          24 -102 rmoveto
          -88 callsubr
          343 vmoveto
          -87 callsubr
          endchar
        </CharString>
        <CharString name="eightinferior">
          -66 -201 18 215 18 212 18 hstem
          89 18 298 18 vstem
          89 -39 rmoveto
          -58 vlineto
          -54 17 -50 92 vhcurveto
          120 hlineto
          55 50 20 84 hvcurveto
          58 vlineto
          0 45 -38 31 -33 6 48 4 23 42 0 34 rrcurveto
          40 vlineto
          86 -38 31 -70 vhcurveto
          -110 hlineto
          -67 -49 -25 -92 hvcurveto
          -40 vlineto
          0 -34 18 -42 55 -10 -27 -1 -46 -27 0 -48 rrcurveto
          18 -2 rmoveto
          42 39 31 54 vhcurveto
          125 hlineto
          29 51 -22 -53 hvcurveto
          -50 vlineto
          -68 -32 -22 -59 vhcurveto
          -112 hlineto
          -70 -25 25 65 hvcurveto
          220 vmoveto
          47 callsubr
          endchar
        </CharString>
        <CharString name="eightsuperior">
          -66 354 18 215 18 212 18 hstem
          89 18 298 18 vstem
          89 458 rmoveto
          45 callsubr
          18 -54 rmoveto
          46 callsubr
          220 vmoveto
          47 callsubr
          endchar
        </CharString>
        <CharString name="ellipsis">
          232 0 86 hstem
          109 35 237 35 237 35 vstem
          cntrmask 01110000
          653 12 rmoveto
          -100 callsubr
          -272 -62 rmoveto
          -100 callsubr
          -272 -62 rmoveto
          -100 callsubr
          endchar
        </CharString>
        <CharString name="emacron">
          -50 -5 24 231 23 238 24 61 15 hstem
          68 24 52 252 52 24 vstem
          cntrmask 00001110
          144 596 rmoveto
          12 callsubr
          -76 -343 rmoveto
          -30 callsubr
          24 5 rmoveto
          -29 callsubr
          endchar
        </CharString>
        <CharString name="emacron.smcp">
          -46 -2 24 -13 13 250 26 250 14 -14 23 61 15 hstemhm
          108 24 45 252 hintmask 00000101
          177 632 rmoveto
          12 callsubr
          hintmask 10100010
          -69 -564 rmoveto
          78 callsubr
          hintmask 01100010
          79 callsubr
          hintmask 10101010
          80 callsubr
          hintmask 00110010
          265 14 hlineto
          hintmask 10101010
          81 callsubr
          endchar
        </CharString>
        <CharString name="emdash">
          174 277 25 hstem
          27 277 rmoveto
          696 25 -696 hlineto
          endchar
        </CharString>
        <CharString name="emdash.alt">
          174 347 25 hstem
          27 347 rmoveto
          696 25 -696 hlineto
          endchar
        </CharString>
        <CharString name="emdash.smcp">
          174 264 25 hstem
          27 264 rmoveto
          696 25 -696 hlineto
          endchar
        </CharString>
        <CharString name="endash">
          -49 275 25 hstem
          27 275 rmoveto
          473 25 -473 hlineto
          endchar
        </CharString>
        <CharString name="endash.alt">
          -49 345 25 hstem
          27 345 rmoveto
          473 25 -473 hlineto
          endchar
        </CharString>
        <CharString name="endash.smcp">
          -49 260 25 hstem
          27 260 rmoveto
          473 25 -473 hlineto
          endchar
        </CharString>
        <CharString name="eng">
          -10 -245 15 251 -21 531 -20 5 24 hstemhm
          81 24 -24 12 368 24 hintmask 11011010
          81 hmoveto
          24 452 hlineto
          60 33 62 31 84 0 rrcurveto
          90 60 -75 -71 hvcurveto
          0 -370 0 -89 rlineto
          -2 -93 -62 -35 -76 -13 rrcurveto
          12 -15 rlineto
          54 6 98 22 0 127 rrcurveto
          0 90 0 370 rlineto
          88 -68 82 -106 vhcurveto
          -81 0 -64 -36 -61 -35 rrcurveto
          hintmask 11100110
          -12 62 -12 0 rlineto
          endchar
        </CharString>
        <CharString name="eng.smcp">
          44 -217 18 220 -21 hstem
          108 24 396 24 vstem
          108 hmoveto
          24 528 hlineto
          396 -528 0 -45 rlineto
          0 -151 -52 7 -86 -10 rrcurveto
          -18 vlineto
          118 44 21 152 hvcurveto
          0 44 0 571 -24 0 0 -531 -398 531 -22 0 rlineto
          endchar
        </CharString>
        <CharString name="eogonek">
          -50 -158 14 139 24 -16 20 227 23 238 24 hstemhm
          68 24 356 24 hintmask 10100000
          450 23 rmoveto
          53 callsubr
          hintmask 01011110
          -394 245 rmoveto
          -30 callsubr
          24 5 rmoveto
          -29 callsubr
          endchar
        </CharString>
        <CharString name="eogonek.smcp">
          -46 -172 14 147 20 -11 24 -13 13 250 26 250 14 -14 23 hstemhm
          108 24 hintmask 11000000
          467 9 rmoveto
          53 callsubr
          hintmask 00101001
          -371 74 rmoveto
          78 callsubr
          hintmask 00011001
          79 callsubr
          hintmask 00101011
          80 callsubr
          hintmask 00001101
          265 14 hlineto
          hintmask 00101011
          81 callsubr
          endchar
        </CharString>
        <CharString name="equal">
          -95 212 24 235 24 hstem
          27 212 rmoveto
          427 24 -427 hlineto
          235 vmoveto
          427 24 -427 hlineto
          endchar
        </CharString>
        <CharString name="estimated">
          188 0 21 237 17 239 19 hstem
          81 111 379 112 vstem
          81 266 rmoveto
          0 -78 28 -63 55 -51 55 -51 67 -23 96 0 62 0 30 6 42 16 40 16 35 27 38 40 rrcurveto
          -56 hlineto
          -43 -48 -72 -36 -76 0 rrcurveto
          -114 -76 66 27 hvcurveto
          133 vlineto
          13 5 -2 7 vhcurveto
          479 hlineto
          -4 89 -31 75 -58 45 -58 45 -61 21 -89 0 -97 0 -64 -25 -56 -50 -55 -52 -29 -62 0 -78 rrcurveto
          111 18 rmoveto
          137 vlineto
          23 81 70 108 86 104 -57 -42 vhcurveto
          -133 vlineto
          -10 -1 3 -12 vhcurveto
          -357 hlineto
          -5 -4 0 9 hvcurveto
          endchar
        </CharString>
        <CharString name="eth">
          -36 0 26 481 24 231 21 hstem
          54 24 380 24 vstem
          54 264 rmoveto
          -179 41 -85 137 vhcurveto
          70 hlineto
          107 73 65 199 hvcurveto
          0 151 -21 175 -97 103 rrcurveto
          122 48 -6 14 -128 -51 rlineto
          -52 47 -66 32 -96 0 rrcurveto
          -21 vlineto
          87 -1 57 -27 46 -39 rrcurveto
          -154 -61 5 -14 161 64 rlineto
          67 -67 24 -94 11 -58 -9 19 -44 47 -87 0 rrcurveto
          -70 hlineto
          -135 -43 -97 -170 hvcurveto
          24 hmoveto
          202 65 41 89 vhcurveto
          70 hlineto
          143 13 -133 -110 -131 -30 -107 -126 hvcurveto
          -70 hlineto
          -97 -57 37 201 hvcurveto
          endchar
        </CharString>
        <CharString name="eth.smcp">
          40 0 24 259 14 251 24 hstem
          108 24 388 24 vstem
          43 283 rmoveto
          106 callsubr
          89 -273 rmoveto
          107 callsubr
          endchar
        </CharString>
        <CharString name="exclam">
          -316 0 86 645 -20 hstemhm
          111 35 -24 12 hintmask 11100000
          111 12 rmoveto
          -7 5 -5 7 vhcurveto
          hintmask 11010000
          11 hlineto
          hintmask 11100000
          7 5 4 8 hvcurveto
          62 vlineto
          hintmask 11010000
          7 -4 5 -8 vhcurveto
          -11 hlineto
          hintmask 11100000
          -8 -4 -4 -8 hvcurveto
          6 657 rmoveto
          hintmask 11010000
          5 -535 12 0 5 535 rlineto
          endchar
        </CharString>
        <CharString name="exclam.smcp">
          -316 0 86 hstemhm
          111 35 -24 12 hintmask 11000000
          111 12 rmoveto
          -7 5 -5 7 vhcurveto
          hintmask 10100000
          11 hlineto
          hintmask 11000000
          7 5 4 8 hvcurveto
          62 vlineto
          hintmask 10100000
          7 -4 5 -8 vhcurveto
          -11 hlineto
          hintmask 11000000
          -8 -4 -4 -8 hvcurveto
          6 496 rmoveto
          hintmask 10100000
          5 -404 12 0 5 404 rlineto
          endchar
        </CharString>
        <CharString name="exclamdown">
          -309 374 86 hstemhm
          112 35 -28 22 hintmask 11000000
          112 387 rmoveto
          -7 4 -6 8 vhcurveto
          11 hlineto
          8 4 5 8 hvcurveto
          63 vlineto
          7 -5 3 -7 vhcurveto
          -11 hlineto
          -7 -5 -2 -8 hvcurveto
          hintmask 10100000
          7 -720 rmoveto
          22 0 -5 536 -12 0 rlineto
          endchar
        </CharString>
        <CharString name="exclamdown.alt">
          -316 21 -21 645 86 hstemhm
          111 35 -28 22 hintmask 11100000
          111 657 rmoveto
          -7 4 -5 8 vhcurveto
          11 hlineto
          8 4 4 8 hvcurveto
          62 vlineto
          7 -5 5 -7 vhcurveto
          -11 hlineto
          -7 -5 -4 -8 hvcurveto
          hintmask 11010000
          7 -719 rmoveto
          22 0 -5 535 -12 0 rlineto
          endchar
        </CharString>
        <CharString name="exclamdown.smcp">
          -316 21 -21 484 86 hstemhm
          111 35 -28 22 hintmask 11100000
          111 496 rmoveto
          28 callsubr
          hintmask 11010000
          7 -558 rmoveto
          22 0 -5 404 -12 0 rlineto
          endchar
        </CharString>
        <CharString name="f">
          -192 21 -21 507 24 -24 14 241 24 -24 13 hstemhm
          114 24 hintmask 10100100
          27 507 rmoveto
          87 -507 24 hlineto
          hintmask 11010100
          -28 callsubr
          hintmask 10001100
          142 13 hlineto
          hintmask 11010100
          -27 callsubr
          hintmask 10100100
          -87 -10 rlineto
          endchar
        </CharString>
        <CharString name="f.salt">
          -204 21 -21 482 24 258 22 -22 9 hstemhm
          81 24 hintmask 11101000
          81 hmoveto
          128 callsubr
          hintmask 11011000
          134 9 hlineto
          hintmask 11101000
          129 callsubr
          endchar
        </CharString>
        <CharString name="f.smcp">
          -46 21 -21 272 26 250 23 -23 14 hstemhm
          108 24 hintmask 11101000
          108 hmoveto
          82 callsubr
          hintmask 11011000
          265 14 hlineto
          hintmask 11101000
          81 callsubr
          endchar
        </CharString>
        <CharString name="f.superior">
          -250 694 17 -17 8 183 18 hstemhm
          109 18 hintmask 01110000
          35 694 rmoveto
          74 -316 18 hlineto
          hintmask 10110000
          316 132 17 -132 85 vlineto
          60 21 29 71 vhcurveto
          72 12 hlineto
          -30 4 -18 2 -37 0 rrcurveto
          -90 -7 -69 -36 hvcurveto
          0 -87 rlineto
          hintmask 01110000
          -74 -9 rlineto
          endchar
        </CharString>
        <CharString name="f_f">
          177 21 -21 507 24 -24 12 226 14 -5 14 hstemhm
          124 24 336 24 hintmask 10100110
          27 507 rmoveto
          97 -507 24 hlineto
          hintmask 11001110
          507 336 -509 24 509 178 24 -178 99 vlineto
          0 68 9 68 68 -4 rrcurveto
          0 141 -8 1 vhcurveto
          14 vlineto
          -36 10 -84 8 -30 0 rrcurveto
          -90 -3 -102 -54 hvcurveto
          -99 -336 89 vlineto
          0 97 39 39 65 -4 rrcurveto
          hintmask 11010110
          0 106 -7 1 vhcurveto
          14 vlineto
          -40 8 -38 9 -32 0 rrcurveto
          -120 -5 -100 -56 hvcurveto
          0 -89 rlineto
          hintmask 10100110
          -97 -12 rlineto
          endchar
        </CharString>
        <CharString name="f_f_i">
          385 21 -21 507 24 -24 17 221 14 2 25 hstemhm
          124 24 337 24 347 24 hintmask 10111111
          27 507 rmoveto
          97 -507 24 hlineto
          hintmask 11011111
          507 337 -507 24 507 347 -507 24 vlineto
          hintmask 10111111
          0 524 rlineto
          hintmask 11011111
          -371 7 0 53 rlineto
          0 127 67 54 93 -4 rrcurveto
          0 171 -8 1 vhcurveto
          14 vlineto
          -66 15 -77 4 -36 0 rrcurveto
          -120 -57 -84 -118 hvcurveto
          -53 -337 89 vlineto
          0 97 39 39 65 -4 rrcurveto
          0 106 -7 1 vhcurveto
          14 vlineto
          -40 8 -38 9 -32 0 rrcurveto
          -120 -5 -100 -56 hvcurveto
          0 -89 -97 -12 rlineto
          endchar
        </CharString>
        <CharString name="f_t">
          161 -1 13 495 24 -24 14 241 24 -24 13 hstemhm
          114 24 374 24 -16 16 hintmask 10100110
          27 507 rmoveto
          87 -507 24 hlineto
          hintmask 11010110
          507 374 vlineto
          1 -319 rlineto
          -132 39 -57 84 vhcurveto
          67 13 hlineto
          -7 -67 11 0 hvcurveto
          -30 4 -62 4 0 157 rrcurveto
          -1 319 175 0 0 24 -175 0 rlineto
          hintmask 11010101
          149 -16 vlineto
          hintmask 11010110
          -8 -149 -374 0 0 99 rlineto
          78 9 54 68 vhcurveto
          hintmask 10001110
          142 13 hlineto
          hintmask 11010110
          -27 callsubr
          hintmask 10100110
          -87 -10 rlineto
          endchar
        </CharString>
        <CharString name="f_y">
          342 21 -21 507 24 -24 14 241 24 -24 13 hstemhm
          114 24 hintmask 10100100
          27 507 rmoveto
          87 -507 24 hlineto
          hintmask 11010100
          507 181 vlineto
          88 0 26 -10 32 -89 rrcurveto
          105 -294 rlineto
          35 -100 61 -9 21 -1 rrcurveto
          -87 -270 12 0 46 102 233 699 -25 0 -171 -506 rlineto
          0 0 -64 -12 -37 103 rrcurveto
          -106 299 rlineto
          -28 79 -26 33 -115 1 rrcurveto
          -181 -1 0 99 rlineto
          78 9 54 68 vhcurveto
          hintmask 10001100
          142 13 hlineto
          hintmask 11010100
          -27 callsubr
          hintmask 10100100
          -87 -10 rlineto
          endchar
        </CharString>
        <CharString name="ffl">
          500 3 13 491 24 -24 12 226 14 5 22 hstemhm
          124 24 333 24 355 24 hintmask 10111111
          27 507 rmoveto
          97 -507 24 hlineto
          hintmask 11011111
          507 333 -507 24 507 147 24 -147 53 vlineto
          126 60 54 87 vhcurveto
          208 -572 hlineto
          -132 39 -57 84 vhcurveto
          67 13 hlineto
          -7 -67 11 0 hvcurveto
          -30 4 -62 4 0 157 rrcurveto
          594 -239 vlineto
          -120 -44 -94 -108 hvcurveto
          -53 -333 89 vlineto
          0 97 39 39 65 -4 rrcurveto
          0 106 -7 1 vhcurveto
          14 vlineto
          -40 8 -38 9 -32 0 rrcurveto
          -120 -5 -100 -56 hvcurveto
          0 -89 rlineto
          hintmask 10111111
          -97 -12 rlineto
          endchar
        </CharString>
        <CharString name="fi">
          18 21 -21 502 24 -24 14 245 25 hstemhm
          125 24 347 24 hintmask 10111100
          27 502 rmoveto
          98 -502 24 hlineto
          hintmask 11011100
          502 347 -502 24 519 vlineto
          -371 7 0 58 rlineto
          0 127 67 54 93 -4 rrcurveto
          0 171 -8 1 vhcurveto
          14 vlineto
          -66 15 -77 4 -36 0 rrcurveto
          -120 -57 -84 -118 hvcurveto
          0 -58 rlineto
          hintmask 10111100
          -98 -10 rlineto
          endchar
        </CharString>
        <CharString name="five">
          73 -4 24 -14 14 387 24 277 24 hstemhm
          104 24 418 24 hintmask 01111100
          103 6 rmoveto
          hintmask 10111100
          -95 callsubr
          hintmask 01111100
          -304 hlineto
          endchar
        </CharString>
        <CharString name="five.denominator">
          -124 -4 19 -12 12 241 18 183 18 hstemhm
          380 18 hintmask 01111000
          74 3 rmoveto
          hintmask 10111000
          40 callsubr
          hintmask 01111000
          -211 hlineto
          endchar
        </CharString>
        <CharString name="five.numerator">
          -124 251 19 -12 12 241 18 183 18 hstemhm
          380 18 hintmask 01111000
          74 258 rmoveto
          hintmask 10111000
          40 callsubr
          hintmask 01111000
          -211 hlineto
          endchar
        </CharString>
        <CharString name="five.oldstyle">
          96 -105 24 -14 14 387 24 277 24 hstemhm
          104 24 418 24 hintmask 01111100
          103 -81 rmoveto
          -14 vlineto
          hintmask 10111100
          -95 callsubr
          endchar
        </CharString>
        <CharString name="five.smcp">
          8 -1 25 -12 12 290 24 208 24 hstemhm
          104 20 357 24 hintmask 01111100
          103 12 rmoveto
          hintmask 10111100
          29 -8 116 -6 99 1 85 1 73 36 0 113 rrcurveto
          48 vlineto
          85 -30 56 -118 vhcurveto
          -99 hlineto
          -62 0 -50 -33 -16 -25 rrcurveto
          14 266 335 0 0 24 -358 0 -17 -356 20 0 rlineto
          54 67 46 68 vhcurveto
          98 hlineto
          109 15 -53 -66 hvcurveto
          -44 vlineto
          -82 -45 -45 -89 vhcurveto
          hintmask 01111100
          -244 hlineto
          endchar
        </CharString>
        <CharString name="five.tnum">
          54 -4 24 -14 14 387 24 277 24 hstemhm
          104 24 418 24 hintmask 01111100
          103 6 rmoveto
          hintmask 10111100
          -95 callsubr
          hintmask 01111100
          -304 hlineto
          endchar
        </CharString>
        <CharString name="five.tosf">
          54 -105 24 -14 14 387 24 277 24 hstemhm
          104 24 418 24 hintmask 01111100
          103 -81 rmoveto
          -14 vlineto
          hintmask 10111100
          -95 callsubr
          endchar
        </CharString>
        <CharString name="fiveinferior">
          -124 -204 19 -12 12 241 18 183 18 hstemhm
          380 18 hintmask 10111000
          74 -17 rmoveto
          18 hlineto
          1 37 40 36 46 0 rrcurveto
          110 hlineto
          84 7 -36 -50 hvcurveto
          -56 vlineto
          -68 -34 -31 -61 vhcurveto
          hintmask 01111000
          -211 -12 hlineto
          hintmask 10111000
          36 -6 98 -1 81 0 rrcurveto
          63 46 32 82 hvcurveto
          64 vlineto
          71 -32 29 -77 vhcurveto
          -82 0 -86 12 -28 -61 rrcurveto
          12 232 279 0 0 18 -295 0 rlineto
          endchar
        </CharString>
        <CharString name="fivesuperior">
          -124 351 19 -12 12 241 18 183 18 hstemhm
          380 18 hintmask 01111000
          74 358 rmoveto
          hintmask 10111000
          40 callsubr
          hintmask 01111000
          -211 hlineto
          endchar
        </CharString>
        <CharString name="fl">
          145 3 13 491 24 -24 14 241 24 hstemhm
          125 24 355 24 hintmask 10111100
          27 507 rmoveto
          98 -507 24 hlineto
          hintmask 11011100
          507 147 24 -147 53 vlineto
          126 58 52 87 vhcurveto
          210 -570 hlineto
          -132 39 -57 84 vhcurveto
          67 13 hlineto
          -7 -67 11 0 hvcurveto
          -30 4 -62 4 0 157 rrcurveto
          594 -239 vlineto
          -120 -44 -94 -108 hvcurveto
          0 -53 rlineto
          hintmask 10111100
          -98 -10 rlineto
          endchar
        </CharString>
        <CharString name="florin">
          25 -204 24 -12 12 601 24 331 24 -24 12 hstemhm
          hintmask 01100000
          27 -192 rmoveto
          hintmask 10110000
          6 -4 33 -8 39 0 132 0 25 176 18 116 rrcurveto
          52 333 144 0 4 24 -144 0 10 61 rlineto
          21 127 18 143 98 0 rrcurveto
          88 0 rlineto
          hintmask 00101000
          3 12 rlineto
          hintmask 10110000
          -6 2 -36 10 -49 0 -117 0 -20 -148 -24 -146 rrcurveto
          -10 -60 -102 0 -4 -25 102 0 -52 -333 rlineto
          -15 -99 -27 -169 -109 0 rrcurveto
          -75 hlineto
          endchar
        </CharString>
        <CharString name="four">
          -1 23 -21 210 24 -14 14 496 -20 hstemhm
          434 24 -14 14 hintmask 11011000
          27 237 rmoveto
          -97 callsubr
          hintmask 10111000
          90 10 0 14 rlineto
          hintmask 11011000
          -90 hlineto
          hintmask 11010100
          311 -14 vlineto
          hintmask 11011000
          -96 callsubr
          endchar
        </CharString>
        <CharString name="four.denominator">
          -167 22 -21 166 19 -8 8 hstemhm
          313 18 -9 9 hintmask 11010000
          22 177 rmoveto
          24 callsubr
          hintmask 10110000
          25 callsubr
          hintmask 11001000
          169 -9 vlineto
          hintmask 11010000
          26 callsubr
          endchar
        </CharString>
        <CharString name="four.numerator">
          -167 422 19 -8 8 hstemhm
          313 18 -9 9 hintmask 10100000
          22 432 rmoveto
          24 callsubr
          hintmask 01100000
          25 callsubr
          hintmask 10010000
          169 -9 vlineto
          hintmask 10100000
          26 callsubr
          endchar
        </CharString>
        <CharString name="four.oldstyle">
          -1 111 24 -14 14 hstemhm
          434 24 -14 14 hintmask 10100000
          27 136 rmoveto
          -97 callsubr
          hintmask 01100000
          90 10 0 14 rlineto
          hintmask 10100000
          -90 hlineto
          hintmask 10010000
          311 -14 vlineto
          hintmask 10100000
          -96 callsubr
          endchar
        </CharString>
        <CharString name="four.smcp">
          -46 23 -21 165 24 -14 14 hstemhm
          389 24 -14 14 hintmask 11010000
          27 190 rmoveto
          17 -23 345 0 0 -165 24 0 0 165 rlineto
          hintmask 10110000
          90 10 0 14 rlineto
          hintmask 11010000
          -90 hlineto
          hintmask 11001000
          265 -14 vlineto
          hintmask 11010000
          -10 -75 0 -190 -334 0 209 379 -26 0 rlineto
          endchar
        </CharString>
        <CharString name="four.tnum">
          54 23 -21 210 24 -14 14 496 -20 hstemhm
          475 24 -14 14 hintmask 11011000
          68 237 rmoveto
          -97 callsubr
          hintmask 10111000
          90 10 0 14 rlineto
          hintmask 11011000
          -90 hlineto
          hintmask 11010100
          311 -14 vlineto
          hintmask 11011000
          -96 callsubr
          endchar
        </CharString>
        <CharString name="four.tosf">
          54 111 24 -14 14 hstemhm
          491 24 -14 14 hintmask 10100000
          84 136 rmoveto
          -97 callsubr
          hintmask 01100000
          90 10 0 14 rlineto
          hintmask 10100000
          -90 hlineto
          hintmask 10010000
          311 -14 vlineto
          hintmask 10100000
          -96 callsubr
          endchar
        </CharString>
        <CharString name="fourinferior">
          -167 -33 19 -8 8 hstemhm
          313 18 -9 9 hintmask 10100000
          22 -23 rmoveto
          24 callsubr
          hintmask 01100000
          25 callsubr
          hintmask 10010000
          169 -9 vlineto
          hintmask 10100000
          26 callsubr
          endchar
        </CharString>
        <CharString name="foursuperior">
          -167 522 19 -8 8 hstemhm
          313 18 -9 9 hintmask 10100000
          22 532 rmoveto
          24 callsubr
          hintmask 01100000
          25 callsubr
          hintmask 10010000
          169 -9 vlineto
          hintmask 10100000
          26 callsubr
          endchar
        </CharString>
        <CharString name="fraction">
          -415 21 -21 hstem
          -122 hmoveto
          23 callsubr
          endchar
        </CharString>
        <CharString name="g">
          -4 -270 24 283 23 113 25 311 24 -14 14 hstemhm
          64 22 386 24 -3 24 hintmask 11110101
          64 120 rmoveto
          -26 callsubr
          hintmask 11110110
          -25 callsubr
          hintmask 11101101
          -24 callsubr
          hintmask 11110101
          -23 callsubr
          22 -236 rmoveto
          -22 callsubr
          460 vmoveto
          -21 callsubr
          hintmask 11110110
          -20 callsubr
          endchar
        </CharString>
        <CharString name="g.salt">
          -13 -10 24 499 24 hstem
          68 24 366 24 vstem
          68 268 rmoveto
          57 callsubr
          24 hmoveto
          58 callsubr
          endchar
        </CharString>
        <CharString name="g.smcp">
          -2 -7 24 4 -21 287 24 -24 14 254 24 hstemhm
          74 24 390 24 -14 14 hintmask 10001110
          74 286 rmoveto
          83 callsubr
          hintmask 01101101
          84 callsubr
          hintmask 10011110
          85 callsubr
          hintmask 10001101
          86 callsubr
          endchar
        </CharString>
        <CharString name="g.superior">
          -163 186 17 284 17 210 18 -8 8 hstemhm
          42 18 -11 17 258 18 -8 18 hintmask 11010101
          49 291 rmoveto
          -71 45 -34 64 vhcurveto
          93 hlineto
          89 12 68 41 hvcurveto
          8 vlineto
          0 54 -39 18 -59 7 rrcurveto
          -149 17 rlineto
          hintmask 11011010
          -35 4 -11 17 1 24 2 40 64 3 11 0 rrcurveto
          83 hlineto
          97 25 63 53 hvcurveto
          0 69 -36 36 -20 7 rrcurveto
          86 9 0 8 rlineto
          hintmask 11101000
          -201 hlineto
          -73 -48 -43 -86 hvcurveto
          0 -60 40 -37 28 -9 -54 -2 -22 -24 0 -26 0 -18 0 -13 14 -14 rrcurveto
          hintmask 11010101
          -7 -67 rlineto
          17 -33 rmoveto
          92 vlineto
          0 0 16 -9 21 -2 rrcurveto
          149 -17 rlineto
          36 -4 46 -8 0 -52 rrcurveto
          -5 vlineto
          -62 -30 -30 -58 vhcurveto
          -81 hlineto
          -66 -33 31 66 hvcurveto
          2 303 rmoveto
          hintmask 11100010
          44 15 67 86 vhcurveto
          64 hlineto
          58 33 -50 -61 -72 -49 -27 -59 hvcurveto
          -45 hlineto
          -60 -43 40 59 hvcurveto
          endchar
        </CharString>
        <CharString name="gbreve">
          -4 -270 24 283 23 113 25 311 24 -14 14 63 14 hstemhm
          64 22 78 14 202 14 78 24 -3 24 hintmask 0000010110000000
          164 710 rmoveto
          52 callsubr
          hintmask 1111001000100000
          -114 -590 rmoveto
          -26 callsubr
          hintmask 1111001001000000
          -25 callsubr
          hintmask 1110101000100000
          -24 callsubr
          hintmask 1111001000100000
          -23 callsubr
          22 -236 rmoveto
          -22 callsubr
          460 vmoveto
          -21 callsubr
          hintmask 1111001001000000
          -20 callsubr
          endchar
        </CharString>
        <CharString name="gbreve.salt">
          -13 -10 24 499 24 56 14 hstem
          68 24 81 14 202 14 55 24 vstem
          173 707 rmoveto
          52 callsubr
          -119 -439 rmoveto
          57 callsubr
          24 hmoveto
          58 callsubr
          endchar
        </CharString>
        <CharString name="gbreve.smcp">
          -2 -7 24 -17 21 266 14 -14 24 244 24 60 14 hstemhm
          74 24 74 14 202 14 86 24 -14 14 hintmask 0000010110000000
          172 753 rmoveto
          52 callsubr
          hintmask 1000101001000000
          -112 -467 rmoveto
          83 callsubr
          hintmask 0101101000100000
          84 callsubr
          hintmask 1010101001000000
          85 callsubr
          hintmask 1000101000100000
          86 callsubr
          endchar
        </CharString>
        <CharString name="gcircumflex">
          -4 -270 24 283 23 113 25 311 24 -14 14 64 130 hstemhm
          64 22 61 272 53 24 -3 24 hintmask 0000010100000000
          147 597 rmoveto
          -42 callsubr
          0 vmoveto
          20 hmoveto
          hintmask 1111001001000000
          -235 -607 rmoveto
          -26 callsubr
          hintmask 1111001010000000
          -25 callsubr
          hintmask 1110101001000000
          -24 callsubr
          hintmask 1111001001000000
          -23 callsubr
          22 -236 rmoveto
          -22 callsubr
          460 vmoveto
          -21 callsubr
          hintmask 1111001010000000
          -20 callsubr
          endchar
        </CharString>
        <CharString name="gcircumflex.salt">
          -13 -10 24 499 24 60 130 hstem
          68 24 64 272 30 24 vstem
          156 597 rmoveto
          -42 callsubr
          0 vmoveto
          20 hmoveto
          -240 -459 rmoveto
          57 callsubr
          24 hmoveto
          58 callsubr
          endchar
        </CharString>
        <CharString name="gcircumflex.smcp">
          -2 -7 24 -17 21 266 14 -14 24 244 24 60 130 hstemhm
          74 24 73 272 45 24 -14 14 hintmask 0000010100000000
          171 639 rmoveto
          -42 callsubr
          0 vmoveto
          20 hmoveto
          hintmask 1000101010000000
          -249 -483 rmoveto
          83 callsubr
          hintmask 0101101001000000
          84 callsubr
          hintmask 1010101010000000
          85 callsubr
          hintmask 1000101001000000
          86 callsubr
          endchar
        </CharString>
        <CharString name="gcommaaccent">
          -4 -270 24 419 25 -25 15 321 24 -14 14 193.600006104 5.39999389648 hstemhm
          62 24 186.100006104 30.6000061035 -30.6000061035 14.3999938965 185.5 24 -3 24 hintmask 1000011100000000
          272.100006104 603.300003052 rmoveto
          66 callsubr
          hintmask 1000011010000000
          67 callsubr
          -210.100006104 -585.100006104 rmoveto
          0 -8 -1 -18 12 -12 rrcurveto
          -12 -103 0 -94 rlineto
          -99 62 -55 94 vhcurveto
          150 hlineto
          hintmask 1101011000100000
          131 19 94 60 hvcurveto
          33 vlineto
          0 79 -72 30 -73 9 rrcurveto
          -197 25 rlineto
          -22 3 -66 16 0 40 rrcurveto
          52 72 2 16 vhcurveto
          156 hlineto
          hintmask 1001011001000000
          -25 callsubr
          hintmask 1000111000100000
          -24 callsubr
          hintmask 1011011000100000
          -312 hlineto
          -121 -51 -57 -132 hvcurveto
          0 -59 13 -67 74 -30 -59 0 -28 -33 0 -36 rrcurveto
          24 -235 rmoveto
          183 vlineto
          0 0 29 -23 54 -7 rrcurveto
          206 -28 rlineto
          77 -10 41 -28 0 -59 rrcurveto
          -28 vlineto
          -94 -56 -36 -70 vhcurveto
          -150 hlineto
          -40 -91 18 112 hvcurveto
          460 vmoveto
          -21 callsubr
          hintmask 1101011001000000
          -20 callsubr
          endchar
        </CharString>
        <CharString name="gcommaaccent.salt">
          -13 -10 24 499 24 189.600006104 5.39999389648 hstemhm
          68 24 191.100006104 30.6000061035 -30.6000061035 14.3999938965 160.5 24 hintmask 11111010
          283.100006104 603.300003052 rmoveto
          66 callsubr
          hintmask 11110110
          67 callsubr
          -215.100006104 -436.100006104 rmoveto
          57 callsubr
          24 hmoveto
          58 callsubr
          endchar
        </CharString>
        <CharString name="gcommaaccent.smcp">
          -1 -200.199996948 5.39999389648 187.800003052 24 4 -21 287 24 -24 14 254 24 hstemhm
          73 24 185.100006104 30.6000061035 -14.4000091553 14.3999938965 164.300003052 24 -14 14 hintmask 1100011001000000
          73 286 rmoveto
          0 -50 6 -244 207 1 60 0 78 27 53 34 rrcurveto
          hintmask 1011011000100000
          84 callsubr
          hintmask 1100111001000000
          -81 0 9 -3 -73 -7 rrcurveto
          -14 188 -209 vlineto
          -22 -17 -88 -44 -81 0 rrcurveto
          -117 -72 94 177 199 54 68 135 hvcurveto
          hintmask 1100011000100000
          86 0 53 -9 62 -6 rrcurveto
          14 vlineto
          -67 16 -91 9 -43 0 rrcurveto
          -172 -41 -109 -184 hvcurveto
          hintmask 1000000100000000
          209.099609375 -413.299804688 rmoveto
          63 callsubr
          hintmask 1000000010000000
          64 callsubr
          hintmask 1000000100000000
          65 callsubr
          endchar
        </CharString>
        <CharString name="gdotaccent">
          -4 -270 24 283 23 113 25 311 24 -14 14 63 86 hstemhm
          64 22 184.5 35 166.5 24 -3 24 hintmask 0000010100000000
          270.5 608 rmoveto
          -100 callsubr
          hintmask 1111001001000000
          -206.5 -550 rmoveto
          -26 callsubr
          hintmask 1111001010000000
          -25 callsubr
          hintmask 1110101001000000
          -24 callsubr
          hintmask 1111001001000000
          -23 callsubr
          22 -236 rmoveto
          -22 callsubr
          460 vmoveto
          -21 callsubr
          hintmask 1111001010000000
          -20 callsubr
          endchar
        </CharString>
        <CharString name="gdotaccent.salt">
          -13 -10 24 499 24 60 86 hstem
          68 24 186.5 35 144.5 24 vstem
          278.5 609 rmoveto
          -100 callsubr
          -210.5 -403 rmoveto
          57 callsubr
          24 hmoveto
          58 callsubr
          endchar
        </CharString>
        <CharString name="gdotaccent.smcp">
          -2 -7 24 -17 21 266 14 -14 24 244 24 60 86 hstemhm
          74 24 185.5 35 169.5 24 -14 14 hintmask 0000010100000000
          283.5 651 rmoveto
          -100 callsubr
          hintmask 1000101010000000
          -209.5 -427 rmoveto
          83 callsubr
          hintmask 0101101001000000
          84 callsubr
          hintmask 1010101010000000
          85 callsubr
          hintmask 1000101001000000
          86 callsubr
          endchar
        </CharString>
        <CharString name="germandbls">
          -10 -8 24 5 -21 753 24 hstemhm
          81 24 153 24 235 24 hintmask 01111100
          81 hmoveto
          24 566 hlineto
          120 69 67 115 vhcurveto
          139 0 65 -53 -22 -94 -10 -44 -37 -49 -33 -23 -100 -70 -33 -17 0 -55 0 -145 261 101 -2 -125 rrcurveto
          -47 vlineto
          hintmask 10111100
          -43 -20 -73 -114 vhcurveto
          hintmask 01111100
          -69 0 -66 3 -38 2 rrcurveto
          -14 vlineto
          hintmask 10111100
          35 -7 70 -8 68 0 rrcurveto
          95 63 49 91 hvcurveto
          47 vlineto
          -1 148 -258 -93 0 114 0 52 49 15 73 56 109 76 71 230 -295 0 rrcurveto
          -142 -66 -95 -116 hvcurveto
          endchar
        </CharString>
        <CharString name="germandbls.smcp">
          410 -10 24 -8 14 248 24 252 14 -8 23 hstemhm
          50 24 350 24 81 24 350 24 hintmask 0010111110000000
          50 374 rmoveto
          67 vlineto
          82 35 50 103 vhcurveto
          hintmask 0011011110000000
          52 0 114 -6 67 -9 rrcurveto
          -14 vlineto
          hintmask 1010111110000000
          0 -135 6 -98 -78 -36 -33 -76 vhcurveto
          -67 vlineto
          -83 44 1 70 vhcurveto
          130 hlineto
          87 43 -29 -75 hvcurveto
          -70 vlineto
          -109 -75 -19 -55 vhcurveto
          hintmask 0110011110000000
          -49 0 -160 4 -37 12 rrcurveto
          14 vlineto
          hintmask 1010111110000000
          0 150 -6 96 82 24 54 50 vhcurveto
          70 vlineto
          60 -34 20 -72 vhcurveto
          -130 hlineto
          -94 -44 10 96 hvcurveto
          479 67 rmoveto
          -67 vlineto
          -96 44 -10 94 vhcurveto
          130 hlineto
          72 34 -20 -60 hvcurveto
          -70 vlineto
          -50 -24 -54 -82 vhcurveto
          hintmask 0110011110000000
          -96 -150 6 0 hvcurveto
          -14 vlineto
          hintmask 1010111110000000
          37 -12 160 -4 49 0 rrcurveto
          55 75 19 109 hvcurveto
          70 vlineto
          75 -43 29 -87 vhcurveto
          -130 hlineto
          -70 -44 -1 83 hvcurveto
          67 vlineto
          76 36 33 78 vhcurveto
          hintmask 0011011110000000
          98 135 -6 0 hvcurveto
          14 vlineto
          hintmask 1010111110000000
          -67 9 -114 6 -52 0 rrcurveto
          -103 -35 -50 -82 hvcurveto
          endchar
        </CharString>
        <CharString name="grave">
          -375 531 133 hstem
          27 147 vstem
          27 664 rmoveto
          -41 callsubr
          endchar
        </CharString>
        <CharString name="grave.smcp">
          -375 531 133 hstem
          27 147 vstem
          27 664 rmoveto
          -41 callsubr
          endchar
        </CharString>
        <CharString name="greater">
          -96 68 141 rmoveto
          344 204 0 20 -344 192 0 -27 314 -175 -314 -186 rlineto
          endchar
        </CharString>
        <CharString name="greaterequal">
          -65 128 24 hstem
          68 128 rmoveto
          378 24 -378 hlineto
          32 69 rmoveto
          346 204 0 20 -346 192 0 -27 314 -175 -314 -186 rlineto
          endchar
        </CharString>
        <CharString name="guillemotleft">
          -28 68 354 rmoveto
          210 -209 18 18 -194 191 188 187 -18 17 rlineto
          -20 -204 rmoveto
          210 -209 18 18 -194 191 188 187 -16 17 rlineto
          endchar
        </CharString>
        <CharString name="guillemotright">
          -28 68 163 rmoveto
          18 -18 210 209 -206 204 -16 -17 188 -187 rlineto
          -10 -191 rmoveto
          18 -18 210 209 -204 204 -18 -17 188 -187 rlineto
          endchar
        </CharString>
        <CharString name="guilsinglleft">
          -222 68 228 vstem
          68 354 rmoveto
          210 -208 18 17 -196 191 190 187 -16 16 rlineto
          endchar
        </CharString>
        <CharString name="guilsinglright">
          -222 68 228 vstem
          68 163 rmoveto
          16 -17 212 208 -206 203 -18 -16 190 -187 rlineto
          endchar
        </CharString>
        <CharString name="h">
          21 -21 516 24 244 -20 hstem
          81 24 356 24 vstem
          81 hmoveto
          -19 callsubr
          endchar
        </CharString>
        <CharString name="h.smcp">
          29 20 -21 264 24 hstem
          108 24 381 24 vstem
          108 -1 rmoveto
          87 callsubr
          endchar
        </CharString>
        <CharString name="h.superior">
          -187 721 18 hstem
          51 18 250 18 vstem
          51 378 rmoveto
          18 296 hlineto
          41 22 50 25 62 0 rrcurveto
          53 44 -34 -62 hvcurveto
          -247 18 247 vlineto
          59 -31 55 -82 vhcurveto
          -61 0 -61 -30 -33 -24 rrcurveto
          216 -18 vlineto
          endchar
        </CharString>
        <CharString name="hbar">
          21 -21 516 24 91 14 139 -20 hstem
          81 24 356 24 vstem
          11 631 rmoveto
          70 -631 24 455 hlineto
          74 40 54 21 88 0 rrcurveto
          89 51 -62 -84 hvcurveto
          -370 24 370 vlineto
          88 -58 82 -106 vhcurveto
          -81 0 -77 -33 -58 -38 rrcurveto
          162 144 14 -144 139 -24 -139 -70 vlineto
          endchar
        </CharString>
        <CharString name="hbar.smcp">
          29 20 -21 264 24 132 11 hstem
          108 24 380 24 vstem
          58 419 rmoveto
          50 -420 24 264 380 -264 24 420 54 11 -54 140 -24 -140 -380 hlineto
          140 -24 -140 -50 vlineto
          74 -143 rmoveto
          132 380 -132 vlineto
          endchar
        </CharString>
        <CharString name="hcircumflex">
          0 21 495 24 224 20 60 130 hstemhm
          -27 272 -144 24 356 24 hintmask 00011000
          -27 844 rmoveto
          -42 callsubr
          0 vmoveto
          20 hmoveto
          hintmask 11100110
          -24 -974 rmoveto
          -19 callsubr
          endchar
        </CharString>
        <CharString name="hcircumflex.smcp">
          29 -1 21 243 24 343 130 hstem
          108 24 54.5 272 54.5 24 vstem
          cntrmask 00011100
          186.5 630 rmoveto
          -42 callsubr
          0 vmoveto
          20 hmoveto
          -230.5 -761 rmoveto
          87 callsubr
          endchar
        </CharString>
        <CharString name="hungarumlaut">
          -232 531 133 hstem
          27 286 vstem
          27 531 rmoveto
          20 callsubr
          18 -133 rmoveto
          20 callsubr
          endchar
        </CharString>
        <CharString name="hyphen">
          -238 278 24 hstem
          27 284 vstem
          27 278 rmoveto
          284 24 -284 hlineto
          endchar
        </CharString>
        <CharString name="hyphen.alt">
          -208 348 24 hstem
          27 314 vstem
          27 348 rmoveto
          11 callsubr
          endchar
        </CharString>
        <CharString name="hyphen.smcp">
          -208 263 24 hstem
          27 314 vstem
          27 263 rmoveto
          11 callsubr
          endchar
        </CharString>
        <CharString name="i">
          -406 21 -21 531 -20 99 86 hstem
          72 24 vstem
          68 622 rmoveto
          -18 callsubr
          4 -684 rmoveto
          -17 callsubr
          endchar
        </CharString>
        <CharString name="i.smcp">
          -376 21 -21 hstem
          108 24 vstem
          108 hmoveto
          88 callsubr
          endchar
        </CharString>
        <CharString name="i.superior">
          -455 782 56 hstem
          50 18 vstem
          46 793 rmoveto
          -7 5 -4 7 vhcurveto
          3 hlineto
          7 5 3 8 hvcurveto
          33 vlineto
          7 -4 5 -8 vhcurveto
          -3 hlineto
          -8 -4 -4 -8 hvcurveto
          4 -448 rmoveto
          18 356 -18 hlineto
          endchar
        </CharString>
        <CharString name="iacute">
          -390 0 21 490 20 65 133 hstemhm
          81 24 -19 147 hintmask 00101000
          86 596 rmoveto
          20 callsubr
          hintmask 11010000
          -126 -729 rmoveto
          -17 callsubr
          endchar
        </CharString>
        <CharString name="iacute.smcp">
          -376 0 21 609 133 hstemhm
          108 24 -19 147 hintmask 01010000
          113 630 rmoveto
          20 callsubr
          hintmask 10100000
          -126 -763 rmoveto
          88 callsubr
          endchar
        </CharString>
        <CharString name="icircumflex">
          -390 0 21 490 20 65 130 hstemhm
          -43 272 -148 24 hintmask 00110000
          -43 596 rmoveto
          -42 callsubr
          0 vmoveto
          20 hmoveto
          hintmask 11001000
          -28 -726 rmoveto
          -17 callsubr
          endchar
        </CharString>
        <CharString name="icircumflex.smcp">
          -376 0 21 609 130 hstemhm
          -21 272 -143 24 hintmask 01100000
          -21 630 rmoveto
          -42 callsubr
          0 vmoveto
          20 hmoveto
          hintmask 10010000
          -23 -760 rmoveto
          88 callsubr
          endchar
        </CharString>
        <CharString name="idieresis">
          -390 0 21 490 20 65 35 hstem
          -51.5 34 98.5 24 97.5 35 vstem
          -51.5 614 rmoveto
          7 callsubr
          254 hmoveto
          8 callsubr
          -121.5 -614 rmoveto
          -17 callsubr
          endchar
        </CharString>
        <CharString name="idieresis.smcp">
          -376 0 21 609 35 hstem
          -32.5 34 106.5 24 89.5 35 vstem
          -32.5 648 rmoveto
          7 callsubr
          254 hmoveto
          8 callsubr
          -113.5 -648 rmoveto
          88 callsubr
          endchar
        </CharString>
        <CharString name="igrave">
          -390 0 21 490 20 65 133 hstemhm
          -47 147 -19 24 hintmask 00110000
          -47 729 rmoveto
          -41 callsubr
          hintmask 11001000
          102 -729 rmoveto
          -17 callsubr
          endchar
        </CharString>
        <CharString name="igrave.smcp">
          -376 0 21 609 133 hstemhm
          -18 147 -19 24 hintmask 01100000
          -18 763 rmoveto
          -41 callsubr
          hintmask 10010000
          102 -763 rmoveto
          88 callsubr
          endchar
        </CharString>
        <CharString name="imacron">
          -390 0 21 490 20 65 15 hstemhm
          -33 252 -138 24 hintmask 00110000
          -33 596 rmoveto
          12 callsubr
          hintmask 11001000
          114 -611 rmoveto
          -17 callsubr
          endchar
        </CharString>
        <CharString name="imacron.smcp">
          -376 0 21 609 15 hstemhm
          1 252 -135 24 hintmask 01100000
          1 630 rmoveto
          12 callsubr
          hintmask 10010000
          117 -645 rmoveto
          88 callsubr
          endchar
        </CharString>
        <CharString name="infinity">
          245 169 24 297 24 hstem
          68 24 638 24 vstem
          68 341 rmoveto
          -92 19 -80 127 vhcurveto
          90 0 70 82 36 71 34 -61 74 -92 90 0 rrcurveto
          127 19 80 92 77 -8 96 -138 hvcurveto
          -76 0 -88 -95 -34 -55 -38 58 -82 92 -76 0 rrcurveto
          -138 -8 -86 -87 hvcurveto
          24 hmoveto
          109 26 40 96 vhcurveto
          59 0 77 -76 48 -71 -28 -48 -69 -102 -87 0 rrcurveto
          -91 -31 46 102 hvcurveto
          330 2 rmoveto
          41 64 86 83 59 0 rrcurveto
          105 17 -60 -89 -85 -18 -63 -104 hvcurveto
          -73 0 -70 74 -43 76 rrcurveto
          endchar
        </CharString>
        <CharString name="integral">
          -121 -204 24 -14 14 956 24 -24 14 hstemhm
          215 24 hintmask 01001000
          27 -180 rmoveto
          -14 vlineto
          hintmask 10101000
          13 -9 47 -1 41 0 rrcurveto
          120 -9 133 159 hvcurveto
          418 vlineto
          143 -8 127 99 vhcurveto
          hintmask 00011000
          98 14 hlineto
          hintmask 10101000
          -31 8 -7 2 -61 0 rrcurveto
          -117 3 -135 -159 hvcurveto
          -418 vlineto
          -172 4 -96 -96 vhcurveto
          endchar
        </CharString>
        <CharString name="iogonek">
          -406 -181 14 147 20 0 21 490 20 79 86 hstemhm
          91 24 hintmask 11000000
          99 hmoveto
          53 callsubr
          hintmask 00111100
          -24 622 rmoveto
          -18 callsubr
          4 -684 rmoveto
          -17 callsubr
          endchar
        </CharString>
        <CharString name="iogonek.smcp">
          -376 -181 14 147 20 0 21 hstemhm
          116 24 hintmask 11000000
          123 hmoveto
          53 callsubr
          hintmask 00110000
          -19 hmoveto
          88 callsubr
          endchar
        </CharString>
        <CharString name="itilde">
          -390 0 21 490 20 65 16 57 16 hstem
          81 24 vstem
          -76 627 rmoveto
          6 callsubr
          157 -627 rmoveto
          -17 callsubr
          endchar
        </CharString>
        <CharString name="itilde.smcp">
          -376 0 21 609 16 57 16 hstem
          108 24 vstem
          -47 661 rmoveto
          6 callsubr
          155 -661 rmoveto
          88 callsubr
          endchar
        </CharString>
        <CharString name="j">
          -379 531 -20 99 86 hstemhm
          87 24 -24 13 hintmask 11000000
          81 622 rmoveto
          -100 callsubr
          hintmask 11010000
          6 -954 rmoveto
          13 hlineto
          hintmask 11100000
          -16 callsubr
          endchar
        </CharString>
        <CharString name="j.smcp">
          -244 20 14 hstem
          240 24 vstem
          47 20 rmoveto
          89 callsubr
          endchar
        </CharString>
        <CharString name="j.superior">
          -452 733 -20 69 56 hstemhm
          51 19 -19 8 hintmask 11010000
          47 793 rmoveto
          -7 5 -4 7 vhcurveto
          4 hlineto
          7 4 3 8 hvcurveto
          33 vlineto
          7 -3 5 -8 vhcurveto
          -4 hlineto
          -8 -4 -4 -8 hvcurveto
          4 -630 rmoveto
          8 hlineto
          hintmask 11100000
          7 52 5 69 -1 58 rrcurveto
          358 -19 vlineto
          endchar
        </CharString>
        <CharString name="jcircumflex">
          -406 531 -20 hstemhm
          70 24 -24 13 hintmask 10000000
          -60 596 rmoveto
          18 0 124 116 113 -116 17 0 -119 130 -21 0 rlineto
          hintmask 10100000
          -2 -996 rmoveto
          13 hlineto
          hintmask 11000000
          -16 callsubr
          2 195 rmoveto
          21 hmoveto
          endchar
        </CharString>
</ttFont>
